<svg xmlns="http://www.w3.org/2000/svg" width="24" height="24" viewBox="0 0 24 24">
    <path fill="#999" fill-rule="evenodd" d="M11.979 0c3.357 0 6.214 1.171 8.571 3.514a11.531 11.531 0 0 1 2.571 3.868c.586 1.45.879 2.99.879 4.618 0 1.643-.29 3.182-.868 4.618a11.007 11.007 0 0 1-2.56 3.803 12.335 12.335 0 0 1-3.986 2.658 11.947 11.947 0 0 1-4.607.921c-1.586 0-3.104-.304-4.554-.91a12.07 12.07 0 0 1-3.9-2.636A11.957 11.957 0 0 1 .9 16.564C.3 15.121 0 13.6 0 12c0-1.586.304-3.11.91-4.575a12.045 12.045 0 0 1 2.647-3.932C5.843 1.164 8.65 0 11.98 0zm.042 2.164c-2.742 0-5.05.957-6.921 2.872A10.322 10.322 0 0 0 2.925 8.26 9.461 9.461 0 0 0 2.165 12a9.41 9.41 0 0 0 .76 3.718A9.948 9.948 0 0 0 5.1 18.91a9.891 9.891 0 0 0 3.193 2.143 9.62 9.62 0 0 0 3.728.739c1.286 0 2.533-.25 3.74-.75a10.347 10.347 0 0 0 3.268-2.164C20.9 17.05 21.836 14.757 21.836 12a9.852 9.852 0 0 0-.729-3.771 9.59 9.59 0 0 0-2.121-3.172c-1.929-1.928-4.25-2.893-6.965-2.893zm-.15 7.843l-1.607.836c-.171-.357-.382-.607-.632-.75-.25-.143-.482-.214-.696-.214-1.072 0-1.607.707-1.607 2.121 0 .643.135 1.157.407 1.543.271.386.671.578 1.2.578.7 0 1.193-.342 1.478-1.028l1.479.75a3.53 3.53 0 0 1-3.15 1.886c-1.072 0-1.936-.329-2.593-.986S5.164 13.17 5.164 12c0-1.143.332-2.05.997-2.721.664-.672 1.503-1.008 2.518-1.008 1.485 0 2.55.579 3.192 1.736zm6.922 0l-1.586.836c-.171-.357-.382-.607-.632-.75a1.45 1.45 0 0 0-.718-.214c-1.071 0-1.607.707-1.607 2.121 0 .643.136 1.157.407 1.543.272.386.672.578 1.2.578.7 0 1.193-.342 1.479-1.028l1.5.75a3.687 3.687 0 0 1-1.329 1.382 3.465 3.465 0 0 1-1.821.504c-1.086 0-1.954-.329-2.604-.986-.65-.657-.975-1.572-.975-2.743 0-1.143.332-2.05.997-2.721.664-.672 1.503-1.008 2.517-1.008 1.486 0 2.543.579 3.172 1.736z"/>
</svg>
