<svg xmlns="http://www.w3.org/2000/svg" width="30" height="30" viewBox="0 0 30 30">
    <g fill="#515151" fill-rule="nonzero">
        <path d="M27.8 11.111C24.933 1.556 20.8-.667 11.244 2.2 1.69 5.067-.533 9.2 2.334 18.756c2.866 9.555 7 11.777 16.555 8.91 9.555-2.866 11.778-7 8.911-16.555zm-4.822 6.2l-1.8.6.622 1.867c.244.755-.156 1.578-.911 1.822-.156.044-.333.089-.489.067a1.483 1.483 0 0 1-1.333-.978l-.623-1.867-3.71 1.245.622 1.866c.244.756-.156 1.578-.912 1.823-.155.044-.333.088-.488.066a1.483 1.483 0 0 1-1.334-.978L12 20.978l-1.8.6c-.156.044-.333.089-.489.066a1.483 1.483 0 0 1-1.333-.977c-.245-.756.155-1.578.91-1.823l1.8-.6-1.2-3.577-1.8.6c-.155.044-.332.089-.488.066a1.483 1.483 0 0 1-1.333-.977c-.245-.756.155-1.578.91-1.823l1.8-.6-.621-1.866c-.245-.756.155-1.578.91-1.823.756-.244 1.578.156 1.823.912l.622 1.866 3.711-1.244L14.8 7.91c-.244-.755.156-1.578.911-1.822.756-.245 1.578.155 1.822.911l.623 1.867 1.8-.6c.755-.245 1.577.155 1.822.91.244.756-.156 1.579-.911 1.823l-1.8.6 1.2 3.578 1.8-.6c.755-.245 1.577.155 1.822.91.244.756-.156 1.579-.911 1.823z"/>
        <path d="M12.453 13.658l3.982-1.334 1.112 3.318-3.982 1.334z"/>
    </g>
</svg>
