<svg xmlns="http://www.w3.org/2000/svg" width="24" height="24" viewBox="0 0 24 24">
    <path fill="#999" fill-rule="evenodd" d="M15.236 9.021v4.908h-1.372v5.828h-3.728V13.93H8.764V9.02c0-.214.075-.396.225-.546a.744.744 0 0 1 .547-.225h4.928c.2 0 .379.075.536.225.157.15.236.332.236.546zm-4.907-3.085c0-1.129.557-1.693 1.671-1.693 1.114 0 1.671.564 1.671 1.693 0 1.114-.557 1.671-1.671 1.671-1.114 0-1.671-.557-1.671-1.671zM11.979 0c3.371 0 6.214 1.157 8.528 3.471C22.836 5.8 24 8.643 24 12c0 3.371-1.143 6.179-3.429 8.421C18.143 22.807 15.28 24 11.98 24c-3.243 0-6.058-1.179-8.443-3.536C1.179 18.107 0 15.286 0 12c0-3.286 1.179-6.129 3.536-8.529C5.85 1.157 8.664 0 11.979 0zm.042 2.164c-2.728 0-5.035.957-6.921 2.872-1.957 2-2.936 4.321-2.936 6.964 0 2.657.972 4.957 2.915 6.9 1.942 1.943 4.257 2.914 6.942 2.914 2.672 0 5-.978 6.986-2.935 1.886-1.815 2.829-4.108 2.829-6.879 0-2.729-.957-5.05-2.872-6.964-1.914-1.915-4.228-2.872-6.943-2.872z"/>
</svg>
