<svg xmlns="http://www.w3.org/2000/svg" width="30" height="30" viewBox="0 0 30 30">
    <path fill="#515151" fill-rule="evenodd" d="M.5 15.368c0 6.568 4.154 12.14 9.917 14.106.725.137.99-.322.99-.716 0-.353-.013-1.288-.02-2.528-4.034.898-4.885-1.994-4.885-1.994-.659-1.717-1.61-2.174-1.61-2.174-1.316-.923.1-.904.1-.904 1.455.105 2.22 1.532 2.22 1.532 1.295 2.272 3.395 1.616 4.221 1.235.131-.96.507-1.616.92-1.987-3.22-.376-6.604-1.65-6.604-7.348 0-1.623.565-2.95 1.493-3.99-.15-.376-.647-1.887.141-3.934 0 0 1.218-.4 3.987 1.524a13.598 13.598 0 0 1 3.63-.5c1.233.006 2.473.17 3.631.5 2.768-1.923 3.983-1.524 3.983-1.524.791 2.047.294 3.558.144 3.934.93 1.04 1.491 2.367 1.491 3.99 0 5.711-3.39 6.968-6.62 7.336.52.46.984 1.366.984 2.754 0 1.987-.018 3.59-.018 4.078 0 .398.261.86.997.714 5.757-1.97 9.908-7.538 9.908-14.104C29.5 7.156 23.008.5 15 .5S.5 7.156.5 15.368z"/>
</svg>
