<svg xmlns="http://www.w3.org/2000/svg" width="30" height="30" viewBox="0 0 30 30">
    <path fill="#515151" fill-rule="evenodd" d="M15 30C6.716 30 0 23.284 0 15 0 6.716 6.716 0 15 0c8.284 0 15 6.716 15 15 0 8.284-6.716 15-15 15zm5.175-12.63a6.83 6.83 0 0 0 .387-2.338c0-.844-.13-1.623-.387-2.337a5.528 5.528 0 0 0-1.13-1.883 4.682 4.682 0 0 0-1.773-1.266c-.226-.098-.452-.163-.71-.26v1.039c.097.032.193.065.29.13a4.059 4.059 0 0 1 1.42 1.006c.387.422.71.974.935 1.558.226.585.323 1.267.323 1.981 0 .715-.13 1.364-.323 1.98a5.408 5.408 0 0 1-.935 1.56 4.054 4.054 0 0 1-1.42 1.005 1.139 1.139 0 0 0-.29.13v1.04c.226-.065.484-.163.71-.26.71-.228 1.29-.65 1.774-1.202a5.522 5.522 0 0 0 1.129-1.883zm2.117-5.413c-.406-.957-.967-1.79-1.683-2.469a7.833 7.833 0 0 0-2.494-1.604c-.499-.216-1.028-.34-1.558-.432v.956c.405.093.81.216 1.215.37.842.34 1.559.803 2.182 1.42a6.189 6.189 0 0 1 1.465 2.16c.343.833.53 1.759.53 2.716a7.03 7.03 0 0 1-.53 2.715 6.486 6.486 0 0 1-1.465 2.16 7.365 7.365 0 0 1-2.182 1.42c-.374.154-.78.277-1.215.37v.956a8.964 8.964 0 0 0 1.558-.432 7.833 7.833 0 0 0 2.494-1.604c.716-.68 1.277-1.512 1.683-2.469a7.908 7.908 0 0 0 .623-3.086c0-1.141-.218-2.19-.623-3.147zm-9.03 8.324c-.189-.062-.346-.124-.534-.186a4.794 4.794 0 0 1-1.572-1.114c-.44-.464-.786-1.053-1.037-1.672a5.822 5.822 0 0 1-.377-2.104c0-.774.126-1.455.377-2.105a5.042 5.042 0 0 1 1.037-1.672c.44-.464.974-.835 1.572-1.114.157-.061.345-.124.534-.186v-2.26a5.987 5.987 0 0 0-1.446.434A8.395 8.395 0 0 0 9.365 9.85c-.692.68-1.257 1.455-1.635 2.383-.408.929-.597 1.92-.597 3.003 0 1.083.189 2.073.597 3.002.409.929.943 1.733 1.635 2.384.691.68 1.508 1.175 2.451 1.547.472.186.943.34 1.446.433v-2.321z"/>
</svg>
