<svg xmlns="http://www.w3.org/2000/svg" width="160" height="41" viewBox="0 0 160 41">
    <g fill="#FFF" fill-rule="evenodd">
        <path d="M7.084 36.85c0 1.872-1.206 3.15-3.267 3.15h-2.16v-6.3h2.16c2.061 0 3.267 1.278 3.267 3.15zm-1.278 0c0-1.395-.882-2.079-2.034-2.079h-.864v4.167h.864c1.152 0 2.034-.675 2.034-2.088zm5.166-3.258c1.827 0 3.294 1.359 3.294 3.258s-1.467 3.258-3.294 3.258-3.294-1.359-3.294-3.258 1.467-3.258 3.294-3.258zm0 5.364c1.188 0 1.989-.9 1.989-2.106s-.801-2.106-1.989-2.106c-1.188 0-1.989.9-1.989 2.106s.801 2.106 1.989 2.106zm5.175-2.106c0-1.206.792-2.106 1.98-2.106.837 0 1.476.45 1.71 1.197h1.377c-.369-1.485-1.665-2.349-3.087-2.349-1.854 0-3.285 1.359-3.285 3.258s1.431 3.258 3.285 3.258c1.422 0 2.718-.864 3.087-2.349h-1.377c-.234.747-.873 1.197-1.71 1.197-1.188 0-1.98-.9-1.98-2.106zm9.9-2.376c-.603-.522-1.35-.882-2.079-.882-1.116 0-2.106.666-2.106 1.773 0 .792.531 1.368 1.377 1.764l.441.207c.603.279.99.522.99.954 0 .387-.333.684-.873.684-.477 0-1.071-.27-1.539-.747l-.693.936c.594.576 1.305.945 2.259.945 1.386 0 2.187-.918 2.187-1.863s-.603-1.467-1.602-1.935l-.522-.243c-.504-.234-.684-.459-.684-.747 0-.378.378-.594.792-.594.441 0 .945.27 1.332.648l.72-.9zM117.551 26.117h1.742V1.29h-1.742v24.828zm4.442 0h1.742V1.29h-1.742v24.828zM10.978 22.374a8.3 8.3 0 0 1-3.77-2.333 9.297 9.297 0 0 1-1.852-3.025c-.444-1.16-.666-2.426-.666-3.795 0-1.37.222-2.635.666-3.796A9.296 9.296 0 0 1 7.209 6.4a8.297 8.297 0 0 1 3.77-2.333V0c-.89.166-1.752.416-2.583.75a13.578 13.578 0 0 0-4.372 2.797 12.933 12.933 0 0 0-2.953 4.28C.357 9.482 0 11.28 0 13.221c0 1.94.357 3.738 1.071 5.393a12.935 12.935 0 0 0 2.953 4.28 13.582 13.582 0 0 0 4.372 2.797 13.67 13.67 0 0 0 2.582.75v-4.067M26.233 7.827a12.928 12.928 0 0 0-2.953-4.28A13.582 13.582 0 0 0 18.91.75 13.673 13.673 0 0 0 16.327 0v4.078c.307.092.608.2.903.325A8.23 8.23 0 0 1 20.096 6.4a9.291 9.291 0 0 1 1.853 3.025c.444 1.16.666 2.426.666 3.796 0 1.37-.222 2.635-.666 3.795a9.293 9.293 0 0 1-1.853 3.025 8.233 8.233 0 0 1-2.866 1.998 8.722 8.722 0 0 1-.903.324v4.078c.89-.166 1.75-.416 2.582-.75a13.586 13.586 0 0 0 4.371-2.796 12.93 12.93 0 0 0 2.953-4.281c.715-1.655 1.072-3.453 1.072-5.393s-.357-3.739-1.072-5.394M88.163 25.916h4.056V3.224h-4.056zM106.647 4.909c-1.456-1.553-3.554-2.33-6.295-2.33-1.083 0-2.097.142-3.046.42v3.442a6.994 6.994 0 0 1 2.326-.417c1.68 0 2.955.49 3.829 1.468.873.98 1.31 2.246 1.31 3.8v14.587h4.06V11.038c0-2.533-.728-4.576-2.184-6.13M55.392 9.746c-.582-1.469-1.387-2.735-2.415-3.799a10.813 10.813 0 0 0-3.674-2.482c-1.422-.59-2.972-.886-4.651-.886-.89 0-1.773.118-2.646.355-.296.08-.581.171-.863.269V6.58c.893-.337 1.874-.506 2.944-.506 1.165 0 2.244.21 3.237.633a7.305 7.305 0 0 1 2.544 1.773 8.254 8.254 0 0 1 1.644 2.685c.394 1.03.591 2.152.591 3.368 0 1.216-.197 2.339-.59 3.368a8.254 8.254 0 0 1-1.645 2.685 7.305 7.305 0 0 1-2.544 1.773c-.993.422-2.072.633-3.237.633-1.07 0-2.051-.17-2.944-.506v3.454a10.516 10.516 0 0 0 3.355.547c1.679 0 3.237-.296 4.676-.886a11.035 11.035 0 0 0 3.726-2.482c1.045-1.064 1.867-2.33 2.466-3.8.6-1.468.9-3.064.9-4.786 0-1.722-.292-3.318-.874-4.787M32 34.992h4.055V12.895H32zM74.983 22.114c-.382.17-.778.309-1.187.418v3.633a12.583 12.583 0 0 0 4.142-1.493c1.97-1.13 3.468-2.693 4.496-4.685h-4.83a6.396 6.396 0 0 1-2.62 2.127"/>
        <path d="M82.28 9.443c-.65-1.654-1.507-3.005-2.569-4.052a9.807 9.807 0 0 0-3.7-2.305 13.227 13.227 0 0 0-1.906-.507v3.725c.106.04.21.08.313.126a6.572 6.572 0 0 1 2.107 1.418 6.91 6.91 0 0 1 1.388 2.026c.342.76.548 1.545.616 2.355H64.45c.377-1.857 1.174-3.377 2.39-4.559a5.975 5.975 0 0 1 2.395-1.413V2.582c-.76.148-1.491.366-2.19.656A10.817 10.817 0 0 0 63.37 5.72c-1.027 1.064-1.833 2.33-2.415 3.8-.582 1.468-.873 3.064-.873 4.786 0 1.722.29 3.318.873 4.786.582 1.47 1.396 2.736 2.44 3.8a11.097 11.097 0 0 0 3.7 2.481c.683.284 1.397.498 2.139.645v-3.692c-1-.337-1.859-.89-2.575-1.663-1.267-1.368-2.038-3.082-2.312-5.141h18.91v-.152c0-2.297-.325-4.272-.976-5.927M117.551 26.117h1.742V1.29h-1.742v24.828zm4.442 0h1.742V1.29h-1.742v24.828zM88.163 25.916h4.056V3.224h-4.056zM106.647 4.909c-1.456-1.553-3.554-2.33-6.295-2.33-1.083 0-2.097.142-3.046.42v3.442a6.994 6.994 0 0 1 2.326-.417c1.68 0 2.955.49 3.829 1.468.873.98 1.31 2.246 1.31 3.8v14.587h4.06V11.038c0-2.533-.728-4.576-2.184-6.13M55.392 9.746c-.582-1.469-1.387-2.735-2.415-3.799a10.813 10.813 0 0 0-3.674-2.482c-1.422-.59-2.972-.886-4.651-.886-.89 0-1.773.118-2.646.355-.296.08-.581.171-.863.269V6.58c.893-.337 1.874-.506 2.944-.506 1.165 0 2.244.21 3.237.633a7.305 7.305 0 0 1 2.544 1.773 8.254 8.254 0 0 1 1.644 2.685c.394 1.03.591 2.152.591 3.368 0 1.216-.197 2.339-.59 3.368a8.254 8.254 0 0 1-1.645 2.685 7.305 7.305 0 0 1-2.544 1.773c-.993.422-2.072.633-3.237.633-1.07 0-2.051-.17-2.944-.506v3.454a10.516 10.516 0 0 0 3.355.547c1.679 0 3.237-.296 4.676-.886a11.035 11.035 0 0 0 3.726-2.482c1.045-1.064 1.867-2.33 2.466-3.8.6-1.468.9-3.064.9-4.786 0-1.722-.292-3.318-.874-4.787M32 34.992h4.055V12.895H32z"/>
        <path d="M74.983 22.114c-.382.17-.778.309-1.187.418v3.633a12.583 12.583 0 0 0 4.142-1.493c1.97-1.13 3.468-2.693 4.496-4.685h-4.83a6.396 6.396 0 0 1-2.62 2.127M152.549 20.838a9.922 9.922 0 0 0 1.97-3.213c.466-1.219.703-2.56.703-3.988 0-1.427-.237-2.77-.703-3.988a9.92 9.92 0 0 0-1.97-3.213 8.896 8.896 0 0 0-3.082-2.15 9.303 9.303 0 0 0-1.222-.418v1.796a7.165 7.165 0 0 1 3.016 1.929 8.22 8.22 0 0 1 1.628 2.662c.392 1.024.59 2.162.59 3.382 0 1.22-.198 2.358-.59 3.383a8.216 8.216 0 0 1-1.628 2.661 7.169 7.169 0 0 1-3.016 1.93v1.795c.419-.113.827-.25 1.222-.418a8.899 8.899 0 0 0 3.082-2.15M138.51 6.447a9.92 9.92 0 0 0-1.97 3.212c-.467 1.22-.703 2.561-.703 3.988 0 1.428.236 2.77.702 3.989a9.923 9.923 0 0 0 1.97 3.212 8.963 8.963 0 0 0 4.305 2.578v-1.793a7.23 7.23 0 0 1-3.016-1.94 8.212 8.212 0 0 1-1.629-2.663c-.391-1.025-.59-2.163-.59-3.383 0-1.22.199-2.357.59-3.382a8.216 8.216 0 0 1 1.628-2.662 7.23 7.23 0 0 1 3.017-1.941V3.868a8.96 8.96 0 0 0-4.304 2.578"/>
        <path d="M158.666 8.133a13.474 13.474 0 0 0-3.063-4.437 14.116 14.116 0 0 0-4.522-2.894A14.174 14.174 0 0 0 148.245 0v1.748c.751.15 1.48.364 2.179.644 1.5.602 2.835 1.456 3.967 2.537a11.763 11.763 0 0 1 2.672 3.876c.644 1.493.97 3.142.97 4.901 0 1.76-.326 3.408-.97 4.901a11.763 11.763 0 0 1-2.672 3.876 12.377 12.377 0 0 1-3.967 2.537c-.7.28-1.428.494-2.18.644v1.748a14.19 14.19 0 0 0 2.837-.801 14.116 14.116 0 0 0 4.522-2.895 13.475 13.475 0 0 0 3.063-4.437c.736-1.706 1.11-3.581 1.11-5.573 0-1.991-.374-3.866-1.11-5.573M142.796 25.664c-.751-.15-1.48-.363-2.179-.644a12.374 12.374 0 0 1-3.967-2.537 11.766 11.766 0 0 1-2.672-3.876c-.644-1.493-.97-3.141-.97-4.9 0-1.76.326-3.41.97-4.902a11.767 11.767 0 0 1 2.672-3.876 12.38 12.38 0 0 1 3.967-2.537c.7-.28 1.428-.493 2.18-.644V0c-.98.172-1.93.438-2.837.802a14.114 14.114 0 0 0-4.522 2.894 13.472 13.472 0 0 0-3.063 4.437c-.737 1.707-1.11 3.582-1.11 5.573 0 1.992.373 3.867 1.11 5.573a13.473 13.473 0 0 0 3.063 4.437 14.121 14.121 0 0 0 4.522 2.895c.908.364 1.857.63 2.836.801v-1.748"/>
    </g>
</svg>
