<?xml version="1.0" standalone="yes"?>

<svg version="1.1" viewBox="0.0 0.0 377.06561679790025 467.95538057742783" fill="none" stroke="none" stroke-linecap="square" stroke-miterlimit="10" xmlns="http://www.w3.org/2000/svg" xmlns:xlink="http://www.w3.org/1999/xlink"><clipPath id="p.0"><path d="m0 0l377.0656 0l0 467.95538l-377.0656 0l0 -467.95538z" clip-rule="nonzero"></path></clipPath><g clip-path="url(#p.0)"><path fill="#000000" fill-opacity="0.0" d="m0 0l377.0656 0l0 467.95538l-377.0656 0z" fill-rule="nonzero"></path><path fill="#000000" fill-opacity="0.0" d="m187.37114 200.07349l0 0c-6.3316956 0 -11.464569 -0.42771912 -11.464569 -0.9553375l0 -171.31766l0 0c0 -0.2533741 1.2078705 -0.4963684 3.357895 -0.6755295c2.1500244 -0.17916107 5.066086 -0.27981377 8.106674 -0.27981377z" fill-rule="nonzero"></path><path fill="#000000" fill-opacity="0.0" d="m187.37114 200.07349l0 0c-6.3316956 0 -11.464569 -0.42771912 -11.464569 -0.9553375l0 -171.31766l0 0c0 -0.2533741 1.2078705 -0.4963684 3.357895 -0.6755295c2.1500244 -0.17916107 5.066086 -0.27981377 8.106674 -0.27981377" fill-rule="nonzero"></path><path stroke="#666666" stroke-width="3.0" stroke-linejoin="round" stroke-linecap="butt" d="m187.37114 200.07349l0 0c-6.3316956 0 -11.464569 -0.42771912 -11.464569 -0.9553375l0 -171.31766l0 0c0 -0.2533741 1.2078705 -0.4963684 3.357895 -0.6755295c2.1500244 -0.17916107 5.066086 -0.27981377 8.106674 -0.27981377" fill-rule="nonzero"></path><path fill="#000000" fill-opacity="0.0" d="m187.37114 411.3281l0 0c-6.3316956 0 -11.464569 -0.42770386 -11.464569 -0.95532227l0 -178.53027l0 0c0 -0.2533722 1.2078705 -0.4963684 3.357895 -0.6755371c2.1500244 -0.17915344 5.066086 -0.27980042 8.106674 -0.27980042z" fill-rule="nonzero"></path><path fill="#000000" fill-opacity="0.0" d="m187.37114 411.3281l0 0c-6.3316956 0 -11.464569 -0.42770386 -11.464569 -0.95532227l0 -178.53027l0 0c0 -0.2533722 1.2078705 -0.4963684 3.357895 -0.6755371c2.1500244 -0.17915344 5.066086 -0.27980042 8.106674 -0.27980042" fill-rule="nonzero"></path><path stroke="#666666" stroke-width="3.0" stroke-linejoin="round" stroke-linecap="butt" d="m187.37114 411.3281l0 0c-6.3316956 0 -11.464569 -0.42770386 -11.464569 -0.95532227l0 -178.53027l0 0c0 -0.2533722 1.2078705 -0.4963684 3.357895 -0.6755371c2.1500244 -0.17915344 5.066086 -0.27980042 8.106674 -0.27980042" fill-rule="nonzero"></path><path fill="#000000" fill-opacity="0.0" d="m77.66773 19.95013l98.23621 0l0 53.795277l-98.23621 0z" fill-rule="nonzero"></path><path fill="#000000" d="m120.5602 58.56777l-5.03125 0l-2.0 -5.203125l-9.15625 0l-1.890625 5.203125l-4.90625 0l8.921875 -22.90625l4.890625 0l9.171875 22.90625zm-8.515625 -9.0625l-3.15625 -8.5l-3.09375 8.5l6.25 0zm31.625008 9.0625l-5.03125 0l-2.0 -5.203125l-9.156258 0l-1.890625 5.203125l-4.90625 0l8.921883 -22.90625l4.890625 0l9.171875 22.90625zm-8.515625 -9.0625l-3.15625 -8.5l-3.09375 8.5l6.25 0zm31.625 9.0625l-5.03125 0l-2.0 -5.203125l-9.15625 0l-1.890625 5.203125l-4.90625 0l8.921875 -22.90625l4.890625 0l9.171875 22.90625zm-8.515625 -9.0625l-3.15625 -8.5l-3.09375 8.5l6.25 0z" fill-rule="nonzero"></path><path fill="#000000" fill-opacity="0.0" d="m77.66773 230.88715l98.23621 0l0 53.795258l-98.23621 0z" fill-rule="nonzero"></path><path fill="#000000" d="m105.21645 246.59853l8.453125 0q2.859375 0 4.359375 0.4375q2.015625 0.59375 3.453125 2.109375q1.4375 1.515625 2.1875 3.71875q0.75 2.1875 0.75 5.4062653q0 2.828125 -0.703125 4.875q-0.859375 2.5 -2.453125 4.046875q-1.203125 1.171875 -3.25 1.828125q-1.53125 0.484375 -4.09375 0.484375l-8.703125 0l0 -22.906265zm4.625 3.875l0 15.17189l3.453125 0q1.9375 0 2.796875 -0.21875q1.125 -0.28125 1.859375 -0.953125q0.75 -0.671875 1.21875 -2.203125q0.46875 -1.546875 0.46875 -4.203125q0 -2.6562653 -0.46875 -4.0781403q-0.46875 -1.421875 -1.3125 -2.21875q-0.84375 -0.796875 -2.140625 -1.078125q-0.96875 -0.21875 -3.796875 -0.21875l-2.078125 0zm18.500008 19.031265l0 -22.906265l16.984375 0l0 3.875l-12.359375 0l0 5.078125l11.5 0l0 3.8593903l-11.5 0l0 6.234375l12.796875 0l0 3.859375l-17.421875 0zm21.375 0l0 -22.906265l15.703125 0l0 3.875l-11.078125 0l0 5.421875l9.5625 0l0 3.8750153l-9.5625 0l0 9.734375l-4.625 0z" fill-rule="nonzero"></path><path fill="#000000" fill-opacity="0.0" d="m77.66773 434.4357l0 0c-6.331703 0 -11.464569 -0.42773438 -11.464569 -0.9553528l0 -405.67987l0 0c0 -0.2533741 1.2078705 -0.4963684 3.357895 -0.6755295c2.1500244 -0.17916107 5.066086 -0.27981377 8.106674 -0.27981377z" fill-rule="nonzero"></path><path fill="#000000" fill-opacity="0.0" d="m77.66773 434.4357l0 0c-6.331703 0 -11.464569 -0.42773438 -11.464569 -0.9553528l0 -405.67987l0 0c0 -0.2533741 1.2078705 -0.4963684 3.357895 -0.6755295c2.1500244 -0.17916107 5.066086 -0.27981377 8.106674 -0.27981377" fill-rule="nonzero"></path><path stroke="#666666" stroke-width="3.0" stroke-linejoin="round" stroke-linecap="butt" d="m77.66773 434.4357l0 0c-6.331703 0 -11.464569 -0.42773438 -11.464569 -0.9553528l0 -405.67987l0 0c0 -0.2533741 1.2078705 -0.4963684 3.357895 -0.6755295c2.1500244 -0.17916107 5.066086 -0.27981377 8.106674 -0.27981377" fill-rule="nonzero"></path><path fill="#000000" fill-opacity="0.0" d="m13.662483 26.845144l42.866142 0l0 53.795273l-42.866142 0z" fill-rule="nonzero"></path><path fill="#000000" d="m34.114563 71.41653l8.515625 -35.54687l4.953125 0l-8.609375 35.54687l-4.859375 0z" fill-rule="nonzero"></path><path fill="#000000" fill-opacity="0.0" d="m187.38164 164.87138l52.62993 0l0 37.039383l-52.62993 0z" fill-rule="nonzero"></path><path fill="#000000" d="m207.6404 190.31108l0 -1.90625l1.90625 0l0 1.90625l-1.90625 0zm5.183304 0l0 -1.90625l1.90625 0l0 1.90625l-1.90625 0zm5.183304 0l0 -1.90625l1.90625 0l0 1.90625l-1.90625 0z" fill-rule="nonzero"></path><path fill="#000000" fill-opacity="0.0" d="m187.38164 367.77692l52.62993 0l0 37.039368l-52.62993 0z" fill-rule="nonzero"></path><path fill="#000000" d="m207.6404 393.21658l0 -1.90625l1.90625 0l0 1.90625l-1.90625 0zm5.183304 0l0 -1.90625l1.90625 0l0 1.90625l-1.90625 0zm5.183304 0l0 -1.90625l1.90625 0l0 1.90625l-1.90625 0z" fill-rule="nonzero"></path><path fill="#ffffff" d="m193.46301 42.53806l0 0c0 4.2443275 34.766678 7.6850395 77.653534 7.6850395c42.88687 0 77.653534 -3.440712 77.653534 -7.6850395l0 46.110233c0 4.2443314 -34.766663 7.6850433 -77.653534 7.6850433c-42.886856 0 -77.653534 -3.440712 -77.653534 -7.6850433z" fill-rule="nonzero"></path><path fill="#ffffff" d="m193.46301 42.53806l0 0c0 -4.2443314 34.766678 -7.6850395 77.653534 -7.6850395c42.88687 0 77.653534 3.4407082 77.653534 7.6850395l0 0c0 4.2443275 -34.766663 7.6850395 -77.653534 7.6850395c-42.886856 0 -77.653534 -3.440712 -77.653534 -7.6850395z" fill-rule="nonzero"></path><path fill="#000000" fill-opacity="0.0" d="m348.77008 42.53806l0 0c0 4.2443275 -34.766663 7.6850395 -77.653534 7.6850395c-42.886856 0 -77.653534 -3.440712 -77.653534 -7.6850395l0 0c0 -4.2443314 34.766678 -7.6850395 77.653534 -7.6850395c42.88687 0 77.653534 3.4407082 77.653534 7.6850395l0 46.110233c0 4.2443314 -34.766663 7.6850433 -77.653534 7.6850433c-42.886856 0 -77.653534 -3.440712 -77.653534 -7.6850433l0 -46.110233" fill-rule="nonzero"></path><path stroke="#cc0000" stroke-width="4.0" stroke-linejoin="round" stroke-linecap="butt" d="m348.77008 42.53806l0 0c0 4.2443275 -34.766663 7.6850395 -77.653534 7.6850395c-42.886856 0 -77.653534 -3.440712 -77.653534 -7.6850395l0 0c0 -4.2443314 34.766678 -7.6850395 77.653534 -7.6850395c42.88687 0 77.653534 3.4407082 77.653534 7.6850395l0 46.110233c0 4.2443314 -34.766663 7.6850433 -77.653534 7.6850433c-42.886856 0 -77.653534 -3.440712 -77.653534 -7.6850433l0 -46.110233" fill-rule="nonzero"></path><path fill="#000000" d="m202.43176 76.3557l5.234375 -13.593754l1.9375 0l5.5625 13.593754l-2.046875 0l-1.59375 -4.125l-5.6875 0l-1.484375 4.125l-1.921875 0zm3.921875 -5.578125l4.609375 0l-1.40625 -3.78125q-0.65625 -1.703125 -0.96875 -2.8125q-0.265625 1.3125 -0.734375 2.59375l-1.5 4.0zm8.521698 5.578125l5.234375 -13.593754l1.9375 0l5.5625 13.593754l-2.046875 0l-1.59375 -4.125l-5.6875 0l-1.484375 4.125l-1.921875 0zm3.921875 -5.578125l4.609375 0l-1.40625 -3.78125q-0.65625 -1.703125 -0.96875 -2.8125q-0.265625 1.3125 -0.734375 2.59375l-1.5 4.0zm8.521698 5.578125l5.234375 -13.593754l1.9375 0l5.5625 13.593754l-2.046875 0l-1.59375 -4.125l-5.6875 0l-1.484375 4.125l-1.921875 0zm3.921875 -5.578125l4.609375 0l-1.40625 -3.78125q-0.65625 -1.703125 -0.96875 -2.8125q-0.265625 1.3125 -0.734375 2.59375l-1.5 4.0zm15.631073 5.578125l-1.671875 0l0 -10.640625q-0.59375 0.578125 -1.578125 1.15625q-0.984375 0.5625 -1.765625 0.859375l0 -1.625q1.40625 -0.65625 2.453125 -1.59375q1.046875 -0.9375038 1.484375 -1.8125038l1.078125 0l0 13.656254zm12.860077 -1.609375l0 1.609375l-8.98436 0q-0.015625 -0.609375 0.1875 -1.15625q0.34375 -0.921875 1.09375 -1.8125q0.765625 -0.890625 2.1875 -2.0625q2.2187347 -1.8125 2.9999847 -2.875q0.78125 -1.0625 0.78125 -2.015625q0 -0.984375 -0.71875 -1.671875q-0.703125 -0.6875 -1.8437347 -0.6875q-1.203125 0 -1.9375 0.734375q-0.71875 0.71875 -0.71875 2.0l-1.71875 -0.171875q0.171875 -1.921875 1.328125 -2.9218788q1.15625 -1.015625 3.09375 -1.015625q1.9531097 0 3.0937347 1.09375q1.140625 1.0781288 1.140625 2.6875038q0 0.8125 -0.34375 1.609375q-0.328125 0.78125 -1.109375 1.65625q-0.765625 0.859375 -2.5624847 2.390625q-1.5 1.265625 -1.9375 1.71875q-0.421875 0.4375 -0.703125 0.890625l6.6718597 0zm1.6101074 -1.984375l1.671875 -0.21875q0.28125 1.421875 0.96875 2.046875q0.703125 0.625 1.6875 0.625q1.1875 0 2.0 -0.8125q0.8125 -0.828125 0.8125 -2.03125q0 -1.140625 -0.765625 -1.890625q-0.75 -0.75 -1.90625 -0.75q-0.46875 0 -1.171875 0.1875l0.1875 -1.46875q0.15625 0.015625 0.265625 0.015625q1.0625 0 1.90625 -0.546875q0.859375 -0.5625 0.859375 -1.71875q0 -0.921875 -0.625 -1.515625q-0.609375 -0.609375 -1.59375 -0.609375q-0.96875 0 -1.625 0.609375q-0.640625 0.609375 -0.828125 1.84375l-1.671875 -0.296875q0.296875 -1.6875 1.375 -2.6093788q1.09375 -0.921875 2.71875 -0.921875q1.109375 0 2.046875 0.484375q0.9375 0.46875 1.421875 1.2968788q0.5 0.828125 0.5 1.75q0 0.890625 -0.46875 1.609375q-0.46875 0.71875 -1.40625 1.15625q1.21875 0.265625 1.875 1.15625q0.671875 0.875 0.671875 2.1875q0 1.78125 -1.296875 3.015625q-1.296875 1.234375 -3.28125 1.234375q-1.796875 0 -2.984375 -1.0625q-1.171875 -1.0625 -1.34375 -2.765625zm15.719452 3.59375l0 -3.25l-5.90625 0l0 -1.53125l6.21875 -8.812504l1.359375 0l0 8.812504l1.84375 0l0 1.53125l-1.84375 0l0 3.25l-1.671875 0zm0 -4.78125l0 -6.140625l-4.25 6.140625l4.25 0zm5.0163574 1.21875l1.765625 -0.15625q0.1875 1.28125 0.890625 1.9375q0.71875 0.640625 1.71875 0.640625q1.203125 0 2.03125 -0.90625q0.84375 -0.90625 0.84375 -2.421875q0 -1.421875 -0.8125 -2.25q-0.796875 -0.828125 -2.09375 -0.828125q-0.796875 0 -1.453125 0.375q-0.640625 0.359375 -1.015625 0.953125l-1.578125 -0.203125l1.328125 -7.000004l6.765625 0l0 1.6093788l-5.4375 0l-0.734375 3.640625q1.234375 -0.84375 2.578125 -0.84375q1.78125 0 3.0 1.234375q1.234375 1.234375 1.234375 3.171875q0 1.84375 -1.078125 3.1875q-1.3125 1.65625 -3.578125 1.65625q-1.859375 0 -3.03125 -1.03125q-1.171875 -1.046875 -1.34375 -2.765625zm19.047577 -6.703125l-1.65625 0.125q-0.21875 -0.984375 -0.640625 -1.421875q-0.671875 -0.71875 -1.65625 -0.71875q-0.8125 0 -1.40625 0.4375q-0.796875 0.578125 -1.25 1.6875q-0.453125 1.09375 -0.46875 3.140625q0.609375 -0.921875 1.46875 -1.359375q0.875 -0.453125 1.828125 -0.453125q1.671875 0 2.84375 1.234375q1.171875 1.234375 1.171875 3.171875q0 1.28125 -0.546875 2.390625q-0.546875 1.09375 -1.515625 1.6875q-0.96875 0.578125 -2.1875 0.578125q-2.09375 0 -3.40625 -1.53125q-1.3125 -1.546875 -1.3125 -5.0625q0 -3.953125 1.453125 -5.734375q1.265625 -1.5625038 3.421875 -1.5625038q1.609375 0 2.625 0.90625q1.03125 0.8906288 1.234375 2.4843788zm-6.8125 5.859375q0 0.859375 0.359375 1.65625q0.375 0.78125 1.03125 1.203125q0.65625 0.40625 1.375 0.40625q1.0625 0 1.8125 -0.84375q0.765625 -0.859375 0.765625 -2.328125q0 -1.40625 -0.75 -2.21875q-0.75 -0.8125 -1.890625 -0.8125q-1.125 0 -1.921875 0.8125q-0.78125 0.8125 -0.78125 2.125zm9.453857 4.40625l0 -1.90625l1.90625 0l0 1.90625l-1.90625 0zm5.1832886 0l0 -1.90625l1.90625 0l0 1.90625l-1.90625 0zm5.183319 0l0 -1.90625l1.90625 0l0 1.90625l-1.90625 0z" fill-rule="nonzero"></path><path fill="#ffffff" d="m193.46301 114.538055l0 0c0 4.2443314 34.766678 7.6850433 77.653534 7.6850433c42.88687 0 77.653534 -3.440712 77.653534 -7.6850433l0 46.110245c0 4.2443237 -34.766663 7.685028 -77.653534 7.685028c-42.886856 0 -77.653534 -3.4407043 -77.653534 -7.685028z" fill-rule="nonzero"></path><path fill="#ffffff" d="m193.46301 114.538055l0 0c0 -4.2443314 34.766678 -7.6850357 77.653534 -7.6850357c42.88687 0 77.653534 3.4407043 77.653534 7.6850357l0 0c0 4.2443314 -34.766663 7.6850433 -77.653534 7.6850433c-42.886856 0 -77.653534 -3.440712 -77.653534 -7.6850433z" fill-rule="nonzero"></path><path fill="#000000" fill-opacity="0.0" d="m348.77008 114.538055l0 0c0 4.2443314 -34.766663 7.6850433 -77.653534 7.6850433c-42.886856 0 -77.653534 -3.440712 -77.653534 -7.6850433l0 0c0 -4.2443314 34.766678 -7.6850357 77.653534 -7.6850357c42.88687 0 77.653534 3.4407043 77.653534 7.6850357l0 46.110245c0 4.2443237 -34.766663 7.685028 -77.653534 7.685028c-42.886856 0 -77.653534 -3.4407043 -77.653534 -7.685028l0 -46.110245" fill-rule="nonzero"></path><path stroke="#cc0000" stroke-width="4.0" stroke-linejoin="round" stroke-linecap="butt" d="m348.77008 114.538055l0 0c0 4.2443314 -34.766663 7.6850433 -77.653534 7.6850433c-42.886856 0 -77.653534 -3.440712 -77.653534 -7.6850433l0 0c0 -4.2443314 34.766678 -7.6850357 77.653534 -7.6850357c42.88687 0 77.653534 3.4407043 77.653534 7.6850357l0 46.110245c0 4.2443237 -34.766663 7.685028 -77.653534 7.685028c-42.886856 0 -77.653534 -3.4407043 -77.653534 -7.685028l0 -46.110245" fill-rule="nonzero"></path><path fill="#000000" d="m202.43176 148.3557l5.234375 -13.59375l1.9375 0l5.5625 13.59375l-2.046875 0l-1.59375 -4.125l-5.6875 0l-1.484375 4.125l-1.921875 0zm3.921875 -5.578125l4.609375 0l-1.40625 -3.78125q-0.65625 -1.703125 -0.96875 -2.8125q-0.265625 1.3125 -0.734375 2.59375l-1.5 4.0zm8.521698 5.578125l5.234375 -13.59375l1.9375 0l5.5625 13.59375l-2.046875 0l-1.59375 -4.125l-5.6875 0l-1.484375 4.125l-1.921875 0zm3.921875 -5.578125l4.609375 0l-1.40625 -3.78125q-0.65625 -1.703125 -0.96875 -2.8125q-0.265625 1.3125 -0.734375 2.59375l-1.5 4.0zm8.521698 5.578125l5.234375 -13.59375l1.9375 0l5.5625 13.59375l-2.046875 0l-1.59375 -4.125l-5.6875 0l-1.484375 4.125l-1.921875 0zm3.921875 -5.578125l4.609375 0l-1.40625 -3.78125q-0.65625 -1.703125 -0.96875 -2.8125q-0.265625 1.3125 -0.734375 2.59375l-1.5 4.0zm15.631073 5.578125l-1.671875 0l0 -10.640625q-0.59375 0.578125 -1.578125 1.15625q-0.984375 0.5625 -1.765625 0.859375l0 -1.625q1.40625 -0.65625 2.453125 -1.59375q1.046875 -0.9375 1.484375 -1.8125l1.078125 0l0 13.65625zm3.2663422 0l5.234375 -13.59375l1.9374847 0l5.5625 13.59375l-2.046875 0l-1.59375 -4.125l-5.6874847 0l-1.484375 4.125l-1.921875 0zm3.921875 -5.578125l4.6093597 0l-1.40625 -3.78125q-0.65625 -1.703125 -0.96875 -2.8125q-0.265625 1.3125 -0.73435974 2.59375l-1.5 4.0zm18.115433 3.96875l0 1.609375l-8.984375 0q-0.015625 -0.609375 0.1875 -1.15625q0.34375 -0.921875 1.09375 -1.8125q0.765625 -0.890625 2.1875 -2.0625q2.21875 -1.8125 3.0 -2.875q0.78125 -1.0625 0.78125 -2.015625q0 -0.984375 -0.71875 -1.671875q-0.703125 -0.6875 -1.84375 -0.6875q-1.203125 0 -1.9375 0.734375q-0.71875 0.71875 -0.71875 2.0l-1.71875 -0.171875q0.171875 -1.921875 1.328125 -2.921875q1.15625 -1.015625 3.09375 -1.015625q1.953125 0 3.09375 1.09375q1.140625 1.078125 1.140625 2.6875q0 0.8125 -0.34375 1.609375q-0.328125 0.78125 -1.109375 1.65625q-0.765625 0.859375 -2.5625 2.390625q-1.5 1.265625 -1.9375 1.71875q-0.421875 0.4375 -0.703125 0.890625l6.671875 0zm2.2038574 1.609375l0 -13.59375l5.109375 0q1.546875 0 2.484375 0.40625q0.953125 0.40625 1.484375 1.265625q0.53125 0.859375 0.53125 1.796875q0 0.875 -0.46875 1.65625q-0.46875 0.765625 -1.4375 1.234375q1.234375 0.359375 1.890625 1.234375q0.671875 0.875 0.671875 2.0625q0 0.953125 -0.40625 1.78125q-0.390625 0.8125 -0.984375 1.265625q-0.59375 0.4375 -1.5 0.671875q-0.890625 0.21875 -2.1875 0.21875l-5.1875 0zm1.796875 -7.890625l2.9375 0q1.203125 0 1.71875 -0.15625q0.6875 -0.203125 1.03125 -0.671875q0.359375 -0.46875 0.359375 -1.1875q0 -0.671875 -0.328125 -1.1875q-0.328125 -0.515625 -0.9375 -0.703125q-0.59375 -0.203125 -2.0625 -0.203125l-2.71875 0l0 4.109375zm0 6.28125l3.390625 0q0.875 0 1.21875 -0.0625q0.625 -0.109375 1.046875 -0.359375q0.421875 -0.265625 0.6875 -0.765625q0.265625 -0.5 0.265625 -1.140625q0 -0.765625 -0.390625 -1.328125q-0.390625 -0.5625 -1.078125 -0.78125q-0.6875 -0.234375 -1.984375 -0.234375l-3.15625 0l0 4.671875zm10.052948 -1.984375l1.671875 -0.21875q0.28125 1.421875 0.96875 2.046875q0.703125 0.625 1.6875 0.625q1.1875 0 2.0 -0.8125q0.8125 -0.828125 0.8125 -2.03125q0 -1.140625 -0.765625 -1.890625q-0.75 -0.75 -1.90625 -0.75q-0.46875 0 -1.171875 0.1875l0.1875 -1.46875q0.15625 0.015625 0.265625 0.015625q1.0625 0 1.90625 -0.546875q0.859375 -0.5625 0.859375 -1.71875q0 -0.921875 -0.625 -1.515625q-0.609375 -0.609375 -1.59375 -0.609375q-0.96875 0 -1.625 0.609375q-0.640625 0.609375 -0.828125 1.84375l-1.671875 -0.296875q0.296875 -1.6875 1.375 -2.609375q1.09375 -0.921875 2.71875 -0.921875q1.109375 0 2.046875 0.484375q0.9375 0.46875 1.421875 1.296875q0.5 0.828125 0.5 1.75q0 0.890625 -0.46875 1.609375q-0.46875 0.71875 -1.40625 1.15625q1.21875 0.265625 1.875 1.15625q0.671875 0.875 0.671875 2.1875q0 1.78125 -1.296875 3.015625q-1.296875 1.234375 -3.28125 1.234375q-1.796875 0 -2.984375 -1.0625q-1.171875 -1.0625 -1.34375 -2.765625zm11.297577 3.59375l0 -1.90625l1.90625 0l0 1.90625l-1.90625 0zm5.183319 0l0 -1.90625l1.90625 0l0 1.90625l-1.90625 0zm5.1832886 0l0 -1.90625l1.90625 0l0 1.90625l-1.90625 0z" fill-rule="nonzero"></path><path fill="#ffffff" d="m193.46301 250.65092l0 0c0 4.2443237 34.766678 7.6850433 77.653534 7.6850433c42.88687 0 77.653534 -3.4407196 77.653534 -7.6850433l0 46.110245c0 4.2443237 -34.766663 7.685028 -77.653534 7.685028c-42.886856 0 -77.653534 -3.4407043 -77.653534 -7.685028z" fill-rule="nonzero"></path><path fill="#ffffff" d="m193.46301 250.65092l0 0c0 -4.244339 34.766678 -7.6850433 77.653534 -7.6850433c42.88687 0 77.653534 3.4407043 77.653534 7.6850433l0 0c0 4.2443237 -34.766663 7.6850433 -77.653534 7.6850433c-42.886856 0 -77.653534 -3.4407196 -77.653534 -7.6850433z" fill-rule="nonzero"></path><path fill="#000000" fill-opacity="0.0" d="m348.77008 250.65092l0 0c0 4.2443237 -34.766663 7.6850433 -77.653534 7.6850433c-42.886856 0 -77.653534 -3.4407196 -77.653534 -7.6850433l0 0c0 -4.244339 34.766678 -7.6850433 77.653534 -7.6850433c42.88687 0 77.653534 3.4407043 77.653534 7.6850433l0 46.110245c0 4.2443237 -34.766663 7.685028 -77.653534 7.685028c-42.886856 0 -77.653534 -3.4407043 -77.653534 -7.685028l0 -46.110245" fill-rule="nonzero"></path><path stroke="#cc0000" stroke-width="4.0" stroke-linejoin="round" stroke-linecap="butt" d="m348.77008 250.65092l0 0c0 4.2443237 -34.766663 7.6850433 -77.653534 7.6850433c-42.886856 0 -77.653534 -3.4407196 -77.653534 -7.6850433l0 0c0 -4.244339 34.766678 -7.6850433 77.653534 -7.6850433c42.88687 0 77.653534 3.4407043 77.653534 7.6850433l0 46.110245c0 4.2443237 -34.766663 7.685028 -77.653534 7.685028c-42.886856 0 -77.653534 -3.4407043 -77.653534 -7.685028l0 -46.110245" fill-rule="nonzero"></path><path fill="#000000" d="m203.93176 284.46857l0 -13.59375l4.6875 0q1.578125 0 2.421875 0.1875q1.15625 0.265625 1.984375 0.96875q1.078125 0.921875 1.609375 2.34375q0.53125 1.40625 0.53125 3.21875q0 1.546875 -0.359375 2.75q-0.359375 1.1875 -0.921875 1.984375q-0.5625 0.78125 -1.234375 1.234375q-0.671875 0.4375 -1.625 0.671875q-0.953125 0.234375 -2.1875 0.234375l-4.90625 0zm1.796875 -1.609375l2.90625 0q1.34375 0 2.109375 -0.25q0.765625 -0.25 1.21875 -0.703125q0.640625 -0.640625 1.0 -1.71875q0.359375 -1.078125 0.359375 -2.625q0 -2.125 -0.703125 -3.265625q-0.703125 -1.15625 -1.703125 -1.546875q-0.71875 -0.28125 -2.328125 -0.28125l-2.859375 0l0 10.390625zm11.707321 1.609375l0 -13.59375l9.84375 0l0 1.59375l-8.046875 0l0 4.171875l7.53125 0l0 1.59375l-7.53125 0l0 4.625l8.359375 0l0 1.609375l-10.15625 0zm12.506073 0l0 -13.59375l9.171875 0l0 1.59375l-7.375 0l0 4.21875l6.375 0l0 1.609375l-6.375 0l0 6.171875l-1.796875 0zm16.911606 0l-1.671875 0l0 -10.640625q-0.59375 0.578125 -1.578125 1.15625q-0.984375 0.5625 -1.765625 0.859375l0 -1.625q1.40625 -0.65625 2.453125 -1.59375q1.046875 -0.9375 1.484375 -1.8125l1.078125 0l0 13.65625zm12.860077 -1.609375l0 1.609375l-8.98436 0q-0.015625 -0.609375 0.1875 -1.15625q0.34375 -0.921875 1.09375 -1.8125q0.765625 -0.890625 2.1875 -2.0625q2.2187347 -1.8125 2.9999847 -2.875q0.78125 -1.0625 0.78125 -2.015625q0 -0.984375 -0.71875 -1.671875q-0.703125 -0.6875 -1.8437347 -0.6875q-1.203125 0 -1.9375 0.734375q-0.71875 0.71875 -0.71875 2.0l-1.71875 -0.171875q0.171875 -1.921875 1.328125 -2.921875q1.15625 -1.015625 3.09375 -1.015625q1.9531097 0 3.0937347 1.09375q1.140625 1.078125 1.140625 2.6875q0 0.8125 -0.34375 1.609375q-0.328125 0.78125 -1.109375 1.65625q-0.765625 0.859375 -2.5624847 2.390625q-1.5 1.265625 -1.9375 1.71875q-0.421875 0.4375 -0.703125 0.890625l6.6718597 0zm1.6101074 -1.984375l1.671875 -0.21875q0.28125 1.421875 0.96875 2.046875q0.703125 0.625 1.6875 0.625q1.1875 0 2.0 -0.8125q0.8125 -0.828125 0.8125 -2.03125q0 -1.140625 -0.765625 -1.890625q-0.75 -0.75 -1.90625 -0.75q-0.46875 0 -1.171875 0.1875l0.1875 -1.46875q0.15625 0.015625 0.265625 0.015625q1.0625 0 1.90625 -0.546875q0.859375 -0.5625 0.859375 -1.71875q0 -0.921875 -0.625 -1.515625q-0.609375 -0.609375 -1.59375 -0.609375q-0.96875 0 -1.625 0.609375q-0.640625 0.609375 -0.828125 1.84375l-1.671875 -0.296875q0.296875 -1.6875 1.375 -2.609375q1.09375 -0.921875 2.71875 -0.921875q1.109375 0 2.046875 0.484375q0.9375 0.46875 1.421875 1.296875q0.5 0.828125 0.5 1.75q0 0.890625 -0.46875 1.609375q-0.46875 0.71875 -1.40625 1.15625q1.21875 0.265625 1.875 1.15625q0.671875 0.875 0.671875 2.1875q0 1.78125 -1.296875 3.015625q-1.296875 1.234375 -3.28125 1.234375q-1.796875 0 -2.984375 -1.0625q-1.171875 -1.0625 -1.34375 -2.765625zm15.719452 3.59375l0 -3.25l-5.90625 0l0 -1.53125l6.21875 -8.8125l1.359375 0l0 8.8125l1.84375 0l0 1.53125l-1.84375 0l0 3.25l-1.671875 0zm0 -4.78125l0 -6.140625l-4.25 6.140625l4.25 0zm5.0163574 1.21875l1.765625 -0.15625q0.1875 1.28125 0.890625 1.9375q0.71875 0.640625 1.71875 0.640625q1.203125 0 2.03125 -0.90625q0.84375 -0.90625 0.84375 -2.421875q0 -1.421875 -0.8125 -2.25q-0.796875 -0.828125 -2.09375 -0.828125q-0.796875 0 -1.453125 0.375q-0.640625 0.359375 -1.015625 0.953125l-1.578125 -0.203125l1.328125 -7.0l6.765625 0l0 1.609375l-5.4375 0l-0.734375 3.640625q1.234375 -0.84375 2.578125 -0.84375q1.78125 0 3.0 1.234375q1.234375 1.234375 1.234375 3.171875q0 1.84375 -1.078125 3.1875q-1.3125 1.65625 -3.578125 1.65625q-1.859375 0 -3.03125 -1.03125q-1.171875 -1.046875 -1.34375 -2.765625zm19.047577 -6.703125l-1.65625 0.125q-0.21875 -0.984375 -0.640625 -1.421875q-0.671875 -0.71875 -1.65625 -0.71875q-0.8125 0 -1.40625 0.4375q-0.796875 0.578125 -1.25 1.6875q-0.453125 1.09375 -0.46875 3.140625q0.609375 -0.921875 1.46875 -1.359375q0.875 -0.453125 1.828125 -0.453125q1.671875 0 2.84375 1.234375q1.171875 1.234375 1.171875 3.171875q0 1.28125 -0.546875 2.390625q-0.546875 1.09375 -1.515625 1.6875q-0.96875 0.578125 -2.1875 0.578125q-2.09375 0 -3.40625 -1.53125q-1.3125 -1.546875 -1.3125 -5.0625q0 -3.953125 1.453125 -5.734375q1.265625 -1.5625 3.421875 -1.5625q1.609375 0 2.625 0.90625q1.03125 0.890625 1.234375 2.484375zm-6.8125 5.859375q0 0.859375 0.359375 1.65625q0.375 0.78125 1.03125 1.203125q0.65625 0.40625 1.375 0.40625q1.0625 0 1.8125 -0.84375q0.765625 -0.859375 0.765625 -2.328125q0 -1.40625 -0.75 -2.21875q-0.75 -0.8125 -1.890625 -0.8125q-1.125 0 -1.921875 0.8125q-0.78125 0.8125 -0.78125 2.125zm9.453857 4.40625l0 -1.90625l1.90625 0l0 1.90625l-1.90625 0zm5.1832886 0l0 -1.90625l1.90625 0l0 1.90625l-1.90625 0zm5.183319 0l0 -1.90625l1.90625 0l0 1.90625l-1.90625 0z" fill-rule="nonzero"></path><path fill="#ffffff" d="m193.46301 322.6509l0 0c0 4.2443542 34.766678 7.6850586 77.653534 7.6850586c42.88687 0 77.653534 -3.4407043 77.653534 -7.6850586l0 46.11026c0 4.2443237 -34.766663 7.685028 -77.653534 7.685028c-42.886856 0 -77.653534 -3.4407043 -77.653534 -7.685028z" fill-rule="nonzero"></path><path fill="#ffffff" d="m193.46301 322.6509l0 0c0 -4.2443237 34.766678 -7.685028 77.653534 -7.685028c42.88687 0 77.653534 3.4407043 77.653534 7.685028l0 0c0 4.2443542 -34.766663 7.6850586 -77.653534 7.6850586c-42.886856 0 -77.653534 -3.4407043 -77.653534 -7.6850586z" fill-rule="nonzero"></path><path fill="#000000" fill-opacity="0.0" d="m348.77008 322.6509l0 0c0 4.2443542 -34.766663 7.6850586 -77.653534 7.6850586c-42.886856 0 -77.653534 -3.4407043 -77.653534 -7.6850586l0 0c0 -4.2443237 34.766678 -7.685028 77.653534 -7.685028c42.88687 0 77.653534 3.4407043 77.653534 7.685028l0 46.11026c0 4.2443237 -34.766663 7.685028 -77.653534 7.685028c-42.886856 0 -77.653534 -3.4407043 -77.653534 -7.685028l0 -46.11026" fill-rule="nonzero"></path><path stroke="#cc0000" stroke-width="4.0" stroke-linejoin="round" stroke-linecap="butt" d="m348.77008 322.6509l0 0c0 4.2443542 -34.766663 7.6850586 -77.653534 7.6850586c-42.886856 0 -77.653534 -3.4407043 -77.653534 -7.6850586l0 0c0 -4.2443237 34.766678 -7.685028 77.653534 -7.685028c42.88687 0 77.653534 3.4407043 77.653534 7.685028l0 46.11026c0 4.2443237 -34.766663 7.685028 -77.653534 7.685028c-42.886856 0 -77.653534 -3.4407043 -77.653534 -7.685028l0 -46.11026" fill-rule="nonzero"></path><path fill="#000000" d="m203.93176 356.46857l0 -13.59375l4.6875 0q1.578125 0 2.421875 0.1875q1.15625 0.265625 1.984375 0.96875q1.078125 0.921875 1.609375 2.34375q0.53125 1.40625 0.53125 3.21875q0 1.546875 -0.359375 2.75q-0.359375 1.1875 -0.921875 1.984375q-0.5625 0.78125 -1.234375 1.234375q-0.671875 0.4375 -1.625 0.671875q-0.953125 0.234375 -2.1875 0.234375l-4.90625 0zm1.796875 -1.609375l2.90625 0q1.34375 0 2.109375 -0.25q0.765625 -0.25 1.21875 -0.703125q0.640625 -0.640625 1.0 -1.71875q0.359375 -1.078125 0.359375 -2.625q0 -2.125 -0.703125 -3.265625q-0.703125 -1.15625 -1.703125 -1.546875q-0.71875 -0.28125 -2.328125 -0.28125l-2.859375 0l0 10.390625zm11.707321 1.609375l0 -13.59375l9.84375 0l0 1.59375l-8.046875 0l0 4.171875l7.53125 0l0 1.59375l-7.53125 0l0 4.625l8.359375 0l0 1.609375l-10.15625 0zm12.506073 0l0 -13.59375l9.171875 0l0 1.59375l-7.375 0l0 4.21875l6.375 0l0 1.609375l-6.375 0l0 6.171875l-1.796875 0zm16.911606 0l-1.671875 0l0 -10.640625q-0.59375 0.578125 -1.578125 1.15625q-0.984375 0.5625 -1.765625 0.859375l0 -1.625q1.40625 -0.65625 2.453125 -1.59375q1.046875 -0.9375 1.484375 -1.8125l1.078125 0l0 13.65625zm3.2663422 0l5.234375 -13.59375l1.9374847 0l5.5625 13.59375l-2.046875 0l-1.59375 -4.125l-5.6874847 0l-1.484375 4.125l-1.921875 0zm3.921875 -5.578125l4.6093597 0l-1.40625 -3.78125q-0.65625 -1.703125 -0.96875 -2.8125q-0.265625 1.3125 -0.73435974 2.59375l-1.5 4.0zm18.115433 3.96875l0 1.609375l-8.984375 0q-0.015625 -0.609375 0.1875 -1.15625q0.34375 -0.921875 1.09375 -1.8125q0.765625 -0.890625 2.1875 -2.0625q2.21875 -1.8125 3.0 -2.875q0.78125 -1.0625 0.78125 -2.015625q0 -0.984375 -0.71875 -1.671875q-0.703125 -0.6875 -1.84375 -0.6875q-1.203125 0 -1.9375 0.734375q-0.71875 0.71875 -0.71875 2.0l-1.71875 -0.171875q0.171875 -1.921875 1.328125 -2.921875q1.15625 -1.015625 3.09375 -1.015625q1.953125 0 3.09375 1.09375q1.140625 1.078125 1.140625 2.6875q0 0.8125 -0.34375 1.609375q-0.328125 0.78125 -1.109375 1.65625q-0.765625 0.859375 -2.5625 2.390625q-1.5 1.265625 -1.9375 1.71875q-0.421875 0.4375 -0.703125 0.890625l6.671875 0zm2.2038574 1.609375l0 -13.59375l5.109375 0q1.546875 0 2.484375 0.40625q0.953125 0.40625 1.484375 1.265625q0.53125 0.859375 0.53125 1.796875q0 0.875 -0.46875 1.65625q-0.46875 0.765625 -1.4375 1.234375q1.234375 0.359375 1.890625 1.234375q0.671875 0.875 0.671875 2.0625q0 0.953125 -0.40625 1.78125q-0.390625 0.8125 -0.984375 1.265625q-0.59375 0.4375 -1.5 0.671875q-0.890625 0.21875 -2.1875 0.21875l-5.1875 0zm1.796875 -7.890625l2.9375 0q1.203125 0 1.71875 -0.15625q0.6875 -0.203125 1.03125 -0.671875q0.359375 -0.46875 0.359375 -1.1875q0 -0.671875 -0.328125 -1.1875q-0.328125 -0.515625 -0.9375 -0.703125q-0.59375 -0.203125 -2.0625 -0.203125l-2.71875 0l0 4.109375zm0 6.28125l3.390625 0q0.875 0 1.21875 -0.0625q0.625 -0.109375 1.046875 -0.359375q0.421875 -0.265625 0.6875 -0.765625q0.265625 -0.5 0.265625 -1.140625q0 -0.765625 -0.390625 -1.328125q-0.390625 -0.5625 -1.078125 -0.78125q-0.6875 -0.234375 -1.984375 -0.234375l-3.15625 0l0 4.671875zm10.052948 -1.984375l1.671875 -0.21875q0.28125 1.421875 0.96875 2.046875q0.703125 0.625 1.6875 0.625q1.1875 0 2.0 -0.8125q0.8125 -0.828125 0.8125 -2.03125q0 -1.140625 -0.765625 -1.890625q-0.75 -0.75 -1.90625 -0.75q-0.46875 0 -1.171875 0.1875l0.1875 -1.46875q0.15625 0.015625 0.265625 0.015625q1.0625 0 1.90625 -0.546875q0.859375 -0.5625 0.859375 -1.71875q0 -0.921875 -0.625 -1.515625q-0.609375 -0.609375 -1.59375 -0.609375q-0.96875 0 -1.625 0.609375q-0.640625 0.609375 -0.828125 1.84375l-1.671875 -0.296875q0.296875 -1.6875 1.375 -2.609375q1.09375 -0.921875 2.71875 -0.921875q1.109375 0 2.046875 0.484375q0.9375 0.46875 1.421875 1.296875q0.5 0.828125 0.5 1.75q0 0.890625 -0.46875 1.609375q-0.46875 0.71875 -1.40625 1.15625q1.21875 0.265625 1.875 1.15625q0.671875 0.875 0.671875 2.1875q0 1.78125 -1.296875 3.015625q-1.296875 1.234375 -3.28125 1.234375q-1.796875 0 -2.984375 -1.0625q-1.171875 -1.0625 -1.34375 -2.765625zm11.297577 3.59375l0 -1.90625l1.90625 0l0 1.90625l-1.90625 0zm5.183319 0l0 -1.90625l1.90625 0l0 1.90625l-1.90625 0zm5.1832886 0l0 -1.90625l1.90625 0l0 1.90625l-1.90625 0z" fill-rule="nonzero"></path><path fill="#000000" fill-opacity="0.0" d="m249.68349 411.68393l21.43306 -19.035645l21.433075 19.035645l-14.430664 0l0 18.003723l-14.004791 0l0 -18.003723z" fill-rule="nonzero"></path><path stroke="#b7b7b7" stroke-width="1.0" stroke-linejoin="round" stroke-linecap="butt" d="m249.68349 411.68393l21.43306 -19.035645l21.433075 19.035645l-14.430664 0l0 18.003723l-14.004791 0l0 -18.003723z" fill-rule="nonzero"></path><path fill="#000000" fill-opacity="0.0" d="m206.67561 423.4317l128.88188 0l0 37.039368l-128.88188 0z" fill-rule="nonzero"></path><path fill="#000000" d="m220.73404 450.35168l0 -13.59375l5.125 0q1.359375 0 2.078125 0.125q1.0 0.171875 1.671875 0.640625q0.671875 0.46875 1.078125 1.3125q0.421875 0.84375 0.421875 1.84375q0 1.734375 -1.109375 2.9375q-1.09375 1.203125 -3.984375 1.203125l-3.484375 0l0 5.53125l-1.796875 0zm1.796875 -7.140625l3.515625 0q1.75 0 2.46875 -0.640625q0.734375 -0.65625 0.734375 -1.828125q0 -0.859375 -0.4375 -1.46875q-0.421875 -0.609375 -1.125 -0.796875q-0.453125 -0.125 -1.671875 -0.125l-3.484375 0l0 4.859375zm10.396698 7.140625l0 -13.59375l1.671875 0l0 13.59375l-1.671875 0zm10.613571 -1.21875q-0.9375 0.796875 -1.796875 1.125q-0.859375 0.3125 -1.84375 0.3125q-1.609375 0 -2.484375 -0.78125q-0.875 -0.796875 -0.875 -2.03125q0 -0.734375 0.328125 -1.328125q0.328125 -0.59375 0.859375 -0.953125q0.53125 -0.359375 1.203125 -0.546875q0.5 -0.140625 1.484375 -0.25q2.03125 -0.25 2.984375 -0.578125q0 -0.34375 0 -0.4375q0 -1.015625 -0.46875 -1.4375q-0.640625 -0.5625 -1.90625 -0.5625q-1.171875 0 -1.734375 0.40625q-0.5625 0.40625 -0.828125 1.46875l-1.640625 -0.234375q0.234375 -1.046875 0.734375 -1.6875q0.515625 -0.640625 1.46875 -0.984375q0.96875 -0.359375 2.25 -0.359375q1.265625 0 2.046875 0.296875q0.78125 0.296875 1.15625 0.75q0.375 0.453125 0.515625 1.140625q0.09375 0.421875 0.09375 1.53125l0 2.234375q0 2.328125 0.09375 2.953125q0.109375 0.609375 0.4375 1.171875l-1.75 0q-0.265625 -0.515625 -0.328125 -1.21875zm-0.140625 -3.71875q-0.90625 0.359375 -2.734375 0.625q-1.03125 0.140625 -1.453125 0.328125q-0.421875 0.1875 -0.65625 0.546875q-0.234375 0.359375 -0.234375 0.796875q0 0.671875 0.5 1.125q0.515625 0.4375 1.484375 0.4375q0.96875 0 1.71875 -0.421875q0.75 -0.4375 1.109375 -1.15625q0.265625 -0.578125 0.265625 -1.671875l0 -0.609375zm4.094467 -6.75l0 -1.90625l1.671875 0l0 1.90625l-1.671875 0zm0 11.6875l0 -9.859375l1.671875 0l0 9.859375l-1.671875 0zm4.129196 0l0 -9.859375l1.5 0l0 1.40625q1.09375 -1.625 3.1406403 -1.625q0.890625 0 1.640625 0.328125q0.75 0.3125 1.109375 0.84375q0.375 0.515625 0.53125 1.21875q0.09375 0.46875 0.09375 1.625l0 6.0625l-1.671875 0l0 -6.0q0 -1.015625 -0.203125 -1.515625q-0.1875 -0.515625 -0.6875 -0.8125q-0.5 -0.296875 -1.1718903 -0.296875q-1.0625 0 -1.84375 0.671875q-0.765625 0.671875 -0.765625 2.578125l0 5.375l-1.671875 0zm15.168411 -4.375l1.6875 -0.140625q0.125 1.015625 0.5625 1.671875q0.4375 0.65625 1.359375 1.0625q0.9375 0.40625 2.09375 0.40625q1.03125 0 1.8125 -0.3125q0.796875 -0.3125 1.1875 -0.84375q0.390625 -0.53125 0.390625 -1.15625q0 -0.640625 -0.375 -1.109375q-0.375 -0.484375 -1.234375 -0.8125q-0.546875 -0.21875 -2.421875 -0.65625q-1.875 -0.453125 -2.625 -0.859375q-0.96875 -0.515625 -1.453125 -1.265625q-0.46875 -0.75 -0.46875 -1.6875q0 -1.03125 0.578125 -1.921875q0.59375 -0.90625 1.703125 -1.359375q1.125 -0.46875 2.5 -0.46875q1.515625 0 2.671875 0.484375q1.15625 0.484375 1.765625 1.4375q0.625 0.9375 0.671875 2.140625l-1.71875 0.125q-0.140625 -1.28125 -0.953125 -1.9375q-0.796875 -0.671875 -2.359375 -0.671875q-1.625 0 -2.375 0.609375q-0.75 0.59375 -0.75 1.4375q0 0.734375 0.53125 1.203125q0.515625 0.46875 2.703125 0.96875q2.203125 0.5 3.015625 0.875q1.1875 0.546875 1.75 1.390625q0.578125 0.828125 0.578125 1.921875q0 1.09375 -0.625 2.0625q-0.625 0.953125 -1.796875 1.484375q-1.15625 0.53125 -2.609375 0.53125q-1.84375 0 -3.09375 -0.53125q-1.25 -0.546875 -1.96875 -1.625q-0.703125 -1.078125 -0.734375 -2.453125zm23.349823 2.921875q1.265625 0.859375 2.3125 1.265625l-0.53125 1.25q-1.453125 -0.53125 -2.921875 -1.671875q-1.5 0.84375 -3.328125 0.84375q-1.84375 0 -3.359375 -0.890625q-1.5 -0.890625 -2.3125 -2.5q-0.8125 -1.625 -0.8125 -3.640625q0 -2.015625 0.8125 -3.65625q0.828125 -1.65625 2.328125 -2.515625q1.515625 -0.875 3.375 -0.875q1.890625 0 3.390625 0.90625q1.515625 0.890625 2.3125 2.5q0.796875 1.609375 0.796875 3.625q0 1.6875 -0.515625 3.03125q-0.515625 1.328125 -1.546875 2.328125zm-3.953125 -2.296875q1.5625 0.421875 2.5625 1.296875q1.59375 -1.453125 1.59375 -4.359375q0 -1.65625 -0.5625 -2.875q-0.5625 -1.234375 -1.640625 -1.921875q-1.078125 -0.6875 -2.421875 -0.6875q-2.015625 0 -3.34375 1.390625q-1.328125 1.375 -1.328125 4.109375q0 2.65625 1.3125 4.078125q1.3125 1.40625 3.359375 1.40625q0.953125 0 1.8125 -0.359375q-0.84375 -0.546875 -1.78125 -0.78125l0.4375 -1.296875zm8.089539 3.75l0 -13.59375l1.796875 0l0 11.984375l6.703125 0l0 1.609375l-8.5 0zm10.250732 -11.6875l0 -1.90625l1.671875 0l0 1.90625l-1.671875 0zm0 11.6875l0 -9.859375l1.671875 0l0 9.859375l-1.671875 0zm7.785431 -1.5l0.234375 1.484375q-0.703125 0.140625 -1.265625 0.140625q-0.90625 0 -1.40625 -0.28125q-0.5 -0.296875 -0.703125 -0.75q-0.203125 -0.46875 -0.203125 -1.984375l0 -5.65625l-1.234375 0l0 -1.3125l1.234375 0l0 -2.4375l1.65625 -1.0l0 3.4375l1.6875 0l0 1.3125l-1.6875 0l0 5.75q0 0.71875 0.078125 0.921875q0.09375 0.203125 0.296875 0.328125q0.203125 0.125 0.578125 0.125q0.265625 0 0.734375 -0.078125zm8.277069 -1.671875l1.71875 0.21875q-0.40625 1.5 -1.515625 2.34375q-1.09375 0.828125 -2.8125 0.828125q-2.15625 0 -3.421875 -1.328125q-1.265625 -1.328125 -1.265625 -3.734375q0 -2.484375 1.265625 -3.859375q1.28125 -1.375 3.328125 -1.375q1.984375 0 3.234375 1.34375q1.25 1.34375 1.25 3.796875q0 0.140625 -0.015625 0.4375l-7.34375 0q0.09375 1.625 0.921875 2.484375q0.828125 0.859375 2.0625 0.859375q0.90625 0 1.546875 -0.46875q0.65625 -0.484375 1.046875 -1.546875zm-5.484375 -2.703125l5.5 0q-0.109375 -1.234375 -0.625 -1.859375q-0.796875 -0.96875 -2.078125 -0.96875q-1.140625 0 -1.9375 0.78125q-0.78125 0.765625 -0.859375 2.046875z" fill-rule="nonzero"></path></g></svg>

