<?xml version="1.0" standalone="yes"?>

<svg version="1.1" viewBox="0.0 0.0 960.0 720.0" fill="none" stroke="none" stroke-linecap="square" stroke-miterlimit="10" xmlns="http://www.w3.org/2000/svg" xmlns:xlink="http://www.w3.org/1999/xlink"><clipPath id="p.0"><path d="m0 0l960.0 0l0 720.0l-960.0 0l0 -720.0z" clip-rule="nonzero"></path></clipPath><g clip-path="url(#p.0)"><path fill="#000000" fill-opacity="0.0" d="m0 0l960.0 0l0 720.0l-960.0 0z" fill-rule="nonzero"></path><path fill="#000000" fill-opacity="0.0" d="m32.062992 359.3281l164.19685 -328.39355l562.0 0l164.19684 328.39355l-164.19684 328.39352l-562.0 0z" fill-rule="nonzero"></path><path stroke="#666666" stroke-width="3.0" stroke-linejoin="round" stroke-linecap="butt" stroke-dasharray="3.0,9.0" d="m32.062992 359.3281l164.19685 -328.39355l562.0 0l164.19684 328.39355l-164.19684 328.39352l-562.0 0z" fill-rule="nonzero"></path><path fill="#ffffff" d="m628.64044 87.42126l0 0c0 -6.745552 20.506165 -12.213905 45.80182 -12.213905c25.295654 0 45.80182 5.4683533 45.80182 12.213905l0 48.855644c0 6.7455597 -20.506165 12.213913 -45.80182 12.213913c-25.295654 0 -45.80182 -5.4683533 -45.80182 -12.213913z" fill-rule="nonzero"></path><path fill="#000000" fill-opacity="0.0" d="m720.2441 87.42126l0 0c0 6.7455597 -20.506165 12.213913 -45.80182 12.213913c-25.295654 0 -45.80182 -5.4683533 -45.80182 -12.213913" fill-rule="nonzero"></path><path fill="#000000" fill-opacity="0.0" d="m628.64044 87.42126l0 0c0 -6.745552 20.506165 -12.213905 45.80182 -12.213905c25.295654 0 45.80182 5.4683533 45.80182 12.213905l0 48.855644c0 6.7455597 -20.506165 12.213913 -45.80182 12.213913c-25.295654 0 -45.80182 -5.4683533 -45.80182 -12.213913z" fill-rule="nonzero"></path><path stroke="#cc0000" stroke-width="4.0" stroke-linejoin="round" stroke-linecap="butt" d="m720.2441 87.42126l0 0c0 6.7455597 -20.506165 12.213913 -45.80182 12.213913c-25.295654 0 -45.80182 -5.4683533 -45.80182 -12.213913" fill-rule="nonzero"></path><path stroke="#cc0000" stroke-width="4.0" stroke-linejoin="round" stroke-linecap="butt" d="m628.64044 87.42126l0 0c0 -6.745552 20.506165 -12.213905 45.80182 -12.213905c25.295654 0 45.80182 5.4683533 45.80182 12.213905l0 48.855644c0 6.7455597 -20.506165 12.213913 -45.80182 12.213913c-25.295654 0 -45.80182 -5.4683533 -45.80182 -12.213913z" fill-rule="nonzero"></path><path fill="#ffffff" d="m620.64044 103.42126l0 0c0 -6.745552 20.506165 -12.213905 45.80182 -12.213905c25.295654 0 45.80182 5.4683533 45.80182 12.213905l0 48.855644c0 6.7455597 -20.506165 12.213913 -45.80182 12.213913c-25.295654 0 -45.80182 -5.4683533 -45.80182 -12.213913z" fill-rule="nonzero"></path><path fill="#000000" fill-opacity="0.0" d="m712.2441 103.42126l0 0c0 6.7455597 -20.506165 12.213913 -45.80182 12.213913c-25.295654 0 -45.80182 -5.4683533 -45.80182 -12.213913" fill-rule="nonzero"></path><path fill="#000000" fill-opacity="0.0" d="m620.64044 103.42126l0 0c0 -6.745552 20.506165 -12.213905 45.80182 -12.213905c25.295654 0 45.80182 5.4683533 45.80182 12.213905l0 48.855644c0 6.7455597 -20.506165 12.213913 -45.80182 12.213913c-25.295654 0 -45.80182 -5.4683533 -45.80182 -12.213913z" fill-rule="nonzero"></path><path stroke="#cc0000" stroke-width="4.0" stroke-linejoin="round" stroke-linecap="butt" d="m712.2441 103.42126l0 0c0 6.7455597 -20.506165 12.213913 -45.80182 12.213913c-25.295654 0 -45.80182 -5.4683533 -45.80182 -12.213913" fill-rule="nonzero"></path><path stroke="#cc0000" stroke-width="4.0" stroke-linejoin="round" stroke-linecap="butt" d="m620.64044 103.42126l0 0c0 -6.745552 20.506165 -12.213905 45.80182 -12.213905c25.295654 0 45.80182 5.4683533 45.80182 12.213905l0 48.855644c0 6.7455597 -20.506165 12.213913 -45.80182 12.213913c-25.295654 0 -45.80182 -5.4683533 -45.80182 -12.213913z" fill-rule="nonzero"></path><path fill="#ffffff" d="m610.74805 118.26119l0 0c0 -6.745552 20.506165 -12.213905 45.80182 -12.213905c25.295654 0 45.80182 5.4683533 45.80182 12.213905l0 48.855644c0 6.7455597 -20.506165 12.213913 -45.80182 12.213913c-25.295654 0 -45.80182 -5.4683533 -45.80182 -12.213913z" fill-rule="nonzero"></path><path fill="#000000" fill-opacity="0.0" d="m702.3517 118.26119l0 0c0 6.7455597 -20.506165 12.213921 -45.80182 12.213921c-25.295654 0 -45.80182 -5.468361 -45.80182 -12.213921" fill-rule="nonzero"></path><path fill="#000000" fill-opacity="0.0" d="m610.74805 118.26119l0 0c0 -6.745552 20.506165 -12.213905 45.80182 -12.213905c25.295654 0 45.80182 5.4683533 45.80182 12.213905l0 48.855644c0 6.7455597 -20.506165 12.213913 -45.80182 12.213913c-25.295654 0 -45.80182 -5.4683533 -45.80182 -12.213913z" fill-rule="nonzero"></path><path stroke="#cc0000" stroke-width="4.0" stroke-linejoin="round" stroke-linecap="butt" d="m702.3517 118.26119l0 0c0 6.7455597 -20.506165 12.213921 -45.80182 12.213921c-25.295654 0 -45.80182 -5.468361 -45.80182 -12.213921" fill-rule="nonzero"></path><path stroke="#cc0000" stroke-width="4.0" stroke-linejoin="round" stroke-linecap="butt" d="m610.74805 118.26119l0 0c0 -6.745552 20.506165 -12.213905 45.80182 -12.213905c25.295654 0 45.80182 5.4683533 45.80182 12.213905l0 48.855644c0 6.7455597 -20.506165 12.213913 -45.80182 12.213913c-25.295654 0 -45.80182 -5.4683533 -45.80182 -12.213913z" fill-rule="nonzero"></path><path fill="#cc0000" d="m636.5797 149.01285q0 -2.421875 0.5 -3.890625q0.5 -1.46875 1.46875 -2.265625q0.984375 -0.796875 2.46875 -0.796875q1.09375 0 1.921875 0.4375q0.828125 0.4375 1.359375 1.28125q0.546875 0.828125 0.84375 2.015625q0.3125 1.1875 0.3125 3.21875q0 2.390625 -0.5 3.859375q-0.484375 1.46875 -1.46875 2.28125q-0.96875 0.796875 -2.46875 0.796875q-1.96875 0 -3.078125 -1.40625q-1.359375 -1.703125 -1.359375 -5.53125zm1.71875 0q0 3.34375 0.78125 4.453125q0.796875 1.109375 1.9375 1.109375q1.15625 0 1.9375 -1.109375q0.78125 -1.125 0.78125 -4.453125q0 -3.359375 -0.78125 -4.46875q-0.78125 -1.109375 -1.953125 -1.109375q-1.15625 0 -1.828125 0.984375q-0.875 1.234375 -0.875 4.59375zm8.656921 0q0 -2.421875 0.5 -3.890625q0.5 -1.46875 1.46875 -2.265625q0.984375 -0.796875 2.46875 -0.796875q1.09375 0 1.921875 0.4375q0.828125 0.4375 1.359375 1.28125q0.546875 0.828125 0.84375 2.015625q0.3125 1.1875 0.3125 3.21875q0 2.390625 -0.5 3.859375q-0.484375 1.46875 -1.46875 2.28125q-0.96875 0.796875 -2.46875 0.796875q-1.96875 0 -3.078125 -1.40625q-1.359375 -1.703125 -1.359375 -5.53125zm1.71875 0q0 3.34375 0.78125 4.453125q0.796875 1.109375 1.9375 1.109375q1.15625 0 1.9375 -1.109375q0.78125 -1.125 0.78125 -4.453125q0 -3.359375 -0.78125 -4.46875q-0.78125 -1.109375 -1.953125 -1.109375q-1.15625 0 -1.828125 0.984375q-0.875 1.234375 -0.875 4.59375zm8.656982 0q0 -2.421875 0.5 -3.890625q0.5 -1.46875 1.46875 -2.265625q0.984375 -0.796875 2.46875 -0.796875q1.09375 0 1.921875 0.4375q0.828125 0.4375 1.359375 1.28125q0.546875 0.828125 0.84375 2.015625q0.3125 1.1875 0.3125 3.21875q0 2.390625 -0.5 3.859375q-0.484375 1.46875 -1.46875 2.28125q-0.96875 0.796875 -2.46875 0.796875q-1.96875 0 -3.078125 -1.40625q-1.359375 -1.703125 -1.359375 -5.53125zm1.71875 0q0 3.34375 0.78125 4.453125q0.796875 1.109375 1.9375 1.109375q1.15625 0 1.9375 -1.109375q0.78125 -1.125 0.78125 -4.453125q0 -3.359375 -0.78125 -4.46875q-0.78125 -1.109375 -1.953125 -1.109375q-1.15625 0 -1.828125 0.984375q-0.875 1.234375 -0.875 4.59375zm8.656982 0q0 -2.421875 0.5 -3.890625q0.5 -1.46875 1.46875 -2.265625q0.984375 -0.796875 2.46875 -0.796875q1.09375 0 1.921875 0.4375q0.828125 0.4375 1.359375 1.28125q0.546875 0.828125 0.84375 2.015625q0.3125 1.1875 0.3125 3.21875q0 2.390625 -0.5 3.859375q-0.484375 1.46875 -1.46875 2.28125q-0.96875 0.796875 -2.46875 0.796875q-1.96875 0 -3.078125 -1.40625q-1.359375 -1.703125 -1.359375 -5.53125zm1.71875 0q0 3.34375 0.78125 4.453125q0.796875 1.109375 1.9375 1.109375q1.15625 0 1.9375 -1.109375q0.78125 -1.125 0.78125 -4.453125q0 -3.359375 -0.78125 -4.46875q-0.78125 -1.109375 -1.953125 -1.109375q-1.15625 0 -1.828125 0.984375q-0.875 1.234375 -0.875 4.59375z" fill-rule="nonzero"></path><path fill="#ffffff" d="m628.64044 213.40814l0 0c0 -6.7455597 20.506165 -12.213913 45.80182 -12.213913c25.295654 0 45.80182 5.4683533 45.80182 12.213913l0 48.85565c0 6.7455444 -20.506165 12.213898 -45.80182 12.213898c-25.295654 0 -45.80182 -5.4683533 -45.80182 -12.213898z" fill-rule="nonzero"></path><path fill="#000000" fill-opacity="0.0" d="m720.2441 213.40814l0 0c0 6.7455444 -20.506165 12.213898 -45.80182 12.213898c-25.295654 0 -45.80182 -5.4683533 -45.80182 -12.213898" fill-rule="nonzero"></path><path fill="#000000" fill-opacity="0.0" d="m628.64044 213.40814l0 0c0 -6.7455597 20.506165 -12.213913 45.80182 -12.213913c25.295654 0 45.80182 5.4683533 45.80182 12.213913l0 48.85565c0 6.7455444 -20.506165 12.213898 -45.80182 12.213898c-25.295654 0 -45.80182 -5.4683533 -45.80182 -12.213898z" fill-rule="nonzero"></path><path stroke="#cc0000" stroke-width="4.0" stroke-linejoin="round" stroke-linecap="butt" d="m720.2441 213.40814l0 0c0 6.7455444 -20.506165 12.213898 -45.80182 12.213898c-25.295654 0 -45.80182 -5.4683533 -45.80182 -12.213898" fill-rule="nonzero"></path><path stroke="#cc0000" stroke-width="4.0" stroke-linejoin="round" stroke-linecap="butt" d="m628.64044 213.40814l0 0c0 -6.7455597 20.506165 -12.213913 45.80182 -12.213913c25.295654 0 45.80182 5.4683533 45.80182 12.213913l0 48.85565c0 6.7455444 -20.506165 12.213898 -45.80182 12.213898c-25.295654 0 -45.80182 -5.4683533 -45.80182 -12.213898z" fill-rule="nonzero"></path><path fill="#ffffff" d="m620.64044 229.40814l0 0c0 -6.7455597 20.506165 -12.213913 45.80182 -12.213913c25.295654 0 45.80182 5.4683533 45.80182 12.213913l0 48.85565c0 6.7455444 -20.506165 12.213898 -45.80182 12.213898c-25.295654 0 -45.80182 -5.4683533 -45.80182 -12.213898z" fill-rule="nonzero"></path><path fill="#000000" fill-opacity="0.0" d="m712.2441 229.40814l0 0c0 6.7455444 -20.506165 12.213898 -45.80182 12.213898c-25.295654 0 -45.80182 -5.4683533 -45.80182 -12.213898" fill-rule="nonzero"></path><path fill="#000000" fill-opacity="0.0" d="m620.64044 229.40814l0 0c0 -6.7455597 20.506165 -12.213913 45.80182 -12.213913c25.295654 0 45.80182 5.4683533 45.80182 12.213913l0 48.85565c0 6.7455444 -20.506165 12.213898 -45.80182 12.213898c-25.295654 0 -45.80182 -5.4683533 -45.80182 -12.213898z" fill-rule="nonzero"></path><path stroke="#cc0000" stroke-width="4.0" stroke-linejoin="round" stroke-linecap="butt" d="m712.2441 229.40814l0 0c0 6.7455444 -20.506165 12.213898 -45.80182 12.213898c-25.295654 0 -45.80182 -5.4683533 -45.80182 -12.213898" fill-rule="nonzero"></path><path stroke="#cc0000" stroke-width="4.0" stroke-linejoin="round" stroke-linecap="butt" d="m620.64044 229.40814l0 0c0 -6.7455597 20.506165 -12.213913 45.80182 -12.213913c25.295654 0 45.80182 5.4683533 45.80182 12.213913l0 48.85565c0 6.7455444 -20.506165 12.213898 -45.80182 12.213898c-25.295654 0 -45.80182 -5.4683533 -45.80182 -12.213898z" fill-rule="nonzero"></path><path fill="#ffffff" d="m610.74805 244.24808l0 0c0 -6.7455597 20.506165 -12.213913 45.80182 -12.213913c25.295654 0 45.80182 5.4683533 45.80182 12.213913l0 48.85565c0 6.7455444 -20.506165 12.213898 -45.80182 12.213898c-25.295654 0 -45.80182 -5.4683533 -45.80182 -12.213898z" fill-rule="nonzero"></path><path fill="#000000" fill-opacity="0.0" d="m702.3517 244.24808l0 0c0 6.7455444 -20.506165 12.213898 -45.80182 12.213898c-25.295654 0 -45.80182 -5.4683533 -45.80182 -12.213898" fill-rule="nonzero"></path><path fill="#000000" fill-opacity="0.0" d="m610.74805 244.24808l0 0c0 -6.7455597 20.506165 -12.213913 45.80182 -12.213913c25.295654 0 45.80182 5.4683533 45.80182 12.213913l0 48.85565c0 6.7455444 -20.506165 12.213898 -45.80182 12.213898c-25.295654 0 -45.80182 -5.4683533 -45.80182 -12.213898z" fill-rule="nonzero"></path><path stroke="#cc0000" stroke-width="4.0" stroke-linejoin="round" stroke-linecap="butt" d="m702.3517 244.24808l0 0c0 6.7455444 -20.506165 12.213898 -45.80182 12.213898c-25.295654 0 -45.80182 -5.4683533 -45.80182 -12.213898" fill-rule="nonzero"></path><path stroke="#cc0000" stroke-width="4.0" stroke-linejoin="round" stroke-linecap="butt" d="m610.74805 244.24808l0 0c0 -6.7455597 20.506165 -12.213913 45.80182 -12.213913c25.295654 0 45.80182 5.4683533 45.80182 12.213913l0 48.85565c0 6.7455444 -20.506165 12.213898 -45.80182 12.213898c-25.295654 0 -45.80182 -5.4683533 -45.80182 -12.213898z" fill-rule="nonzero"></path><path fill="#cc0000" d="m636.5797 274.99973q0 -2.421875 0.5 -3.890625q0.5 -1.46875 1.46875 -2.265625q0.984375 -0.796875 2.46875 -0.796875q1.09375 0 1.921875 0.4375q0.828125 0.4375 1.359375 1.28125q0.546875 0.828125 0.84375 2.015625q0.3125 1.1875 0.3125 3.21875q0 2.390625 -0.5 3.859375q-0.484375 1.46875 -1.46875 2.28125q-0.96875 0.796875 -2.46875 0.796875q-1.96875 0 -3.078125 -1.40625q-1.359375 -1.703125 -1.359375 -5.53125zm1.71875 0q0 3.34375 0.78125 4.453125q0.796875 1.109375 1.9375 1.109375q1.15625 0 1.9375 -1.109375q0.78125 -1.125 0.78125 -4.453125q0 -3.359375 -0.78125 -4.46875q-0.78125 -1.109375 -1.953125 -1.109375q-1.15625 0 -1.828125 0.984375q-0.875 1.234375 -0.875 4.59375zm8.656921 0q0 -2.421875 0.5 -3.890625q0.5 -1.46875 1.46875 -2.265625q0.984375 -0.796875 2.46875 -0.796875q1.09375 0 1.921875 0.4375q0.828125 0.4375 1.359375 1.28125q0.546875 0.828125 0.84375 2.015625q0.3125 1.1875 0.3125 3.21875q0 2.390625 -0.5 3.859375q-0.484375 1.46875 -1.46875 2.28125q-0.96875 0.796875 -2.46875 0.796875q-1.96875 0 -3.078125 -1.40625q-1.359375 -1.703125 -1.359375 -5.53125zm1.71875 0q0 3.34375 0.78125 4.453125q0.796875 1.109375 1.9375 1.109375q1.15625 0 1.9375 -1.109375q0.78125 -1.125 0.78125 -4.453125q0 -3.359375 -0.78125 -4.46875q-0.78125 -1.109375 -1.953125 -1.109375q-1.15625 0 -1.828125 0.984375q-0.875 1.234375 -0.875 4.59375zm8.656982 0q0 -2.421875 0.5 -3.890625q0.5 -1.46875 1.46875 -2.265625q0.984375 -0.796875 2.46875 -0.796875q1.09375 0 1.921875 0.4375q0.828125 0.4375 1.359375 1.28125q0.546875 0.828125 0.84375 2.015625q0.3125 1.1875 0.3125 3.21875q0 2.390625 -0.5 3.859375q-0.484375 1.46875 -1.46875 2.28125q-0.96875 0.796875 -2.46875 0.796875q-1.96875 0 -3.078125 -1.40625q-1.359375 -1.703125 -1.359375 -5.53125zm1.71875 0q0 3.34375 0.78125 4.453125q0.796875 1.109375 1.9375 1.109375q1.15625 0 1.9375 -1.109375q0.78125 -1.125 0.78125 -4.453125q0 -3.359375 -0.78125 -4.46875q-0.78125 -1.109375 -1.953125 -1.109375q-1.15625 0 -1.828125 0.984375q-0.875 1.234375 -0.875 4.59375zm14.953857 6.703125l-1.671875 0l0 -10.640625q-0.59375 0.578125 -1.578125 1.15625q-0.984375 0.5625 -1.765625 0.859375l0 -1.625q1.40625 -0.65625 2.453125 -1.59375q1.046875 -0.9375 1.484375 -1.8125l1.078125 0l0 13.65625z" fill-rule="nonzero"></path><path fill="#ffffff" d="m628.64044 549.16144l0 0c0 -6.7456055 20.506165 -12.213928 45.80182 -12.213928c25.295654 0 45.80182 5.4683228 45.80182 12.213928l0 48.85565c0 6.7455444 -20.506165 12.213867 -45.80182 12.213867c-25.295654 0 -45.80182 -5.4683228 -45.80182 -12.213867z" fill-rule="nonzero"></path><path fill="#000000" fill-opacity="0.0" d="m720.2441 549.16144l0 0c0 6.7455444 -20.506165 12.213867 -45.80182 12.213867c-25.295654 0 -45.80182 -5.4683228 -45.80182 -12.213867" fill-rule="nonzero"></path><path fill="#000000" fill-opacity="0.0" d="m628.64044 549.16144l0 0c0 -6.7456055 20.506165 -12.213928 45.80182 -12.213928c25.295654 0 45.80182 5.4683228 45.80182 12.213928l0 48.85565c0 6.7455444 -20.506165 12.213867 -45.80182 12.213867c-25.295654 0 -45.80182 -5.4683228 -45.80182 -12.213867z" fill-rule="nonzero"></path><path stroke="#cc0000" stroke-width="4.0" stroke-linejoin="round" stroke-linecap="butt" d="m720.2441 549.16144l0 0c0 6.7455444 -20.506165 12.213867 -45.80182 12.213867c-25.295654 0 -45.80182 -5.4683228 -45.80182 -12.213867" fill-rule="nonzero"></path><path stroke="#cc0000" stroke-width="4.0" stroke-linejoin="round" stroke-linecap="butt" d="m628.64044 549.16144l0 0c0 -6.7456055 20.506165 -12.213928 45.80182 -12.213928c25.295654 0 45.80182 5.4683228 45.80182 12.213928l0 48.85565c0 6.7455444 -20.506165 12.213867 -45.80182 12.213867c-25.295654 0 -45.80182 -5.4683228 -45.80182 -12.213867z" fill-rule="nonzero"></path><path fill="#ffffff" d="m620.64044 565.16144l0 0c0 -6.7456055 20.506165 -12.213928 45.80182 -12.213928c25.295654 0 45.80182 5.4683228 45.80182 12.213928l0 48.85565c0 6.7455444 -20.506165 12.213867 -45.80182 12.213867c-25.295654 0 -45.80182 -5.4683228 -45.80182 -12.213867z" fill-rule="nonzero"></path><path fill="#000000" fill-opacity="0.0" d="m712.2441 565.16144l0 0c0 6.7455444 -20.506165 12.213867 -45.80182 12.213867c-25.295654 0 -45.80182 -5.4683228 -45.80182 -12.213867" fill-rule="nonzero"></path><path fill="#000000" fill-opacity="0.0" d="m620.64044 565.16144l0 0c0 -6.7456055 20.506165 -12.213928 45.80182 -12.213928c25.295654 0 45.80182 5.4683228 45.80182 12.213928l0 48.85565c0 6.7455444 -20.506165 12.213867 -45.80182 12.213867c-25.295654 0 -45.80182 -5.4683228 -45.80182 -12.213867z" fill-rule="nonzero"></path><path stroke="#cc0000" stroke-width="4.0" stroke-linejoin="round" stroke-linecap="butt" d="m712.2441 565.16144l0 0c0 6.7455444 -20.506165 12.213867 -45.80182 12.213867c-25.295654 0 -45.80182 -5.4683228 -45.80182 -12.213867" fill-rule="nonzero"></path><path stroke="#cc0000" stroke-width="4.0" stroke-linejoin="round" stroke-linecap="butt" d="m620.64044 565.16144l0 0c0 -6.7456055 20.506165 -12.213928 45.80182 -12.213928c25.295654 0 45.80182 5.4683228 45.80182 12.213928l0 48.85565c0 6.7455444 -20.506165 12.213867 -45.80182 12.213867c-25.295654 0 -45.80182 -5.4683228 -45.80182 -12.213867z" fill-rule="nonzero"></path><path fill="#ffffff" d="m610.74805 580.00134l0 0c0 -6.7455444 20.506165 -12.213928 45.80182 -12.213928c25.295654 0 45.80182 5.468384 45.80182 12.213928l0 48.85565c0 6.7455444 -20.506165 12.213928 -45.80182 12.213928c-25.295654 0 -45.80182 -5.468384 -45.80182 -12.213928z" fill-rule="nonzero"></path><path fill="#000000" fill-opacity="0.0" d="m702.3517 580.00134l0 0c0 6.7455444 -20.506165 12.213928 -45.80182 12.213928c-25.295654 0 -45.80182 -5.468384 -45.80182 -12.213928" fill-rule="nonzero"></path><path fill="#000000" fill-opacity="0.0" d="m610.74805 580.00134l0 0c0 -6.7455444 20.506165 -12.213928 45.80182 -12.213928c25.295654 0 45.80182 5.468384 45.80182 12.213928l0 48.85565c0 6.7455444 -20.506165 12.213928 -45.80182 12.213928c-25.295654 0 -45.80182 -5.468384 -45.80182 -12.213928z" fill-rule="nonzero"></path><path stroke="#cc0000" stroke-width="4.0" stroke-linejoin="round" stroke-linecap="butt" d="m702.3517 580.00134l0 0c0 6.7455444 -20.506165 12.213928 -45.80182 12.213928c-25.295654 0 -45.80182 -5.468384 -45.80182 -12.213928" fill-rule="nonzero"></path><path stroke="#cc0000" stroke-width="4.0" stroke-linejoin="round" stroke-linecap="butt" d="m610.74805 580.00134l0 0c0 -6.7455444 20.506165 -12.213928 45.80182 -12.213928c25.295654 0 45.80182 5.468384 45.80182 12.213928l0 48.85565c0 6.7455444 -20.506165 12.213928 -45.80182 12.213928c-25.295654 0 -45.80182 -5.468384 -45.80182 -12.213928z" fill-rule="nonzero"></path><path fill="#cc0000" d="m635.32043 617.4561l0 -13.59375l9.171875 0l0 1.59375l-7.375 0l0 4.21875l6.375 0l0 1.609375l-6.375 0l0 6.171875l-1.796875 0zm11.395935 0l0 -13.59375l9.171875 0l0 1.59375l-7.375 0l0 4.21875l6.375 0l0 1.609375l-6.375 0l0 6.171875l-1.796875 0zm11.395996 0l0 -13.59375l9.171875 0l0 1.59375l-7.375 0l0 4.21875l6.375 0l0 1.609375l-6.375 0l0 6.171875l-1.796875 0zm11.395996 0l0 -13.59375l9.171875 0l0 1.59375l-7.375 0l0 4.21875l6.375 0l0 1.609375l-6.375 0l0 6.171875l-1.796875 0z" fill-rule="nonzero"></path><path fill="#000000" fill-opacity="0.0" d="m626.38055 343.9344l62.26776 0l0 28.409454l-62.26776 0z" fill-rule="nonzero"></path><path fill="#000000" d="m647.0848 369.8591l0 -3.203125l3.203125 0l0 3.203125l-3.203125 0zm8.890625 0l0 -3.203125l3.203125 0l0 3.203125l-3.203125 0zm8.890625 0l0 -3.203125l3.203125 0l0 3.203125l-3.203125 0z" fill-rule="nonzero"></path><path fill="#ffffff" d="m628.64044 423.17453l0 0c0 -6.7455444 20.506165 -12.213898 45.80182 -12.213898c25.295654 0 45.80182 5.4683533 45.80182 12.213898l0 48.85565c0 6.7455444 -20.506165 12.213898 -45.80182 12.213898c-25.295654 0 -45.80182 -5.4683533 -45.80182 -12.213898z" fill-rule="nonzero"></path><path fill="#000000" fill-opacity="0.0" d="m720.2441 423.17453l0 0c0 6.745575 -20.506165 12.213928 -45.80182 12.213928c-25.295654 0 -45.80182 -5.4683533 -45.80182 -12.213928" fill-rule="nonzero"></path><path fill="#000000" fill-opacity="0.0" d="m628.64044 423.17453l0 0c0 -6.7455444 20.506165 -12.213898 45.80182 -12.213898c25.295654 0 45.80182 5.4683533 45.80182 12.213898l0 48.85565c0 6.7455444 -20.506165 12.213898 -45.80182 12.213898c-25.295654 0 -45.80182 -5.4683533 -45.80182 -12.213898z" fill-rule="nonzero"></path><path stroke="#cc0000" stroke-width="4.0" stroke-linejoin="round" stroke-linecap="butt" d="m720.2441 423.17453l0 0c0 6.745575 -20.506165 12.213928 -45.80182 12.213928c-25.295654 0 -45.80182 -5.4683533 -45.80182 -12.213928" fill-rule="nonzero"></path><path stroke="#cc0000" stroke-width="4.0" stroke-linejoin="round" stroke-linecap="butt" d="m628.64044 423.17453l0 0c0 -6.7455444 20.506165 -12.213898 45.80182 -12.213898c25.295654 0 45.80182 5.4683533 45.80182 12.213898l0 48.85565c0 6.7455444 -20.506165 12.213898 -45.80182 12.213898c-25.295654 0 -45.80182 -5.4683533 -45.80182 -12.213898z" fill-rule="nonzero"></path><path fill="#ffffff" d="m620.64044 439.17453l0 0c0 -6.7455444 20.506165 -12.213898 45.80182 -12.213898c25.295654 0 45.80182 5.4683533 45.80182 12.213898l0 48.85565c0 6.7455444 -20.506165 12.213898 -45.80182 12.213898c-25.295654 0 -45.80182 -5.4683533 -45.80182 -12.213898z" fill-rule="nonzero"></path><path fill="#000000" fill-opacity="0.0" d="m712.2441 439.17453l0 0c0 6.745575 -20.506165 12.213928 -45.80182 12.213928c-25.295654 0 -45.80182 -5.4683533 -45.80182 -12.213928" fill-rule="nonzero"></path><path fill="#000000" fill-opacity="0.0" d="m620.64044 439.17453l0 0c0 -6.7455444 20.506165 -12.213898 45.80182 -12.213898c25.295654 0 45.80182 5.4683533 45.80182 12.213898l0 48.85565c0 6.7455444 -20.506165 12.213898 -45.80182 12.213898c-25.295654 0 -45.80182 -5.4683533 -45.80182 -12.213898z" fill-rule="nonzero"></path><path stroke="#cc0000" stroke-width="4.0" stroke-linejoin="round" stroke-linecap="butt" d="m712.2441 439.17453l0 0c0 6.745575 -20.506165 12.213928 -45.80182 12.213928c-25.295654 0 -45.80182 -5.4683533 -45.80182 -12.213928" fill-rule="nonzero"></path><path stroke="#cc0000" stroke-width="4.0" stroke-linejoin="round" stroke-linecap="butt" d="m620.64044 439.17453l0 0c0 -6.7455444 20.506165 -12.213898 45.80182 -12.213898c25.295654 0 45.80182 5.4683533 45.80182 12.213898l0 48.85565c0 6.7455444 -20.506165 12.213898 -45.80182 12.213898c-25.295654 0 -45.80182 -5.4683533 -45.80182 -12.213898z" fill-rule="nonzero"></path><path fill="#ffffff" d="m610.74805 454.01447l0 0c0 -6.7455444 20.506165 -12.213898 45.80182 -12.213898c25.295654 0 45.80182 5.4683533 45.80182 12.213898l0 48.85565c0 6.7455444 -20.506165 12.213928 -45.80182 12.213928c-25.295654 0 -45.80182 -5.468384 -45.80182 -12.213928z" fill-rule="nonzero"></path><path fill="#000000" fill-opacity="0.0" d="m702.3517 454.01447l0 0c0 6.745575 -20.506165 12.213928 -45.80182 12.213928c-25.295654 0 -45.80182 -5.4683533 -45.80182 -12.213928" fill-rule="nonzero"></path><path fill="#000000" fill-opacity="0.0" d="m610.74805 454.01447l0 0c0 -6.7455444 20.506165 -12.213898 45.80182 -12.213898c25.295654 0 45.80182 5.4683533 45.80182 12.213898l0 48.85565c0 6.7455444 -20.506165 12.213928 -45.80182 12.213928c-25.295654 0 -45.80182 -5.468384 -45.80182 -12.213928z" fill-rule="nonzero"></path><path stroke="#cc0000" stroke-width="4.0" stroke-linejoin="round" stroke-linecap="butt" d="m702.3517 454.01447l0 0c0 6.745575 -20.506165 12.213928 -45.80182 12.213928c-25.295654 0 -45.80182 -5.4683533 -45.80182 -12.213928" fill-rule="nonzero"></path><path stroke="#cc0000" stroke-width="4.0" stroke-linejoin="round" stroke-linecap="butt" d="m610.74805 454.01447l0 0c0 -6.7455444 20.506165 -12.213898 45.80182 -12.213898c25.295654 0 45.80182 5.4683533 45.80182 12.213898l0 48.85565c0 6.7455444 -20.506165 12.213928 -45.80182 12.213928c-25.295654 0 -45.80182 -5.468384 -45.80182 -12.213928z" fill-rule="nonzero"></path><path fill="#cc0000" d="m634.79663 491.46924l0 -13.59375l9.171875 0l0 1.59375l-7.375 0l0 4.21875l6.375 0l0 1.609375l-6.375 0l0 6.171875l-1.796875 0zm11.395935 0l0 -13.59375l9.171875 0l0 1.59375l-7.375 0l0 4.21875l6.375 0l0 1.609375l-6.375 0l0 6.171875l-1.796875 0zm11.395996 0l0 -13.59375l9.171875 0l0 1.59375l-7.375 0l0 4.21875l6.375 0l0 1.609375l-6.375 0l0 6.171875l-1.796875 0zm11.333496 0l0 -13.59375l9.84375 0l0 1.59375l-8.046875 0l0 4.171875l7.53125 0l0 1.59375l-7.53125 0l0 4.625l8.359375 0l0 1.609375l-10.15625 0z" fill-rule="nonzero"></path><path stroke="#999999" stroke-width="1.0" stroke-linecap="butt" d="m274.77692 261.66928l0 191.98163" fill-rule="nonzero"></path><path stroke="#999999" stroke-width="1.0" stroke-linecap="butt" d="m352.9029 261.66928l0 191.98163" fill-rule="nonzero"></path><path stroke="#999999" stroke-width="1.0" stroke-linecap="butt" d="m393.0971 261.66928l0 191.98163" fill-rule="nonzero"></path><path stroke="#999999" stroke-width="1.0" stroke-linecap="butt" d="m274.27823 262.16797l119.317566 0" fill-rule="nonzero"></path><path stroke="#999999" stroke-width="1.0" stroke-linecap="butt" d="m274.27823 300.36484l119.317566 0" fill-rule="nonzero"></path><path stroke="#999999" stroke-width="1.0" stroke-linecap="butt" d="m274.27823 338.56168l119.317566 0" fill-rule="nonzero"></path><path stroke="#999999" stroke-width="1.0" stroke-linecap="butt" d="m274.27823 376.75854l119.317566 0" fill-rule="nonzero"></path><path stroke="#999999" stroke-width="1.0" stroke-linecap="butt" d="m274.27823 414.95538l119.317566 0" fill-rule="nonzero"></path><path stroke="#999999" stroke-width="1.0" stroke-linecap="butt" d="m274.27823 453.15222l119.317566 0" fill-rule="nonzero"></path><path fill="#000000" d="m296.7149 280.87173q0 -2.03125 0.40625 -3.265625q0.421875 -1.234375 1.25 -1.90625q0.828125 -0.671875 2.078125 -0.671875q0.921875 0 1.609375 0.375q0.703125 0.359375 1.15625 1.0625q0.453125 0.703125 0.703125 1.703125q0.265625 1.0 0.265625 2.703125q0 2.015625 -0.421875 3.265625q-0.40625 1.234375 -1.234375 1.921875q-0.828125 0.671875 -2.078125 0.671875q-1.65625 0 -2.609375 -1.203125q-1.125 -1.421875 -1.125 -4.65625zm1.4375 0q0 2.828125 0.65625 3.765625q0.671875 0.921875 1.640625 0.921875q0.96875 0 1.625 -0.9375q0.65625 -0.9375 0.65625 -3.75q0 -2.828125 -0.65625 -3.75q-0.65625 -0.9375 -1.640625 -0.9375q-0.96875 0 -1.546875 0.828125q-0.734375 1.046875 -0.734375 3.859375zm7.4609375 0q0 -2.03125 0.40625 -3.265625q0.421875 -1.234375 1.25 -1.90625q0.828125 -0.671875 2.078125 -0.671875q0.921875 0 1.609375 0.375q0.703125 0.359375 1.15625 1.0625q0.453125 0.703125 0.703125 1.703125q0.265625 1.0 0.265625 2.703125q0 2.015625 -0.421875 3.265625q-0.40625 1.234375 -1.234375 1.921875q-0.828125 0.671875 -2.078125 0.671875q-1.65625 0 -2.609375 -1.203125q-1.125 -1.421875 -1.125 -4.65625zm1.4375 0q0 2.828125 0.65625 3.765625q0.671875 0.921875 1.640625 0.921875q0.96875 0 1.625 -0.9375q0.65625 -0.9375 0.65625 -3.75q0 -2.828125 -0.65625 -3.75q-0.65625 -0.9375 -1.640625 -0.9375q-0.96875 0 -1.546875 0.828125q-0.734375 1.046875 -0.734375 3.859375zm7.4609375 0q0 -2.03125 0.40625 -3.265625q0.421875 -1.234375 1.25 -1.90625q0.828125 -0.671875 2.078125 -0.671875q0.921875 0 1.609375 0.375q0.703125 0.359375 1.15625 1.0625q0.453125 0.703125 0.703125 1.703125q0.265625 1.0 0.265625 2.703125q0 2.015625 -0.421875 3.265625q-0.40625 1.234375 -1.234375 1.921875q-0.828125 0.671875 -2.078125 0.671875q-1.65625 0 -2.609375 -1.203125q-1.125 -1.421875 -1.125 -4.65625zm1.4375 0q0 2.828125 0.65625 3.765625q0.671875 0.921875 1.640625 0.921875q0.96875 0 1.625 -0.9375q0.65625 -0.9375 0.65625 -3.75q0 -2.828125 -0.65625 -3.75q-0.65625 -0.9375 -1.640625 -0.9375q-0.96875 0 -1.546875 0.828125q-0.734375 1.046875 -0.734375 3.859375zm7.4609375 0q0 -2.03125 0.40625 -3.265625q0.421875 -1.234375 1.25 -1.90625q0.828125 -0.671875 2.078125 -0.671875q0.921875 0 1.609375 0.375q0.703125 0.359375 1.15625 1.0625q0.453125 0.703125 0.703125 1.703125q0.265625 1.0 0.265625 2.703125q0 2.015625 -0.421875 3.265625q-0.40625 1.234375 -1.234375 1.921875q-0.828125 0.671875 -2.078125 0.671875q-1.65625 0 -2.609375 -1.203125q-1.125 -1.421875 -1.125 -4.65625zm1.4375 0q0 2.828125 0.65625 3.765625q0.671875 0.921875 1.640625 0.921875q0.96875 0 1.625 -0.9375q0.65625 -0.9375 0.65625 -3.75q0 -2.828125 -0.65625 -3.75q-0.65625 -0.9375 -1.640625 -0.9375q-0.96875 0 -1.546875 0.828125q-0.734375 1.046875 -0.734375 3.859375z" fill-rule="nonzero"></path><path fill="#000000" d="m296.7149 319.06857q0 -2.03125 0.40625 -3.265625q0.421875 -1.234375 1.25 -1.90625q0.828125 -0.671875 2.078125 -0.671875q0.921875 0 1.609375 0.375q0.703125 0.359375 1.15625 1.0625q0.453125 0.703125 0.703125 1.703125q0.265625 1.0 0.265625 2.703125q0 2.015625 -0.421875 3.265625q-0.40625 1.234375 -1.234375 1.921875q-0.828125 0.671875 -2.078125 0.671875q-1.65625 0 -2.609375 -1.203125q-1.125 -1.421875 -1.125 -4.65625zm1.4375 0q0 2.828125 0.65625 3.765625q0.671875 0.921875 1.640625 0.921875q0.96875 0 1.625 -0.9375q0.65625 -0.9375 0.65625 -3.75q0 -2.828125 -0.65625 -3.75q-0.65625 -0.9375 -1.640625 -0.9375q-0.96875 0 -1.546875 0.828125q-0.734375 1.046875 -0.734375 3.859375zm7.4609375 0q0 -2.03125 0.40625 -3.265625q0.421875 -1.234375 1.25 -1.90625q0.828125 -0.671875 2.078125 -0.671875q0.921875 0 1.609375 0.375q0.703125 0.359375 1.15625 1.0625q0.453125 0.703125 0.703125 1.703125q0.265625 1.0 0.265625 2.703125q0 2.015625 -0.421875 3.265625q-0.40625 1.234375 -1.234375 1.921875q-0.828125 0.671875 -2.078125 0.671875q-1.65625 0 -2.609375 -1.203125q-1.125 -1.421875 -1.125 -4.65625zm1.4375 0q0 2.828125 0.65625 3.765625q0.671875 0.921875 1.640625 0.921875q0.96875 0 1.625 -0.9375q0.65625 -0.9375 0.65625 -3.75q0 -2.828125 -0.65625 -3.75q-0.65625 -0.9375 -1.640625 -0.9375q-0.96875 0 -1.546875 0.828125q-0.734375 1.046875 -0.734375 3.859375zm7.4609375 0q0 -2.03125 0.40625 -3.265625q0.421875 -1.234375 1.25 -1.90625q0.828125 -0.671875 2.078125 -0.671875q0.921875 0 1.609375 0.375q0.703125 0.359375 1.15625 1.0625q0.453125 0.703125 0.703125 1.703125q0.265625 1.0 0.265625 2.703125q0 2.015625 -0.421875 3.265625q-0.40625 1.234375 -1.234375 1.921875q-0.828125 0.671875 -2.078125 0.671875q-1.65625 0 -2.609375 -1.203125q-1.125 -1.421875 -1.125 -4.65625zm1.4375 0q0 2.828125 0.65625 3.765625q0.671875 0.921875 1.640625 0.921875q0.96875 0 1.625 -0.9375q0.65625 -0.9375 0.65625 -3.75q0 -2.828125 -0.65625 -3.75q-0.65625 -0.9375 -1.640625 -0.9375q-0.96875 0 -1.546875 0.828125q-0.734375 1.046875 -0.734375 3.859375zm12.7578125 5.65625l-1.40625 0l0 -8.96875q-0.515625 0.484375 -1.34375 0.96875q-0.8125 0.484375 -1.46875 0.734375l0 -1.359375q1.171875 -0.5625 2.046875 -1.34375q0.890625 -0.796875 1.265625 -1.53125l0.90625 0l0 11.5z" fill-rule="nonzero"></path><path fill="#000000" d="m308.62506 362.9217l0 -1.609375l1.609375 0l0 1.609375l-1.609375 0zm4.4453125 0l0 -1.609375l1.609375 0l0 1.609375l-1.609375 0zm4.4453125 0l0 -1.609375l1.609375 0l0 1.609375l-1.609375 0z" fill-rule="nonzero"></path><path fill="#000000" d="m295.1563 401.11853l0 -11.453125l7.734375 0l0 1.34375l-6.21875 0l0 3.546875l5.375 0l0 1.359375l-5.375 0l0 5.203125l-1.515625 0zm9.7734375 0l0 -11.453125l7.734375 0l0 1.34375l-6.21875 0l0 3.546875l5.375 0l0 1.359375l-5.375 0l0 5.203125l-1.515625 0zm9.7734375 0l0 -11.453125l7.734375 0l0 1.34375l-6.21875 0l0 3.546875l5.375 0l0 1.359375l-5.375 0l0 5.203125l-1.515625 0zm9.7265625 0l0 -11.453125l8.28125 0l0 1.34375l-6.765625 0l0 3.515625l6.34375 0l0 1.34375l-6.34375 0l0 3.890625l7.03125 0l0 1.359375l-8.546875 0z" fill-rule="nonzero"></path><path fill="#000000" d="m295.60553 439.31537l0 -11.453125l7.734375 0l0 1.34375l-6.21875 0l0 3.546875l5.375 0l0 1.359375l-5.375 0l0 5.203125l-1.515625 0zm9.7734375 0l0 -11.453125l7.734375 0l0 1.34375l-6.21875 0l0 3.546875l5.375 0l0 1.359375l-5.375 0l0 5.203125l-1.515625 0zm9.7734375 0l0 -11.453125l7.734375 0l0 1.34375l-6.21875 0l0 3.546875l5.375 0l0 1.359375l-5.375 0l0 5.203125l-1.515625 0zm9.7734375 0l0 -11.453125l7.734375 0l0 1.34375l-6.21875 0l0 3.546875l5.375 0l0 1.359375l-5.375 0l0 5.203125l-1.515625 0z" fill-rule="nonzero"></path><path fill="#000000" fill-opacity="0.0" d="m368.1909 281.61905l242.55118 -138.92914" fill-rule="nonzero"></path><path stroke="#999999" stroke-width="4.0" stroke-linejoin="round" stroke-linecap="butt" d="m381.34576 274.08414l208.57062 -119.46564" fill-rule="evenodd"></path><path fill="#999999" stroke="#999999" stroke-width="4.0" stroke-linecap="butt" d="m369.92633 280.62497c-1.8062134 -3.1533813 -0.7140808 -7.1739197 2.4393005 -8.980103c3.1533813 -1.8062134 7.1739197 -0.7141113 8.980103 2.43927c1.8062134 3.1533813 0.7141113 7.1739197 -2.43927 8.980133c-3.1533813 1.8062134 -7.1739197 0.7141113 -8.980133 -2.4393005z" fill-rule="nonzero"></path><path fill="#999999" stroke="#999999" stroke-width="4.0" stroke-linecap="butt" d="m593.2002 160.35158l12.467651 -14.755264l-19.035278 3.2891083z" fill-rule="evenodd"></path><path fill="#000000" fill-opacity="0.0" d="m365.34497 322.84988l245.4173 -54.173218" fill-rule="nonzero"></path><path stroke="#999999" stroke-width="4.0" stroke-linejoin="round" stroke-linecap="butt" d="m380.14862 319.58215l207.17786 -45.73227" fill-rule="evenodd"></path><path fill="#999999" stroke="#999999" stroke-width="4.0" stroke-linecap="butt" d="m367.29797 322.4188c-0.7833252 -3.548584 1.458374 -7.0603027 5.0069885 -7.843628c3.5486145 -0.7833252 7.0603333 1.458374 7.8436584 5.0069885c0.7832947 3.5486145 -1.4584045 7.0603333 -5.007019 7.8436584c-3.5486145 0.7832947 -7.0603333 -1.4584045 -7.843628 -5.007019z" fill-rule="nonzero"></path><path fill="#999999" stroke="#999999" stroke-width="4.0" stroke-linecap="butt" d="m588.7506 280.30148l16.301575 -10.364349l-19.149841 -2.5388794z" fill-rule="evenodd"></path><path fill="#000000" fill-opacity="0.0" d="m365.31235 393.37534l245.44882 85.07086" fill-rule="nonzero"></path><path stroke="#999999" stroke-width="4.0" stroke-linejoin="round" stroke-linecap="butt" d="m379.63635 398.33994l208.44818 72.246735" fill-rule="evenodd"></path><path fill="#999999" stroke="#999999" stroke-width="4.0" stroke-linecap="butt" d="m367.20206 394.0303c1.1900635 -3.4336548 4.9383545 -5.2524414 8.371979 -4.0623474c3.4336548 1.1900635 5.252411 4.9383545 4.0623474 8.371979c-1.190094 3.4336548 -4.9383545 5.252411 -8.372009 4.0623474c-3.4336243 -1.190094 -5.252411 -4.9383545 -4.062317 -8.371979z" fill-rule="nonzero"></path><path fill="#999999" stroke="#999999" stroke-width="4.0" stroke-linecap="butt" d="m585.9209 476.82925l19.315125 -0.29803467l-14.987793 -12.187195z" fill-rule="evenodd"></path><path fill="#000000" fill-opacity="0.0" d="m367.14435 431.84778l243.62207 172.5669" fill-rule="nonzero"></path><path stroke="#999999" stroke-width="4.0" stroke-linejoin="round" stroke-linecap="butt" d="m379.51526 440.61057l211.66663 149.93161" fill-rule="evenodd"></path><path fill="#999999" stroke="#999999" stroke-width="4.0" stroke-linecap="butt" d="m368.7764 433.0038c2.1005554 -2.965454 6.2073364 -3.6665955 9.172791 -1.5660706c2.965454 2.1005554 3.666626 6.207367 1.5660706 9.172821c-2.1005554 2.965454 -6.2073364 3.6665955 -9.172791 1.56604c-2.965454 -2.1005554 -3.666626 -6.2073364 -1.5660706 -9.172791z" fill-rule="nonzero"></path><path fill="#999999" stroke="#999999" stroke-width="4.0" stroke-linecap="butt" d="m587.3629 595.9336l18.631714 5.101074l-10.993835 -15.88385z" fill-rule="evenodd"></path><path fill="#000000" fill-opacity="0.0" d="m189.61942 30.934383l290.3937 0l0 89.22835l-290.3937 0z" fill-rule="nonzero"></path><path fill="#666666" d="m211.73814 98.48855l0 -45.812496l15.78125 0q5.34375 0 8.15625 0.65625q3.9375 0.90625 6.71875 3.28125q3.625 3.0625 5.421875 7.828121q1.796875 4.765625 1.796875 10.890625q0 5.21875 -1.21875 9.25q-1.21875 4.03125 -3.125 6.671875q-1.90625 2.640625 -4.171875 4.15625q-2.265625 1.515625 -5.46875 2.296875q-3.203125 0.78125 -7.359375 0.78125l-16.53125 0zm6.0625 -5.40625l9.78125 0q4.53125 0 7.109375 -0.84375q2.578125 -0.84375 4.109375 -2.375q2.15625 -2.15625 3.359375 -5.796875q1.203125 -3.640625 1.203125 -8.828125q0 -7.1875 -2.359375 -11.046875q-2.359375 -3.8593712 -5.734375 -5.171871q-2.4375 -0.9375 -7.84375 -0.9375l-9.625 0l0 34.999996zm39.468765 -33.937496l0 -6.46875l5.625 0l0 6.46875l-5.625 0zm0 39.343746l0 -33.1875l5.625 0l0 33.1875l-5.625 0zm14.125 0l0 -33.1875l5.0625 0l0 5.03125q1.9375 -3.53125 3.578125 -4.65625q1.640625 -1.125 3.609375 -1.125q2.84375 0 5.78125 1.8125l-1.9375 5.21875q-2.0625 -1.21875 -4.125 -1.21875q-1.84375 0 -3.3125 1.109375q-1.46875 1.109375 -2.09375 3.078125q-0.9375 3.0 -0.9375 6.5625l0 17.375l-5.625 0zm44.09375 -10.6875l5.8125 0.71875q-1.375 5.09375 -5.09375 7.90625q-3.71875 2.8125 -9.5 2.8125q-7.28125 0 -11.546875 -4.484375q-4.265625 -4.484375 -4.265625 -12.578125q0 -8.375 4.3125 -13.0q4.3125 -4.625 11.1875 -4.625q6.65625 0 10.875 4.53125q4.21875 4.53125 4.21875 12.75q0 0.5 -0.03125 1.5l-24.75 0q0.3125 5.46875 3.09375 8.375q2.78125 2.90625 6.9375 2.90625q3.09375 0 5.28125 -1.625q2.1875 -1.625 3.46875 -5.1875zm-18.46875 -9.09375l18.53125 0q-0.375 -4.1875 -2.125 -6.28125q-2.6875 -3.25 -6.96875 -3.25q-3.875 0 -6.515625 2.59375q-2.640625 2.59375 -2.921875 6.9375zm53.0 7.625l5.53125 0.71875q-0.90625 5.71875 -4.640625 8.953125q-3.734375 3.234375 -9.171875 3.234375q-6.8125 0 -10.953125 -4.453125q-4.140625 -4.453125 -4.140625 -12.765625q0 -5.375 1.78125 -9.40625q1.78125 -4.03125 5.421875 -6.046875q3.640625 -2.015625 7.921875 -2.015625q5.40625 0 8.84375 2.734375q3.4375 2.734375 4.40625 7.765625l-5.46875 0.84375q-0.78125 -3.34375 -2.765625 -5.03125q-1.984375 -1.6875 -4.796875 -1.6875q-4.25 0 -6.90625 3.046875q-2.65625 3.046875 -2.65625 9.640625q0 6.6875 2.5625 9.71875q2.5625 3.03125 6.6875 3.03125q3.3125 0 5.53125 -2.03125q2.21875 -2.03125 2.8125 -6.25zm22.625 7.125l0.8125 4.96875q-2.375 0.5 -4.25 0.5q-3.0625 0 -4.75 -0.96875q-1.6875 -0.96875 -2.375 -2.546875q-0.6875 -1.578125 -0.6875 -6.640625l0 -19.09375l-4.125 0l0 -4.375l4.125 0l0 -8.218746l5.59375 -3.375l0 11.593746l5.65625 0l0 4.375l-5.65625 0l0 19.40625q0 2.40625 0.296875 3.09375q0.296875 0.6875 0.96875 1.09375q0.671875 0.40625 1.921875 0.40625q0.9375 0 2.46875 -0.21875zm3.40625 -11.5625q0 -9.21875 5.125 -13.65625q4.28125 -3.6875 10.4375 -3.6875q6.84375 0 11.1875 4.484375q4.34375 4.484375 4.34375 12.390625q0 6.40625 -1.921875 10.078125q-1.921875 3.671875 -5.59375 5.703125q-3.671875 2.03125 -8.015625 2.03125q-6.96875 0 -11.265625 -4.46875q-4.296875 -4.46875 -4.296875 -12.875zm5.78125 0q0 6.375 2.78125 9.546875q2.78125 3.171875 7.0 3.171875q4.1875 0 6.96875 -3.1875q2.78125 -3.1875 2.78125 -9.71875q0 -6.15625 -2.796875 -9.328125q-2.796875 -3.171875 -6.953125 -3.171875q-4.21875 0 -7.0 3.15625q-2.78125 3.15625 -2.78125 9.53125zm31.84375 16.59375l0 -33.1875l5.0625 0l0 5.03125q1.9375 -3.53125 3.578125 -4.65625q1.640625 -1.125 3.609375 -1.125q2.84375 0 5.78125 1.8125l-1.9375 5.21875q-2.0625 -1.21875 -4.125 -1.21875q-1.84375 0 -3.3125 1.109375q-1.46875 1.109375 -2.09375 3.078125q-0.9375 3.0 -0.9375 6.5625l0 17.375l-5.625 0zm21.125 12.78125l-0.625 -5.28125q1.84375 0.5 3.21875 0.5q1.875 0 3.0 -0.625q1.125 -0.625 1.84375 -1.75q0.53125 -0.84375 1.71875 -4.1875q0.15625 -0.46875 0.5 -1.375l-12.59375 -33.25l6.0625 0l6.90625 19.21875q1.3437195 3.65625 2.4062195 7.6875q0.96875 -3.875 2.3125 -7.5625l7.09375 -19.34375l5.625 0l-12.625 33.75q-2.03125 5.46875 -3.15625 7.53125q-1.4999695 2.78125 -3.4374695 4.078125q-1.9375 1.296875 -4.625 1.296875q-1.625 0 -3.625 -0.6875z" fill-rule="nonzero"></path><path fill="#ffffff" d="m192.48819 322.77823l0 0c0 -6.745575 20.50618 -12.213928 45.801834 -12.213928c25.29567 0 45.801834 5.4683533 45.801834 12.213928l0 48.85562c0 6.745575 -20.506165 12.213928 -45.801834 12.213928c-25.295654 0 -45.801834 -5.4683533 -45.801834 -12.213928z" fill-rule="nonzero"></path><path fill="#000000" fill-opacity="0.0" d="m284.09186 322.77823l0 0c0 6.7455444 -20.506165 12.213898 -45.801834 12.213898c-25.295654 0 -45.801834 -5.4683533 -45.801834 -12.213898" fill-rule="nonzero"></path><path fill="#000000" fill-opacity="0.0" d="m192.48819 322.77823l0 0c0 -6.745575 20.50618 -12.213928 45.801834 -12.213928c25.29567 0 45.801834 5.4683533 45.801834 12.213928l0 48.85562c0 6.745575 -20.506165 12.213928 -45.801834 12.213928c-25.295654 0 -45.801834 -5.4683533 -45.801834 -12.213928z" fill-rule="nonzero"></path><path stroke="#cc0000" stroke-width="4.0" stroke-linejoin="round" stroke-linecap="butt" d="m284.09186 322.77823l0 0c0 6.7455444 -20.506165 12.213898 -45.801834 12.213898c-25.295654 0 -45.801834 -5.4683533 -45.801834 -12.213898" fill-rule="nonzero"></path><path stroke="#cc0000" stroke-width="4.0" stroke-linejoin="round" stroke-linecap="butt" d="m192.48819 322.77823l0 0c0 -6.745575 20.50618 -12.213928 45.801834 -12.213928c25.29567 0 45.801834 5.4683533 45.801834 12.213928l0 48.85562c0 6.745575 -20.506165 12.213928 -45.801834 12.213928c-25.295654 0 -45.801834 -5.4683533 -45.801834 -12.213928z" fill-rule="nonzero"></path><path fill="#ffffff" d="m184.48819 338.77823l0 0c0 -6.745575 20.50618 -12.213928 45.801834 -12.213928c25.295654 0 45.801834 5.4683533 45.801834 12.213928l0 48.85562c0 6.745575 -20.50618 12.213928 -45.801834 12.213928c-25.295654 0 -45.801834 -5.4683533 -45.801834 -12.213928z" fill-rule="nonzero"></path><path fill="#000000" fill-opacity="0.0" d="m276.09186 338.77823l0 0c0 6.7455444 -20.50618 12.213898 -45.801834 12.213898c-25.295654 0 -45.801834 -5.4683533 -45.801834 -12.213898" fill-rule="nonzero"></path><path fill="#000000" fill-opacity="0.0" d="m184.48819 338.77823l0 0c0 -6.745575 20.50618 -12.213928 45.801834 -12.213928c25.295654 0 45.801834 5.4683533 45.801834 12.213928l0 48.85562c0 6.745575 -20.50618 12.213928 -45.801834 12.213928c-25.295654 0 -45.801834 -5.4683533 -45.801834 -12.213928z" fill-rule="nonzero"></path><path stroke="#cc0000" stroke-width="4.0" stroke-linejoin="round" stroke-linecap="butt" d="m276.09186 338.77823l0 0c0 6.7455444 -20.50618 12.213898 -45.801834 12.213898c-25.295654 0 -45.801834 -5.4683533 -45.801834 -12.213898" fill-rule="nonzero"></path><path stroke="#cc0000" stroke-width="4.0" stroke-linejoin="round" stroke-linecap="butt" d="m184.48819 338.77823l0 0c0 -6.745575 20.50618 -12.213928 45.801834 -12.213928c25.295654 0 45.801834 5.4683533 45.801834 12.213928l0 48.85562c0 6.745575 -20.50618 12.213928 -45.801834 12.213928c-25.295654 0 -45.801834 -5.4683533 -45.801834 -12.213928z" fill-rule="nonzero"></path><path fill="#ffffff" d="m174.5958 353.61816l0 0c0 -6.745575 20.50618 -12.213928 45.80185 -12.213928c25.295654 0 45.80182 5.4683533 45.80182 12.213928l0 48.85562c0 6.745575 -20.506165 12.213928 -45.80182 12.213928c-25.29567 0 -45.80185 -5.4683533 -45.80185 -12.213928z" fill-rule="nonzero"></path><path fill="#000000" fill-opacity="0.0" d="m266.19946 353.61816l0 0c0 6.7455444 -20.506165 12.213898 -45.80182 12.213898c-25.29567 0 -45.80185 -5.4683533 -45.80185 -12.213898" fill-rule="nonzero"></path><path fill="#000000" fill-opacity="0.0" d="m174.5958 353.61816l0 0c0 -6.745575 20.50618 -12.213928 45.80185 -12.213928c25.295654 0 45.80182 5.4683533 45.80182 12.213928l0 48.85562c0 6.745575 -20.506165 12.213928 -45.80182 12.213928c-25.29567 0 -45.80185 -5.4683533 -45.80185 -12.213928z" fill-rule="nonzero"></path><path stroke="#cc0000" stroke-width="4.0" stroke-linejoin="round" stroke-linecap="butt" d="m266.19946 353.61816l0 0c0 6.7455444 -20.506165 12.213898 -45.80182 12.213898c-25.29567 0 -45.80185 -5.4683533 -45.80185 -12.213898" fill-rule="nonzero"></path><path stroke="#cc0000" stroke-width="4.0" stroke-linejoin="round" stroke-linecap="butt" d="m174.5958 353.61816l0 0c0 -6.745575 20.50618 -12.213928 45.80185 -12.213928c25.295654 0 45.80182 5.4683533 45.80182 12.213928l0 48.85562c0 6.745575 -20.506165 12.213928 -45.80182 12.213928c-25.29567 0 -45.80185 -5.4683533 -45.80185 -12.213928z" fill-rule="nonzero"></path><path fill="#cc0000" d="m195.72202 391.07294l0 -9.859375l1.5 0l0 1.390625q0.453125 -0.71875 1.21875 -1.15625q0.78125 -0.453125 1.765625 -0.453125q1.09375 0 1.796875 0.453125q0.703125 0.453125 0.984375 1.28125q1.171875 -1.734375 3.046875 -1.734375q1.46875 0 2.25 0.8125q0.796875 0.8125 0.796875 2.5l0 6.765625l-1.671875 0l0 -6.203125q0 -1.0 -0.15625 -1.4375q-0.15625 -0.453125 -0.59375 -0.71875q-0.421875 -0.265625 -1.0 -0.265625q-1.03125 0 -1.71875 0.6875q-0.6875 0.6875 -0.6875 2.21875l0 5.71875l-1.671875 0l0 -6.40625q0 -1.109375 -0.40625 -1.65625q-0.40625 -0.5625 -1.34375 -0.5625q-0.703125 0 -1.3125 0.375q-0.59375 0.359375 -0.859375 1.078125q-0.265625 0.71875 -0.265625 2.0625l0 5.109375l-1.671875 0zm22.290802 -3.171875l1.71875 0.21875q-0.40625 1.5 -1.515625 2.34375q-1.09375 0.828125 -2.8125 0.828125q-2.15625 0 -3.421875 -1.328125q-1.265625 -1.328125 -1.265625 -3.734375q0 -2.484375 1.265625 -3.859375q1.28125 -1.375 3.328125 -1.375q1.984375 0 3.234375 1.34375q1.25 1.34375 1.25 3.796875q0 0.140625 -0.015625 0.4375l-7.34375 0q0.09375 1.625 0.921875 2.484375q0.828125 0.859375 2.0625 0.859375q0.90625 0 1.546875 -0.46875q0.65625 -0.484375 1.046875 -1.546875zm-5.484375 -2.703125l5.5 0q-0.109375 -1.234375 -0.625 -1.859375q-0.796875 -0.96875 -2.078125 -0.96875q-1.140625 0 -1.9375 0.78125q-0.78125 0.765625 -0.859375 2.046875zm12.766342 4.375l0.234375 1.484375q-0.703125 0.140625 -1.265625 0.140625q-0.90625 0 -1.40625 -0.28125q-0.5 -0.296875 -0.703125 -0.75q-0.203125 -0.46875 -0.203125 -1.984375l0 -5.65625l-1.234375 0l0 -1.3125l1.234375 0l0 -2.4375l1.65625 -1.0l0 3.4375l1.6875 0l0 1.3125l-1.6875 0l0 5.75q0 0.71875 0.078125 0.921875q0.09375 0.203125 0.296875 0.328125q0.203125 0.125 0.578125 0.125q0.265625 0 0.734375 -0.078125zm7.964554 0.28125q-0.9375 0.796875 -1.796875 1.125q-0.859375 0.3125 -1.84375 0.3125q-1.609375 0 -2.484375 -0.78125q-0.875 -0.796875 -0.875 -2.03125q0 -0.734375 0.328125 -1.328125q0.328125 -0.59375 0.859375 -0.953125q0.53125 -0.359375 1.203125 -0.546875q0.5 -0.140625 1.484375 -0.25q2.03125 -0.25 2.984375 -0.578125q0 -0.34375 0 -0.4375q0 -1.015625 -0.46875 -1.4375q-0.640625 -0.5625 -1.90625 -0.5625q-1.171875 0 -1.734375 0.40625q-0.5625 0.40625 -0.828125 1.46875l-1.640625 -0.234375q0.234375 -1.046875 0.734375 -1.6875q0.515625 -0.640625 1.46875 -0.984375q0.96875 -0.359375 2.25 -0.359375q1.265625 0 2.046875 0.296875q0.78125 0.296875 1.15625 0.75q0.375 0.453125 0.515625 1.140625q0.09375 0.421875 0.09375 1.53125l0 2.234375q0 2.328125 0.09375 2.953125q0.109375 0.609375 0.4375 1.171875l-1.75 0q-0.265625 -0.515625 -0.328125 -1.21875zm-0.140625 -3.71875q-0.90625 0.359375 -2.734375 0.625q-1.03125 0.140625 -1.453125 0.328125q-0.421875 0.1875 -0.65625 0.546875q-0.234375 0.359375 -0.234375 0.796875q0 0.671875 0.5 1.125q0.515625 0.4375 1.484375 0.4375q0.96875 0 1.71875 -0.421875q0.75 -0.4375 1.109375 -1.15625q0.265625 -0.578125 0.265625 -1.671875l0 -0.609375zm3.6100922 -1.765625q0 -2.421875 0.5 -3.890625q0.5 -1.46875 1.4687347 -2.265625q0.984375 -0.796875 2.46875 -0.796875q1.09375 0 1.921875 0.4375q0.828125 0.4375 1.359375 1.28125q0.546875 0.828125 0.84375 2.015625q0.3125 1.1875 0.3125 3.21875q0 2.390625 -0.5 3.859375q-0.484375 1.46875 -1.46875 2.28125q-0.96875 0.796875 -2.46875 0.796875q-1.96875 0 -3.0781097 -1.40625q-1.359375 -1.703125 -1.359375 -5.53125zm1.71875 0q0 3.34375 0.78123474 4.453125q0.796875 1.109375 1.9375 1.109375q1.15625 0 1.9375 -1.109375q0.78125 -1.125 0.78125 -4.453125q0 -3.359375 -0.78125 -4.46875q-0.78125 -1.109375 -1.953125 -1.109375q-1.15625 0 -1.828125 0.984375q-0.87498474 1.234375 -0.87498474 4.59375z" fill-rule="nonzero"></path></g></svg>

