<?xml version="1.0" standalone="yes"?>

<svg version="1.1" viewBox="0.0 0.0 574.4409448818898 407.0236220472441" fill="none" stroke="none" stroke-linecap="square" stroke-miterlimit="10" xmlns="http://www.w3.org/2000/svg" xmlns:xlink="http://www.w3.org/1999/xlink"><clipPath id="p.0"><path d="m0 0l574.4409 0l0 407.02362l-574.4409 0l0 -407.02362z" clip-rule="nonzero"></path></clipPath><g clip-path="url(#p.0)"><path fill="#000000" fill-opacity="0.0" d="m0 0l574.4409 0l0 407.02362l-574.4409 0z" fill-rule="nonzero"></path><path fill="#000000" fill-opacity="0.0" d="m9.753281 8.128609l186.99213 0l0 299.59055l-186.99213 0z" fill-rule="nonzero"></path><path stroke="#666666" stroke-width="3.0" stroke-linejoin="round" stroke-linecap="butt" stroke-dasharray="3.0,9.0" d="m9.753281 8.128609l186.99213 0l0 299.59055l-186.99213 0z" fill-rule="nonzero"></path><path fill="#000000" fill-opacity="0.0" d="m9.753281 8.128609l110.48819 0l0 37.228348l-110.48819 0z" fill-rule="nonzero"></path><path fill="#666666" d="m31.466125 29.259657l-5.34375 0l0 9.203127l-3.015625 0l0 -22.750002l7.53125 0q3.84375 0 5.90625 1.75q2.078125 1.75 2.078125 5.09375q0 2.125 -1.15625 3.703125q-1.140625 1.578125 -3.1875 2.359375l5.34375 9.656252l0 0.1875l-3.21875 0l-4.9375 -9.203127zm-5.34375 -2.453125l4.609375 0q2.234375 0 3.546875 -1.15625q1.328125 -1.15625 1.328125 -3.09375q0 -2.109375 -1.265625 -3.234375q-1.25 -1.125 -3.625 -1.140625l-4.59375 0l0 8.625zm29.265625 5.718752l-9.53125 0l-2.140625 5.9375l-3.09375 0l8.6875 -22.750002l2.625 0l8.703125 22.750002l-3.078125 0l-2.171875 -5.9375zm-8.625 -2.468752l7.734375 0l-3.875 -10.640625l-3.859375 10.640625zm21.84375 1.234375l0.4375 3.000002l0.640625 -2.703127l4.5 -15.875l2.53125 0l4.390625 15.875l0.625 2.750002l0.484375 -3.062502l3.53125 -15.5625l3.015625 0l-5.515625 22.750002l-2.734375 0l-4.6875 -16.578127l-0.359375 -1.734375l-0.359375 1.734375l-4.859375 16.578127l-2.734375 0l-5.5 -22.750002l3.0 0l3.59375 15.578125zm30.90625 -6.859375l5.453125 -8.71875l3.53125 0l-7.1875 11.28125l7.359375 11.468752l-3.5625 0l-5.59375 -8.875002l-5.625 8.875002l-3.546875 0l7.375 -11.468752l-7.203125 -11.28125l3.515625 0l5.484375 8.71875z" fill-rule="nonzero"></path><path fill="#ffffff" d="m22.177824 215.61787l0 0c0 -3.4283447 7.6586285 -6.2075653 17.106028 -6.2075653c9.447399 0 17.10603 2.7792206 17.10603 6.2075653l0 24.830276c0 3.4283447 -7.6586304 6.2075653 -17.10603 6.2075653c-9.447399 0 -17.106028 -2.7792206 -17.106028 -6.2075653z" fill-rule="nonzero"></path><path fill="#000000" fill-opacity="0.0" d="m56.38988 215.61787l0 0c0 3.4283447 -7.6586304 6.2075653 -17.10603 6.2075653c-9.447399 0 -17.106028 -2.7792206 -17.106028 -6.2075653" fill-rule="nonzero"></path><path fill="#000000" fill-opacity="0.0" d="m22.177824 215.61787l0 0c0 -3.4283447 7.6586285 -6.2075653 17.106028 -6.2075653c9.447399 0 17.10603 2.7792206 17.10603 6.2075653l0 24.830276c0 3.4283447 -7.6586304 6.2075653 -17.10603 6.2075653c-9.447399 0 -17.106028 -2.7792206 -17.106028 -6.2075653z" fill-rule="nonzero"></path><path stroke="#660000" stroke-width="4.0" stroke-linejoin="round" stroke-linecap="butt" d="m56.38988 215.61787l0 0c0 3.4283447 -7.6586304 6.2075653 -17.10603 6.2075653c-9.447399 0 -17.106028 -2.7792206 -17.106028 -6.2075653" fill-rule="nonzero"></path><path stroke="#660000" stroke-width="4.0" stroke-linejoin="round" stroke-linecap="butt" d="m22.177824 215.61787l0 0c0 -3.4283447 7.6586285 -6.2075653 17.106028 -6.2075653c9.447399 0 17.10603 2.7792206 17.10603 6.2075653l0 24.830276c0 3.4283447 -7.6586304 6.2075653 -17.10603 6.2075653c-9.447399 0 -17.106028 -2.7792206 -17.106028 -6.2075653z" fill-rule="nonzero"></path><path fill="#ffffff" d="m63.18668 215.61787l0 0c0 -3.4283447 7.6586266 -6.2075653 17.10603 -6.2075653c9.447395 0 17.106026 2.7792206 17.106026 6.2075653l0 24.830276c0 3.4283447 -7.6586304 6.2075653 -17.106026 6.2075653c-9.447403 0 -17.10603 -2.7792206 -17.10603 -6.2075653z" fill-rule="nonzero"></path><path fill="#000000" fill-opacity="0.0" d="m97.398735 215.61787l0 0c0 3.4283447 -7.6586304 6.2075653 -17.106026 6.2075653c-9.447403 0 -17.10603 -2.7792206 -17.10603 -6.2075653" fill-rule="nonzero"></path><path fill="#000000" fill-opacity="0.0" d="m63.18668 215.61787l0 0c0 -3.4283447 7.6586266 -6.2075653 17.10603 -6.2075653c9.447395 0 17.106026 2.7792206 17.106026 6.2075653l0 24.830276c0 3.4283447 -7.6586304 6.2075653 -17.106026 6.2075653c-9.447403 0 -17.10603 -2.7792206 -17.10603 -6.2075653z" fill-rule="nonzero"></path><path stroke="#660000" stroke-width="4.0" stroke-linejoin="round" stroke-linecap="butt" d="m97.398735 215.61787l0 0c0 3.4283447 -7.6586304 6.2075653 -17.106026 6.2075653c-9.447403 0 -17.10603 -2.7792206 -17.10603 -6.2075653" fill-rule="nonzero"></path><path stroke="#660000" stroke-width="4.0" stroke-linejoin="round" stroke-linecap="butt" d="m63.18668 215.61787l0 0c0 -3.4283447 7.6586266 -6.2075653 17.10603 -6.2075653c9.447395 0 17.106026 2.7792206 17.106026 6.2075653l0 24.830276c0 3.4283447 -7.6586304 6.2075653 -17.106026 6.2075653c-9.447403 0 -17.10603 -2.7792206 -17.10603 -6.2075653z" fill-rule="nonzero"></path><path fill="#ffffff" d="m104.19553 215.61787l0 0c0 -3.4283447 7.6586304 -6.2075653 17.106033 -6.2075653c9.447395 0 17.106026 2.7792206 17.106026 6.2075653l0 24.830276c0 3.4283447 -7.6586304 6.2075653 -17.106026 6.2075653c-9.447403 0 -17.106033 -2.7792206 -17.106033 -6.2075653z" fill-rule="nonzero"></path><path fill="#000000" fill-opacity="0.0" d="m138.4076 215.61787l0 0c0 3.4283447 -7.6586304 6.2075653 -17.106026 6.2075653c-9.447403 0 -17.106033 -2.7792206 -17.106033 -6.2075653" fill-rule="nonzero"></path><path fill="#000000" fill-opacity="0.0" d="m104.19553 215.61787l0 0c0 -3.4283447 7.6586304 -6.2075653 17.106033 -6.2075653c9.447395 0 17.106026 2.7792206 17.106026 6.2075653l0 24.830276c0 3.4283447 -7.6586304 6.2075653 -17.106026 6.2075653c-9.447403 0 -17.106033 -2.7792206 -17.106033 -6.2075653z" fill-rule="nonzero"></path><path stroke="#660000" stroke-width="4.0" stroke-linejoin="round" stroke-linecap="butt" d="m138.4076 215.61787l0 0c0 3.4283447 -7.6586304 6.2075653 -17.106026 6.2075653c-9.447403 0 -17.106033 -2.7792206 -17.106033 -6.2075653" fill-rule="nonzero"></path><path stroke="#660000" stroke-width="4.0" stroke-linejoin="round" stroke-linecap="butt" d="m104.19553 215.61787l0 0c0 -3.4283447 7.6586304 -6.2075653 17.106033 -6.2075653c9.447395 0 17.106026 2.7792206 17.106026 6.2075653l0 24.830276c0 3.4283447 -7.6586304 6.2075653 -17.106026 6.2075653c-9.447403 0 -17.106033 -2.7792206 -17.106033 -6.2075653z" fill-rule="nonzero"></path><path fill="#ffffff" d="m145.20439 215.61787l0 0c0 -3.4283447 7.6586304 -6.2075653 17.106033 -6.2075653c9.447388 0 17.106018 2.7792206 17.106018 6.2075653l0 24.830276c0 3.4283447 -7.6586304 6.2075653 -17.106018 6.2075653c-9.447403 0 -17.106033 -2.7792206 -17.106033 -6.2075653z" fill-rule="nonzero"></path><path fill="#000000" fill-opacity="0.0" d="m179.41644 215.61787l0 0c0 3.4283447 -7.6586304 6.2075653 -17.106018 6.2075653c-9.447403 0 -17.106033 -2.7792206 -17.106033 -6.2075653" fill-rule="nonzero"></path><path fill="#000000" fill-opacity="0.0" d="m145.20439 215.61787l0 0c0 -3.4283447 7.6586304 -6.2075653 17.106033 -6.2075653c9.447388 0 17.106018 2.7792206 17.106018 6.2075653l0 24.830276c0 3.4283447 -7.6586304 6.2075653 -17.106018 6.2075653c-9.447403 0 -17.106033 -2.7792206 -17.106033 -6.2075653z" fill-rule="nonzero"></path><path stroke="#660000" stroke-width="4.0" stroke-linejoin="round" stroke-linecap="butt" d="m179.41644 215.61787l0 0c0 3.4283447 -7.6586304 6.2075653 -17.106018 6.2075653c-9.447403 0 -17.106033 -2.7792206 -17.106033 -6.2075653" fill-rule="nonzero"></path><path stroke="#660000" stroke-width="4.0" stroke-linejoin="round" stroke-linecap="butt" d="m145.20439 215.61787l0 0c0 -3.4283447 7.6586304 -6.2075653 17.106033 -6.2075653c9.447388 0 17.106018 2.7792206 17.106018 6.2075653l0 24.830276c0 3.4283447 -7.6586304 6.2075653 -17.106018 6.2075653c-9.447403 0 -17.106033 -2.7792206 -17.106033 -6.2075653z" fill-rule="nonzero"></path><path fill="#ffffff" d="m21.935663 170.08838l0 0c0 -3.4283447 7.6586304 -6.2075653 17.106028 -6.2075653c9.447399 0 17.10603 2.7792206 17.10603 6.2075653l0 24.830261c0 3.4283447 -7.6586304 6.2075653 -17.10603 6.2075653c-9.447397 0 -17.106028 -2.7792206 -17.106028 -6.2075653z" fill-rule="nonzero"></path><path fill="#000000" fill-opacity="0.0" d="m56.14772 170.08838l0 0c0 3.4283447 -7.6586304 6.2075653 -17.10603 6.2075653c-9.447397 0 -17.106028 -2.7792206 -17.106028 -6.2075653" fill-rule="nonzero"></path><path fill="#000000" fill-opacity="0.0" d="m21.935663 170.08838l0 0c0 -3.4283447 7.6586304 -6.2075653 17.106028 -6.2075653c9.447399 0 17.10603 2.7792206 17.10603 6.2075653l0 24.830261c0 3.4283447 -7.6586304 6.2075653 -17.10603 6.2075653c-9.447397 0 -17.106028 -2.7792206 -17.106028 -6.2075653z" fill-rule="nonzero"></path><path stroke="#660000" stroke-width="4.0" stroke-linejoin="round" stroke-linecap="butt" d="m56.14772 170.08838l0 0c0 3.4283447 -7.6586304 6.2075653 -17.10603 6.2075653c-9.447397 0 -17.106028 -2.7792206 -17.106028 -6.2075653" fill-rule="nonzero"></path><path stroke="#660000" stroke-width="4.0" stroke-linejoin="round" stroke-linecap="butt" d="m21.935663 170.08838l0 0c0 -3.4283447 7.6586304 -6.2075653 17.106028 -6.2075653c9.447399 0 17.10603 2.7792206 17.10603 6.2075653l0 24.830261c0 3.4283447 -7.6586304 6.2075653 -17.10603 6.2075653c-9.447397 0 -17.106028 -2.7792206 -17.106028 -6.2075653z" fill-rule="nonzero"></path><path fill="#ffffff" d="m62.94452 170.08838l0 0c0 -3.4283447 7.6586304 -6.2075653 17.106026 -6.2075653c9.447403 0 17.106033 2.7792206 17.106033 6.2075653l0 24.830261c0 3.4283447 -7.6586304 6.2075653 -17.106033 6.2075653c-9.447395 0 -17.106026 -2.7792206 -17.106026 -6.2075653z" fill-rule="nonzero"></path><path fill="#000000" fill-opacity="0.0" d="m97.15658 170.08838l0 0c0 3.4283447 -7.6586304 6.2075653 -17.106033 6.2075653c-9.447395 0 -17.106026 -2.7792206 -17.106026 -6.2075653" fill-rule="nonzero"></path><path fill="#000000" fill-opacity="0.0" d="m62.94452 170.08838l0 0c0 -3.4283447 7.6586304 -6.2075653 17.106026 -6.2075653c9.447403 0 17.106033 2.7792206 17.106033 6.2075653l0 24.830261c0 3.4283447 -7.6586304 6.2075653 -17.106033 6.2075653c-9.447395 0 -17.106026 -2.7792206 -17.106026 -6.2075653z" fill-rule="nonzero"></path><path stroke="#660000" stroke-width="4.0" stroke-linejoin="round" stroke-linecap="butt" d="m97.15658 170.08838l0 0c0 3.4283447 -7.6586304 6.2075653 -17.106033 6.2075653c-9.447395 0 -17.106026 -2.7792206 -17.106026 -6.2075653" fill-rule="nonzero"></path><path stroke="#660000" stroke-width="4.0" stroke-linejoin="round" stroke-linecap="butt" d="m62.94452 170.08838l0 0c0 -3.4283447 7.6586304 -6.2075653 17.106026 -6.2075653c9.447403 0 17.106033 2.7792206 17.106033 6.2075653l0 24.830261c0 3.4283447 -7.6586304 6.2075653 -17.106033 6.2075653c-9.447395 0 -17.106026 -2.7792206 -17.106026 -6.2075653z" fill-rule="nonzero"></path><path fill="#ffffff" d="m103.95338 170.08838l0 0c0 -3.4283447 7.6586304 -6.2075653 17.106026 -6.2075653c9.447403 0 17.106033 2.7792206 17.106033 6.2075653l0 24.830261c0 3.4283447 -7.6586304 6.2075653 -17.106033 6.2075653c-9.447395 0 -17.106026 -2.7792206 -17.106026 -6.2075653z" fill-rule="nonzero"></path><path fill="#000000" fill-opacity="0.0" d="m138.16544 170.08838l0 0c0 3.4283447 -7.6586304 6.2075653 -17.106033 6.2075653c-9.447395 0 -17.106026 -2.7792206 -17.106026 -6.2075653" fill-rule="nonzero"></path><path fill="#000000" fill-opacity="0.0" d="m103.95338 170.08838l0 0c0 -3.4283447 7.6586304 -6.2075653 17.106026 -6.2075653c9.447403 0 17.106033 2.7792206 17.106033 6.2075653l0 24.830261c0 3.4283447 -7.6586304 6.2075653 -17.106033 6.2075653c-9.447395 0 -17.106026 -2.7792206 -17.106026 -6.2075653z" fill-rule="nonzero"></path><path stroke="#660000" stroke-width="4.0" stroke-linejoin="round" stroke-linecap="butt" d="m138.16544 170.08838l0 0c0 3.4283447 -7.6586304 6.2075653 -17.106033 6.2075653c-9.447395 0 -17.106026 -2.7792206 -17.106026 -6.2075653" fill-rule="nonzero"></path><path stroke="#660000" stroke-width="4.0" stroke-linejoin="round" stroke-linecap="butt" d="m103.95338 170.08838l0 0c0 -3.4283447 7.6586304 -6.2075653 17.106026 -6.2075653c9.447403 0 17.106033 2.7792206 17.106033 6.2075653l0 24.830261c0 3.4283447 -7.6586304 6.2075653 -17.106033 6.2075653c-9.447395 0 -17.106026 -2.7792206 -17.106026 -6.2075653z" fill-rule="nonzero"></path><path fill="#ffffff" d="m144.96223 170.08838l0 0c0 -3.4283447 7.6586304 -6.2075653 17.106018 -6.2075653c9.447403 0 17.106033 2.7792206 17.106033 6.2075653l0 24.830261c0 3.4283447 -7.6586304 6.2075653 -17.106033 6.2075653c-9.447388 0 -17.106018 -2.7792206 -17.106018 -6.2075653z" fill-rule="nonzero"></path><path fill="#000000" fill-opacity="0.0" d="m179.17429 170.08838l0 0c0 3.4283447 -7.6586304 6.2075653 -17.106033 6.2075653c-9.447388 0 -17.106018 -2.7792206 -17.106018 -6.2075653" fill-rule="nonzero"></path><path fill="#000000" fill-opacity="0.0" d="m144.96223 170.08838l0 0c0 -3.4283447 7.6586304 -6.2075653 17.106018 -6.2075653c9.447403 0 17.106033 2.7792206 17.106033 6.2075653l0 24.830261c0 3.4283447 -7.6586304 6.2075653 -17.106033 6.2075653c-9.447388 0 -17.106018 -2.7792206 -17.106018 -6.2075653z" fill-rule="nonzero"></path><path stroke="#660000" stroke-width="4.0" stroke-linejoin="round" stroke-linecap="butt" d="m179.17429 170.08838l0 0c0 3.4283447 -7.6586304 6.2075653 -17.106033 6.2075653c-9.447388 0 -17.106018 -2.7792206 -17.106018 -6.2075653" fill-rule="nonzero"></path><path stroke="#660000" stroke-width="4.0" stroke-linejoin="round" stroke-linecap="butt" d="m144.96223 170.08838l0 0c0 -3.4283447 7.6586304 -6.2075653 17.106018 -6.2075653c9.447403 0 17.106033 2.7792206 17.106033 6.2075653l0 24.830261c0 3.4283447 -7.6586304 6.2075653 -17.106033 6.2075653c-9.447388 0 -17.106018 -2.7792206 -17.106018 -6.2075653z" fill-rule="nonzero"></path><path fill="#ffffff" d="m21.935663 124.558876l0 0c0 -3.4283447 7.6586304 -6.2075653 17.106028 -6.2075653c9.447399 0 17.10603 2.7792206 17.10603 6.2075653l0 24.830269c0 3.4283447 -7.6586304 6.2075653 -17.10603 6.2075653c-9.447397 0 -17.106028 -2.7792206 -17.106028 -6.2075653z" fill-rule="nonzero"></path><path fill="#000000" fill-opacity="0.0" d="m56.14772 124.558876l0 0c0 3.4283447 -7.6586304 6.2075577 -17.10603 6.2075577c-9.447397 0 -17.106028 -2.779213 -17.106028 -6.2075577" fill-rule="nonzero"></path><path fill="#000000" fill-opacity="0.0" d="m21.935663 124.558876l0 0c0 -3.4283447 7.6586304 -6.2075653 17.106028 -6.2075653c9.447399 0 17.10603 2.7792206 17.10603 6.2075653l0 24.830269c0 3.4283447 -7.6586304 6.2075653 -17.10603 6.2075653c-9.447397 0 -17.106028 -2.7792206 -17.106028 -6.2075653z" fill-rule="nonzero"></path><path stroke="#660000" stroke-width="4.0" stroke-linejoin="round" stroke-linecap="butt" d="m56.14772 124.558876l0 0c0 3.4283447 -7.6586304 6.2075577 -17.10603 6.2075577c-9.447397 0 -17.106028 -2.779213 -17.106028 -6.2075577" fill-rule="nonzero"></path><path stroke="#660000" stroke-width="4.0" stroke-linejoin="round" stroke-linecap="butt" d="m21.935663 124.558876l0 0c0 -3.4283447 7.6586304 -6.2075653 17.106028 -6.2075653c9.447399 0 17.10603 2.7792206 17.10603 6.2075653l0 24.830269c0 3.4283447 -7.6586304 6.2075653 -17.10603 6.2075653c-9.447397 0 -17.106028 -2.7792206 -17.106028 -6.2075653z" fill-rule="nonzero"></path><path fill="#ffffff" d="m62.94452 124.558876l0 0c0 -3.4283447 7.6586304 -6.2075653 17.106026 -6.2075653c9.447403 0 17.106033 2.7792206 17.106033 6.2075653l0 24.830269c0 3.4283447 -7.6586304 6.2075653 -17.106033 6.2075653c-9.447395 0 -17.106026 -2.7792206 -17.106026 -6.2075653z" fill-rule="nonzero"></path><path fill="#000000" fill-opacity="0.0" d="m97.15658 124.558876l0 0c0 3.4283447 -7.6586304 6.2075577 -17.106033 6.2075577c-9.447395 0 -17.106026 -2.779213 -17.106026 -6.2075577" fill-rule="nonzero"></path><path fill="#000000" fill-opacity="0.0" d="m62.94452 124.558876l0 0c0 -3.4283447 7.6586304 -6.2075653 17.106026 -6.2075653c9.447403 0 17.106033 2.7792206 17.106033 6.2075653l0 24.830269c0 3.4283447 -7.6586304 6.2075653 -17.106033 6.2075653c-9.447395 0 -17.106026 -2.7792206 -17.106026 -6.2075653z" fill-rule="nonzero"></path><path stroke="#660000" stroke-width="4.0" stroke-linejoin="round" stroke-linecap="butt" d="m97.15658 124.558876l0 0c0 3.4283447 -7.6586304 6.2075577 -17.106033 6.2075577c-9.447395 0 -17.106026 -2.779213 -17.106026 -6.2075577" fill-rule="nonzero"></path><path stroke="#660000" stroke-width="4.0" stroke-linejoin="round" stroke-linecap="butt" d="m62.94452 124.558876l0 0c0 -3.4283447 7.6586304 -6.2075653 17.106026 -6.2075653c9.447403 0 17.106033 2.7792206 17.106033 6.2075653l0 24.830269c0 3.4283447 -7.6586304 6.2075653 -17.106033 6.2075653c-9.447395 0 -17.106026 -2.7792206 -17.106026 -6.2075653z" fill-rule="nonzero"></path><path fill="#ffffff" d="m103.95338 124.558876l0 0c0 -3.4283447 7.6586304 -6.2075653 17.106026 -6.2075653c9.447403 0 17.106033 2.7792206 17.106033 6.2075653l0 24.830269c0 3.4283447 -7.6586304 6.2075653 -17.106033 6.2075653c-9.447395 0 -17.106026 -2.7792206 -17.106026 -6.2075653z" fill-rule="nonzero"></path><path fill="#000000" fill-opacity="0.0" d="m138.16544 124.558876l0 0c0 3.4283447 -7.6586304 6.2075577 -17.106033 6.2075577c-9.447395 0 -17.106026 -2.779213 -17.106026 -6.2075577" fill-rule="nonzero"></path><path fill="#000000" fill-opacity="0.0" d="m103.95338 124.558876l0 0c0 -3.4283447 7.6586304 -6.2075653 17.106026 -6.2075653c9.447403 0 17.106033 2.7792206 17.106033 6.2075653l0 24.830269c0 3.4283447 -7.6586304 6.2075653 -17.106033 6.2075653c-9.447395 0 -17.106026 -2.7792206 -17.106026 -6.2075653z" fill-rule="nonzero"></path><path stroke="#660000" stroke-width="4.0" stroke-linejoin="round" stroke-linecap="butt" d="m138.16544 124.558876l0 0c0 3.4283447 -7.6586304 6.2075577 -17.106033 6.2075577c-9.447395 0 -17.106026 -2.779213 -17.106026 -6.2075577" fill-rule="nonzero"></path><path stroke="#660000" stroke-width="4.0" stroke-linejoin="round" stroke-linecap="butt" d="m103.95338 124.558876l0 0c0 -3.4283447 7.6586304 -6.2075653 17.106026 -6.2075653c9.447403 0 17.106033 2.7792206 17.106033 6.2075653l0 24.830269c0 3.4283447 -7.6586304 6.2075653 -17.106033 6.2075653c-9.447395 0 -17.106026 -2.7792206 -17.106026 -6.2075653z" fill-rule="nonzero"></path><path fill="#ffffff" d="m144.96223 124.558876l0 0c0 -3.4283447 7.6586304 -6.2075653 17.106018 -6.2075653c9.447403 0 17.106033 2.7792206 17.106033 6.2075653l0 24.830269c0 3.4283447 -7.6586304 6.2075653 -17.106033 6.2075653c-9.447388 0 -17.106018 -2.7792206 -17.106018 -6.2075653z" fill-rule="nonzero"></path><path fill="#000000" fill-opacity="0.0" d="m179.17429 124.558876l0 0c0 3.4283447 -7.6586304 6.2075577 -17.106033 6.2075577c-9.447388 0 -17.106018 -2.779213 -17.106018 -6.2075577" fill-rule="nonzero"></path><path fill="#000000" fill-opacity="0.0" d="m144.96223 124.558876l0 0c0 -3.4283447 7.6586304 -6.2075653 17.106018 -6.2075653c9.447403 0 17.106033 2.7792206 17.106033 6.2075653l0 24.830269c0 3.4283447 -7.6586304 6.2075653 -17.106033 6.2075653c-9.447388 0 -17.106018 -2.7792206 -17.106018 -6.2075653z" fill-rule="nonzero"></path><path stroke="#660000" stroke-width="4.0" stroke-linejoin="round" stroke-linecap="butt" d="m179.17429 124.558876l0 0c0 3.4283447 -7.6586304 6.2075577 -17.106033 6.2075577c-9.447388 0 -17.106018 -2.779213 -17.106018 -6.2075577" fill-rule="nonzero"></path><path stroke="#660000" stroke-width="4.0" stroke-linejoin="round" stroke-linecap="butt" d="m144.96223 124.558876l0 0c0 -3.4283447 7.6586304 -6.2075653 17.106018 -6.2075653c9.447403 0 17.106033 2.7792206 17.106033 6.2075653l0 24.830269c0 3.4283447 -7.6586304 6.2075653 -17.106033 6.2075653c-9.447388 0 -17.106018 -2.7792206 -17.106018 -6.2075653z" fill-rule="nonzero"></path><path fill="#ffffff" d="m21.935663 79.02937l0 0c0 -3.4283447 7.6586304 -6.2075653 17.106028 -6.2075653c9.447399 0 17.10603 2.7792206 17.10603 6.2075653l0 24.830261c0 3.4283447 -7.6586304 6.2075653 -17.10603 6.2075653c-9.447397 0 -17.106028 -2.7792206 -17.106028 -6.2075653z" fill-rule="nonzero"></path><path fill="#000000" fill-opacity="0.0" d="m56.14772 79.02937l0 0c0 3.4283447 -7.6586304 6.2075653 -17.10603 6.2075653c-9.447397 0 -17.106028 -2.7792206 -17.106028 -6.2075653" fill-rule="nonzero"></path><path fill="#000000" fill-opacity="0.0" d="m21.935663 79.02937l0 0c0 -3.4283447 7.6586304 -6.2075653 17.106028 -6.2075653c9.447399 0 17.10603 2.7792206 17.10603 6.2075653l0 24.830261c0 3.4283447 -7.6586304 6.2075653 -17.10603 6.2075653c-9.447397 0 -17.106028 -2.7792206 -17.106028 -6.2075653z" fill-rule="nonzero"></path><path stroke="#660000" stroke-width="4.0" stroke-linejoin="round" stroke-linecap="butt" d="m56.14772 79.02937l0 0c0 3.4283447 -7.6586304 6.2075653 -17.10603 6.2075653c-9.447397 0 -17.106028 -2.7792206 -17.106028 -6.2075653" fill-rule="nonzero"></path><path stroke="#660000" stroke-width="4.0" stroke-linejoin="round" stroke-linecap="butt" d="m21.935663 79.02937l0 0c0 -3.4283447 7.6586304 -6.2075653 17.106028 -6.2075653c9.447399 0 17.10603 2.7792206 17.10603 6.2075653l0 24.830261c0 3.4283447 -7.6586304 6.2075653 -17.10603 6.2075653c-9.447397 0 -17.106028 -2.7792206 -17.106028 -6.2075653z" fill-rule="nonzero"></path><path fill="#ffffff" d="m62.94452 79.02937l0 0c0 -3.4283447 7.6586304 -6.2075653 17.106026 -6.2075653c9.447403 0 17.106033 2.7792206 17.106033 6.2075653l0 24.830261c0 3.4283447 -7.6586304 6.2075653 -17.106033 6.2075653c-9.447395 0 -17.106026 -2.7792206 -17.106026 -6.2075653z" fill-rule="nonzero"></path><path fill="#000000" fill-opacity="0.0" d="m97.15658 79.02937l0 0c0 3.4283447 -7.6586304 6.2075653 -17.106033 6.2075653c-9.447395 0 -17.106026 -2.7792206 -17.106026 -6.2075653" fill-rule="nonzero"></path><path fill="#000000" fill-opacity="0.0" d="m62.94452 79.02937l0 0c0 -3.4283447 7.6586304 -6.2075653 17.106026 -6.2075653c9.447403 0 17.106033 2.7792206 17.106033 6.2075653l0 24.830261c0 3.4283447 -7.6586304 6.2075653 -17.106033 6.2075653c-9.447395 0 -17.106026 -2.7792206 -17.106026 -6.2075653z" fill-rule="nonzero"></path><path stroke="#660000" stroke-width="4.0" stroke-linejoin="round" stroke-linecap="butt" d="m97.15658 79.02937l0 0c0 3.4283447 -7.6586304 6.2075653 -17.106033 6.2075653c-9.447395 0 -17.106026 -2.7792206 -17.106026 -6.2075653" fill-rule="nonzero"></path><path stroke="#660000" stroke-width="4.0" stroke-linejoin="round" stroke-linecap="butt" d="m62.94452 79.02937l0 0c0 -3.4283447 7.6586304 -6.2075653 17.106026 -6.2075653c9.447403 0 17.106033 2.7792206 17.106033 6.2075653l0 24.830261c0 3.4283447 -7.6586304 6.2075653 -17.106033 6.2075653c-9.447395 0 -17.106026 -2.7792206 -17.106026 -6.2075653z" fill-rule="nonzero"></path><path fill="#ffffff" d="m103.95338 79.02937l0 0c0 -3.4283447 7.6586304 -6.2075653 17.106026 -6.2075653c9.447403 0 17.106033 2.7792206 17.106033 6.2075653l0 24.830261c0 3.4283447 -7.6586304 6.2075653 -17.106033 6.2075653c-9.447395 0 -17.106026 -2.7792206 -17.106026 -6.2075653z" fill-rule="nonzero"></path><path fill="#000000" fill-opacity="0.0" d="m138.16544 79.02937l0 0c0 3.4283447 -7.6586304 6.2075653 -17.106033 6.2075653c-9.447395 0 -17.106026 -2.7792206 -17.106026 -6.2075653" fill-rule="nonzero"></path><path fill="#000000" fill-opacity="0.0" d="m103.95338 79.02937l0 0c0 -3.4283447 7.6586304 -6.2075653 17.106026 -6.2075653c9.447403 0 17.106033 2.7792206 17.106033 6.2075653l0 24.830261c0 3.4283447 -7.6586304 6.2075653 -17.106033 6.2075653c-9.447395 0 -17.106026 -2.7792206 -17.106026 -6.2075653z" fill-rule="nonzero"></path><path stroke="#660000" stroke-width="4.0" stroke-linejoin="round" stroke-linecap="butt" d="m138.16544 79.02937l0 0c0 3.4283447 -7.6586304 6.2075653 -17.106033 6.2075653c-9.447395 0 -17.106026 -2.7792206 -17.106026 -6.2075653" fill-rule="nonzero"></path><path stroke="#660000" stroke-width="4.0" stroke-linejoin="round" stroke-linecap="butt" d="m103.95338 79.02937l0 0c0 -3.4283447 7.6586304 -6.2075653 17.106026 -6.2075653c9.447403 0 17.106033 2.7792206 17.106033 6.2075653l0 24.830261c0 3.4283447 -7.6586304 6.2075653 -17.106033 6.2075653c-9.447395 0 -17.106026 -2.7792206 -17.106026 -6.2075653z" fill-rule="nonzero"></path><path fill="#ffffff" d="m144.96223 79.02937l0 0c0 -3.4283447 7.6586304 -6.2075653 17.106018 -6.2075653c9.447403 0 17.106033 2.7792206 17.106033 6.2075653l0 24.830261c0 3.4283447 -7.6586304 6.2075653 -17.106033 6.2075653c-9.447388 0 -17.106018 -2.7792206 -17.106018 -6.2075653z" fill-rule="nonzero"></path><path fill="#000000" fill-opacity="0.0" d="m179.17429 79.02937l0 0c0 3.4283447 -7.6586304 6.2075653 -17.106033 6.2075653c-9.447388 0 -17.106018 -2.7792206 -17.106018 -6.2075653" fill-rule="nonzero"></path><path fill="#000000" fill-opacity="0.0" d="m144.96223 79.02937l0 0c0 -3.4283447 7.6586304 -6.2075653 17.106018 -6.2075653c9.447403 0 17.106033 2.7792206 17.106033 6.2075653l0 24.830261c0 3.4283447 -7.6586304 6.2075653 -17.106033 6.2075653c-9.447388 0 -17.106018 -2.7792206 -17.106018 -6.2075653z" fill-rule="nonzero"></path><path stroke="#660000" stroke-width="4.0" stroke-linejoin="round" stroke-linecap="butt" d="m179.17429 79.02937l0 0c0 3.4283447 -7.6586304 6.2075653 -17.106033 6.2075653c-9.447388 0 -17.106018 -2.7792206 -17.106018 -6.2075653" fill-rule="nonzero"></path><path stroke="#660000" stroke-width="4.0" stroke-linejoin="round" stroke-linecap="butt" d="m144.96223 79.02937l0 0c0 -3.4283447 7.6586304 -6.2075653 17.106018 -6.2075653c9.447403 0 17.106033 2.7792206 17.106033 6.2075653l0 24.830261c0 3.4283447 -7.6586304 6.2075653 -17.106033 6.2075653c-9.447388 0 -17.106018 -2.7792206 -17.106018 -6.2075653z" fill-rule="nonzero"></path><path fill="#ffffff" d="m405.44333 27.281181l95.590546 0l0 26.757938l-17.27356 17.273556l-78.316986 0z" fill-rule="nonzero"></path><path fill="#cbcbcb" d="m483.7603 71.312675l3.454712 -13.818844l13.818848 -3.454712z" fill-rule="nonzero"></path><path fill="#000000" fill-opacity="0.0" d="m483.7603 71.312675l3.454712 -13.818844l13.818848 -3.454712l-17.27356 17.273556l-78.316986 0l0 -44.031494l95.590546 0l0 26.757938" fill-rule="nonzero"></path><path stroke="#cc0000" stroke-width="4.0" stroke-linejoin="round" stroke-linecap="butt" d="m483.7603 71.312675l3.454712 -13.818844l13.818848 -3.454712l-17.27356 17.273556l-78.316986 0l0 -44.031494l95.590546 0l0 26.757938" fill-rule="nonzero"></path><path fill="#000000" d="m415.39645 45.072025l-0.859375 0l3.265625 -8.5l0.859375 0l-3.265625 8.5zm8.657166 -2.71875l-3.265625 0l-0.734375 2.046875l-1.0625 0l2.984375 -7.828125l0.90625 0l2.984375 7.828125l-1.0625 0l-0.75 -2.046875zm-2.953125 -0.84375l2.65625 0l-1.328125 -3.65625l-1.328125 3.65625zm9.904663 0.84375l-3.265625 0l-0.734375 2.046875l-1.0625 0l2.984375 -7.828125l0.90625 0l2.984375 7.828125l-1.0625 0l-0.75 -2.046875zm-2.953125 -0.84375l2.65625 0l-1.328125 -3.65625l-1.328125 3.65625zm9.904663 0.84375l-3.265625 0l-0.734375 2.046875l-1.0625 0l2.984375 -7.828125l0.90625 0l2.984375 7.828125l-1.0625 0l-0.75 -2.046875zm-2.953125 -0.84375l2.65625 0l-1.328125 -3.65625l-1.328125 3.65625zm10.232788 -0.4375q0 1.734375 -0.59375 2.59375q-0.59375 0.84375 -1.859375 0.84375q-1.25 0 -1.859375 -0.828125q-0.59375 -0.828125 -0.609375 -2.484375l0 -1.328125q0 -1.71875 0.59375 -2.546875q0.59375 -0.84375 1.859375 -0.84375q1.265625 0 1.859375 0.8125q0.59375 0.796875 0.609375 2.484375l0 1.296875zm-0.984375 -1.359375q0 -1.265625 -0.359375 -1.84375q-0.359375 -0.578125 -1.125 -0.578125q-0.75 0 -1.109375 0.578125q-0.34375 0.5625 -0.359375 1.765625l0 1.578125q0 1.28125 0.359375 1.890625q0.375 0.59375 1.125 0.59375q0.734375 0 1.09375 -0.5625q0.359375 -0.578125 0.375 -1.796875l0 -1.625zm5.343109 4.6875l-1.0 0l0 -6.625l-2.015625 0.734375l0 -0.90625l2.859375 -1.0625l0.15625 0l0 7.859375zm7.843109 0l-5.125 0l0 -0.71875l2.703125 -3.0q0.59375 -0.6875 0.828125 -1.109375q0.234375 -0.4375 0.234375 -0.890625q0 -0.609375 -0.375 -1.0q-0.375 -0.390625 -0.984375 -0.390625q-0.75 0 -1.15625 0.421875q-0.40625 0.421875 -0.40625 1.171875l-1.0 0q0 -1.078125 0.6875 -1.734375q0.703125 -0.671875 1.875 -0.671875q1.078125 0 1.71875 0.578125q0.640625 0.5625 0.640625 1.515625q0 1.15625 -1.484375 2.75l-2.09375 2.265625l3.9375 0l0 0.8125zm2.2962341 -4.390625l0.75 0q0.703125 -0.015625 1.09375 -0.375q0.40625 -0.359375 0.40625 -0.96875q0 -1.375 -1.359375 -1.375q-0.640625 0 -1.03125 0.375q-0.390625 0.359375 -0.390625 0.96875l-0.984375 0q0 -0.9375 0.671875 -1.546875q0.6875 -0.609375 1.734375 -0.609375q1.109375 0 1.734375 0.59375q0.625 0.578125 0.625 1.609375q0 0.515625 -0.328125 1.0q-0.328125 0.46875 -0.90625 0.703125q0.65625 0.203125 1.0 0.6875q0.359375 0.46875 0.359375 1.140625q0 1.0625 -0.6875 1.6875q-0.6875 0.609375 -1.796875 0.609375q-1.09375 0 -1.796875 -0.59375q-0.6875 -0.59375 -0.6875 -1.578125l1.0 0q0 0.625 0.40625 1.0q0.40625 0.359375 1.078125 0.359375q0.71875 0 1.09375 -0.375q0.390625 -0.375 0.390625 -1.078125q0 -0.6875 -0.421875 -1.046875q-0.421875 -0.375 -1.203125 -0.375l-0.75 0l0 -0.8125zm8.733734 1.765625l1.09375 0l0 0.8125l-1.09375 0l0 1.8125l-1.0 0l0 -1.8125l-3.5625 0l0 -0.59375l3.5 -5.421875l1.0625 0l0 5.203125zm-3.4375 0l2.4375 0l0 -3.84375l-0.109375 0.21875l-2.328125 3.625zm5.686859 -1.296875l0.390625 -3.90625l4.015625 0l0 0.921875l-3.171875 0l-0.234375 2.140625q0.578125 -0.34375 1.3125 -0.34375q1.0625 0 1.6875 0.703125q0.625 0.703125 0.625 1.90625q0 1.21875 -0.65625 1.921875q-0.640625 0.6875 -1.8125 0.6875q-1.03125 0 -1.6875 -0.578125q-0.65625 -0.578125 -0.75 -1.59375l0.9375 0q0.09375 0.671875 0.46875 1.015625q0.390625 0.34375 1.03125 0.34375q0.6875 0 1.078125 -0.46875q0.40625 -0.484375 0.40625 -1.3125q0 -0.78125 -0.4375 -1.25q-0.421875 -0.484375 -1.125 -0.484375q-0.65625 0 -1.015625 0.28125l-0.265625 0.21875l-0.796875 -0.203125zm9.421234 -3.90625l0 0.84375l-0.1875 0q-1.15625 0.015625 -1.84375 0.6875q-0.6875 0.671875 -0.796875 1.875q0.625 -0.703125 1.6875 -0.703125q1.03125 0 1.640625 0.71875q0.609375 0.71875 0.609375 1.859375q0 1.203125 -0.671875 1.9375q-0.65625 0.71875 -1.75 0.71875q-1.125 0 -1.828125 -0.859375q-0.703125 -0.859375 -0.703125 -2.21875l0 -0.390625q0 -2.15625 0.921875 -3.296875q0.921875 -1.140625 2.75 -1.171875l0.171875 0zm-1.296875 3.53125q-0.515625 0 -0.953125 0.3125q-0.421875 0.296875 -0.59375 0.75l0 0.375q0 0.96875 0.4375 1.5625q0.4375 0.578125 1.09375 0.578125q0.671875 0 1.046875 -0.484375q0.390625 -0.5 0.390625 -1.296875q0 -0.8125 -0.390625 -1.296875q-0.390625 -0.5 -1.03125 -0.5zm3.5149841 3.78125q0 -0.265625 0.140625 -0.4375q0.15625 -0.171875 0.453125 -0.171875q0.3125 0 0.46875 0.171875q0.171875 0.171875 0.171875 0.4375q0 0.234375 -0.171875 0.40625q-0.15625 0.171875 -0.46875 0.171875q-0.296875 0 -0.453125 -0.171875q-0.140625 -0.171875 -0.140625 -0.40625zm2.8045654 0q0 -0.265625 0.140625 -0.4375q0.15625 -0.171875 0.453125 -0.171875q0.3125 0 0.46875 0.171875q0.171875 0.171875 0.171875 0.4375q0 0.234375 -0.171875 0.40625q-0.15625 0.171875 -0.46875 0.171875q-0.296875 0 -0.453125 -0.171875q-0.140625 -0.171875 -0.140625 -0.40625zm2.804535 0q0 -0.265625 0.140625 -0.4375q0.15625 -0.171875 0.453125 -0.171875q0.3125 0 0.46875 0.171875q0.171875 0.171875 0.171875 0.4375q0 0.234375 -0.171875 0.40625q-0.15625 0.171875 -0.46875 0.171875q-0.296875 0 -0.453125 -0.171875q-0.140625 -0.171875 -0.140625 -0.40625z" fill-rule="nonzero"></path><path fill="#ffffff" d="m405.44333 80.22109l95.590546 0l0 26.757942l-17.27356 17.27356l-78.316986 0z" fill-rule="nonzero"></path><path fill="#cbcbcb" d="m483.7603 124.252594l3.454712 -13.818848l13.818848 -3.454712z" fill-rule="nonzero"></path><path fill="#000000" fill-opacity="0.0" d="m483.7603 124.252594l3.454712 -13.818848l13.818848 -3.454712l-17.27356 17.27356l-78.316986 0l0 -44.0315l95.590546 0l0 26.757942" fill-rule="nonzero"></path><path stroke="#cc0000" stroke-width="4.0" stroke-linejoin="round" stroke-linecap="butt" d="m483.7603 124.252594l3.454712 -13.818848l13.818848 -3.454712l-17.27356 17.27356l-78.316986 0l0 -44.0315l95.590546 0l0 26.757942" fill-rule="nonzero"></path><path fill="#000000" d="m415.39645 98.01194l-0.859375 0l3.265625 -8.5l0.859375 0l-3.265625 8.5zm8.657166 -2.71875l-3.265625 0l-0.734375 2.046875l-1.0625 0l2.984375 -7.828125l0.90625 0l2.984375 7.828125l-1.0625 0l-0.75 -2.046875zm-2.953125 -0.84375l2.65625 0l-1.328125 -3.65625l-1.328125 3.65625zm9.904663 0.84375l-3.265625 0l-0.734375 2.046875l-1.0625 0l2.984375 -7.828125l0.90625 0l2.984375 7.828125l-1.0625 0l-0.75 -2.046875zm-2.953125 -0.84375l2.65625 0l-1.328125 -3.65625l-1.328125 3.65625zm9.904663 0.84375l-3.265625 0l-0.734375 2.046875l-1.0625 0l2.984375 -7.828125l0.90625 0l2.984375 7.828125l-1.0625 0l-0.75 -2.046875zm-2.953125 -0.84375l2.65625 0l-1.328125 -3.65625l-1.328125 3.65625zm8.607788 2.890625l-1.0 0l0 -6.625l-2.015625 0.734375l0 -0.90625l2.859375 -1.0625l0.15625 0l0 7.859375zm7.280609 -2.046875l-3.265625 0l-0.734375 2.046875l-1.0625 0l2.984375 -7.828125l0.90625 0l2.984375 7.828125l-1.0625 0l-0.75 -2.046875zm-2.953125 -0.84375l2.65625 0l-1.328125 -3.65625l-1.328125 3.65625zm10.467163 2.890625l-5.125 0l0 -0.71875l2.703125 -3.0q0.59375 -0.6875 0.828125 -1.109375q0.234375 -0.4375 0.234375 -0.890625q0 -0.609375 -0.375 -1.0q-0.375 -0.390625 -0.984375 -0.390625q-0.75 0 -1.15625 0.421875q-0.40625 0.421875 -0.40625 1.171875l-1.0 0q0 -1.078125 0.6875 -1.734375q0.703125 -0.671875 1.875 -0.671875q1.078125 0 1.71875 0.578125q0.640625 0.5625 0.640625 1.515625q0 1.15625 -1.484375 2.75l-2.09375 2.265625l3.9375 0l0 0.8125zm1.1087341 0l0 -7.828125l2.5625 0q1.265625 0 1.90625 0.53125q0.640625 0.53125 0.640625 1.5625q0 0.546875 -0.3125 0.96875q-0.3125 0.421875 -0.84375 0.65625q0.640625 0.171875 1.0 0.671875q0.375 0.5 0.375 1.1875q0 1.046875 -0.6875 1.65625q-0.6875 0.59375 -1.921875 0.59375l-2.71875 0zm1.03125 -3.65625l0 2.8125l1.703125 0q0.71875 0 1.125 -0.375q0.421875 -0.375 0.421875 -1.03125q0 -1.40625 -1.53125 -1.40625l-1.71875 0zm0 -0.828125l1.5625 0q0.671875 0 1.078125 -0.328125q0.40625 -0.34375 0.40625 -0.921875q0 -0.65625 -0.375 -0.9375q-0.375 -0.296875 -1.140625 -0.296875l-1.53125 0l0 2.484375zm6.7904053 0.09375l0.75 0q0.703125 -0.015625 1.09375 -0.375q0.40625 -0.359375 0.40625 -0.96875q0 -1.375 -1.359375 -1.375q-0.640625 0 -1.03125 0.375q-0.390625 0.359375 -0.390625 0.96875l-0.984375 0q0 -0.9375 0.671875 -1.546875q0.6875 -0.609375 1.734375 -0.609375q1.109375 0 1.734375 0.59375q0.625 0.578125 0.625 1.609375q0 0.515625 -0.328125 1.0q-0.328125 0.46875 -0.90625 0.703125q0.65625 0.203125 1.0 0.6875q0.359375 0.46875 0.359375 1.140625q0 1.0625 -0.6875 1.6875q-0.6875 0.609375 -1.796875 0.609375q-1.09375 0 -1.796875 -0.59375q-0.6875 -0.59375 -0.6875 -1.578125l1.0 0q0 0.625 0.40625 1.0q0.40625 0.359375 1.078125 0.359375q0.71875 0 1.09375 -0.375q0.390625 -0.375 0.390625 -1.078125q0 -0.6875 -0.421875 -1.046875q-0.421875 -0.375 -1.203125 -0.375l-0.75 0l0 -0.8125zm10.546234 1.90625q-0.140625 1.25 -0.921875 1.921875q-0.765625 0.671875 -2.03125 0.671875q-1.390625 0 -2.234375 -0.984375q-0.828125 -1.0 -0.828125 -2.671875l0 -0.75q0 -1.09375 0.390625 -1.921875q0.390625 -0.828125 1.09375 -1.265625q0.71875 -0.4375 1.65625 -0.4375q1.25 0 2.0 0.703125q0.75 0.6875 0.875 1.90625l-1.03125 0q-0.140625 -0.921875 -0.59375 -1.34375q-0.4375 -0.421875 -1.25 -0.421875q-0.984375 0 -1.546875 0.734375q-0.5625 0.71875 -0.5625 2.078125l0 0.75q0 1.28125 0.53125 2.03125q0.53125 0.75 1.5 0.75q0.859375 0 1.3125 -0.390625q0.453125 -0.390625 0.609375 -1.359375l1.03125 0zm1.0609131 1.96875q0 -0.265625 0.140625 -0.4375q0.15625 -0.171875 0.453125 -0.171875q0.3125 0 0.46875 0.171875q0.171875 0.171875 0.171875 0.4375q0 0.234375 -0.171875 0.40625q-0.15625 0.171875 -0.46875 0.171875q-0.296875 0 -0.453125 -0.171875q-0.140625 -0.171875 -0.140625 -0.40625zm2.8045654 0q0 -0.265625 0.140625 -0.4375q0.15625 -0.171875 0.453125 -0.171875q0.3125 0 0.46875 0.171875q0.171875 0.171875 0.171875 0.4375q0 0.234375 -0.171875 0.40625q-0.15625 0.171875 -0.46875 0.171875q-0.296875 0 -0.453125 -0.171875q-0.140625 -0.171875 -0.140625 -0.40625zm2.804535 0q0 -0.265625 0.140625 -0.4375q0.15625 -0.171875 0.453125 -0.171875q0.3125 0 0.46875 0.171875q0.171875 0.171875 0.171875 0.4375q0 0.234375 -0.171875 0.40625q-0.15625 0.171875 -0.46875 0.171875q-0.296875 0 -0.453125 -0.171875q-0.140625 -0.171875 -0.140625 -0.40625z" fill-rule="nonzero"></path><path fill="#ffffff" d="m405.44333 193.4657l95.590546 0l0 26.757935l-17.27356 17.27356l-78.316986 0z" fill-rule="nonzero"></path><path fill="#cbcbcb" d="m483.7603 237.4972l3.454712 -13.818848l13.818848 -3.454712z" fill-rule="nonzero"></path><path fill="#000000" fill-opacity="0.0" d="m483.7603 237.4972l3.454712 -13.818848l13.818848 -3.454712l-17.27356 17.27356l-78.316986 0l0 -44.031494l95.590546 0l0 26.757935" fill-rule="nonzero"></path><path stroke="#cc0000" stroke-width="4.0" stroke-linejoin="round" stroke-linecap="butt" d="m483.7603 237.4972l3.454712 -13.818848l13.818848 -3.454712l-17.27356 17.27356l-78.316986 0l0 -44.031494l95.590546 0l0 26.757935" fill-rule="nonzero"></path><path fill="#000000" d="m415.39645 211.25653l-0.859375 0l3.265625 -8.5l0.859375 0l-3.265625 8.5zm4.3446655 -0.671875l0 -7.828125l2.203125 0q1.03125 0 1.8125 0.453125q0.78125 0.453125 1.203125 1.296875q0.4375 0.828125 0.4375 1.90625l0 0.5q0 1.109375 -0.4375 1.9375q-0.421875 0.828125 -1.21875 1.28125q-0.78125 0.4375 -1.828125 0.453125l-2.171875 0zm1.03125 -6.96875l0 6.125l1.09375 0q1.1875 0 1.84375 -0.734375q0.671875 -0.75 0.671875 -2.125l0 -0.453125q0 -1.328125 -0.625 -2.0625q-0.625 -0.75 -1.78125 -0.75l-1.203125 0zm10.378601 3.359375l-3.390625 0l0 2.765625l3.9375 0l0 0.84375l-4.96875 0l0 -7.828125l4.921875 0l0 0.859375l-3.890625 0l0 2.515625l3.390625 0l0 0.84375zm5.9472046 0.15625l-3.28125 0l0 3.453125l-1.03125 0l0 -7.828125l4.84375 0l0 0.859375l-3.8125 0l0 2.671875l3.28125 0l0 0.84375zm6.2182007 0.125q0 1.734375 -0.59375 2.59375q-0.59375 0.84375 -1.859375 0.84375q-1.25 0 -1.859375 -0.828125q-0.59375 -0.828125 -0.609375 -2.484375l0 -1.328125q0 -1.71875 0.59375 -2.546875q0.59375 -0.84375 1.859375 -0.84375q1.265625 0 1.859375 0.8125q0.59375 0.796875 0.609375 2.484375l0 1.296875zm-0.984375 -1.359375q0 -1.265625 -0.359375 -1.84375q-0.359375 -0.578125 -1.125 -0.578125q-0.75 0 -1.109375 0.578125q-0.34375 0.5625 -0.359375 1.765625l0 1.578125q0 1.28125 0.359375 1.890625q0.375 0.59375 1.125 0.59375q0.734375 0 1.09375 -0.5625q0.359375 -0.578125 0.375 -1.796875l0 -1.625zm5.343109 4.6875l-1.0 0l0 -6.625l-2.015625 0.734375l0 -0.90625l2.859375 -1.0625l0.15625 0l0 7.859375zm7.843109 0l-5.125 0l0 -0.71875l2.703125 -3.0q0.59375 -0.6875 0.828125 -1.109375q0.234375 -0.4375 0.234375 -0.890625q0 -0.609375 -0.375 -1.0q-0.375 -0.390625 -0.984375 -0.390625q-0.75 0 -1.15625 0.421875q-0.40625 0.421875 -0.40625 1.171875l-1.0 0q0 -1.078125 0.6875 -1.734375q0.703125 -0.671875 1.875 -0.671875q1.078125 0 1.71875 0.578125q0.640625 0.5625 0.640625 1.515625q0 1.15625 -1.484375 2.75l-2.09375 2.265625l3.9375 0l0 0.8125zm2.2962341 -4.390625l0.75 0q0.703125 -0.015625 1.09375 -0.375q0.40625 -0.359375 0.40625 -0.96875q0 -1.375 -1.359375 -1.375q-0.640625 0 -1.03125 0.375q-0.390625 0.359375 -0.390625 0.96875l-0.984375 0q0 -0.9375 0.671875 -1.546875q0.6875 -0.609375 1.734375 -0.609375q1.109375 0 1.734375 0.59375q0.625 0.578125 0.625 1.609375q0 0.515625 -0.328125 1.0q-0.328125 0.46875 -0.90625 0.703125q0.65625 0.203125 1.0 0.6875q0.359375 0.46875 0.359375 1.140625q0 1.0625 -0.6875 1.6875q-0.6875 0.609375 -1.796875 0.609375q-1.09375 0 -1.796875 -0.59375q-0.6875 -0.59375 -0.6875 -1.578125l1.0 0q0 0.625 0.40625 1.0q0.40625 0.359375 1.078125 0.359375q0.71875 0 1.09375 -0.375q0.390625 -0.375 0.390625 -1.078125q0 -0.6875 -0.421875 -1.046875q-0.421875 -0.375 -1.203125 -0.375l-0.75 0l0 -0.8125zm8.733734 1.765625l1.09375 0l0 0.8125l-1.09375 0l0 1.8125l-1.0 0l0 -1.8125l-3.5625 0l0 -0.59375l3.5 -5.421875l1.0625 0l0 5.203125zm-3.4375 0l2.4375 0l0 -3.84375l-0.109375 0.21875l-2.328125 3.625zm5.686859 -1.296875l0.390625 -3.90625l4.015625 0l0 0.921875l-3.171875 0l-0.234375 2.140625q0.578125 -0.34375 1.3125 -0.34375q1.0625 0 1.6875 0.703125q0.625 0.703125 0.625 1.90625q0 1.21875 -0.65625 1.921875q-0.640625 0.6875 -1.8125 0.6875q-1.03125 0 -1.6875 -0.578125q-0.65625 -0.578125 -0.75 -1.59375l0.9375 0q0.09375 0.671875 0.46875 1.015625q0.390625 0.34375 1.03125 0.34375q0.6875 0 1.078125 -0.46875q0.40625 -0.484375 0.40625 -1.3125q0 -0.78125 -0.4375 -1.25q-0.421875 -0.484375 -1.125 -0.484375q-0.65625 0 -1.015625 0.28125l-0.265625 0.21875l-0.796875 -0.203125zm9.421234 -3.90625l0 0.84375l-0.1875 0q-1.15625 0.015625 -1.84375 0.6875q-0.6875 0.671875 -0.796875 1.875q0.625 -0.703125 1.6875 -0.703125q1.03125 0 1.640625 0.71875q0.609375 0.71875 0.609375 1.859375q0 1.203125 -0.671875 1.9375q-0.65625 0.71875 -1.75 0.71875q-1.125 0 -1.828125 -0.859375q-0.703125 -0.859375 -0.703125 -2.21875l0 -0.390625q0 -2.15625 0.921875 -3.296875q0.921875 -1.140625 2.75 -1.171875l0.171875 0zm-1.296875 3.53125q-0.515625 0 -0.953125 0.3125q-0.421875 0.296875 -0.59375 0.75l0 0.375q0 0.96875 0.4375 1.5625q0.4375 0.578125 1.09375 0.578125q0.671875 0 1.046875 -0.484375q0.390625 -0.5 0.390625 -1.296875q0 -0.8125 -0.390625 -1.296875q-0.390625 -0.5 -1.03125 -0.5zm3.5149841 3.78125q0 -0.265625 0.140625 -0.4375q0.15625 -0.171875 0.453125 -0.171875q0.3125 0 0.46875 0.171875q0.171875 0.171875 0.171875 0.4375q0 0.234375 -0.171875 0.40625q-0.15625 0.171875 -0.46875 0.171875q-0.296875 0 -0.453125 -0.171875q-0.140625 -0.171875 -0.140625 -0.40625zm2.804535 0q0 -0.265625 0.140625 -0.4375q0.15625 -0.171875 0.453125 -0.171875q0.3125 0 0.46875 0.171875q0.171875 0.171875 0.171875 0.4375q0 0.234375 -0.171875 0.40625q-0.15625 0.171875 -0.46875 0.171875q-0.296875 0 -0.453125 -0.171875q-0.140625 -0.171875 -0.140625 -0.40625zm2.8045654 0q0 -0.265625 0.140625 -0.4375q0.15625 -0.171875 0.453125 -0.171875q0.3125 0 0.46875 0.171875q0.171875 0.171875 0.171875 0.4375q0 0.234375 -0.171875 0.40625q-0.15625 0.171875 -0.46875 0.171875q-0.296875 0 -0.453125 -0.171875q-0.140625 -0.171875 -0.140625 -0.40625z" fill-rule="nonzero"></path><path fill="#ffffff" d="m405.44333 246.40561l95.590546 0l0 26.757935l-17.27356 17.27356l-78.316986 0z" fill-rule="nonzero"></path><path fill="#cbcbcb" d="m483.7603 290.4371l3.454712 -13.818848l13.818848 -3.454712z" fill-rule="nonzero"></path><path fill="#000000" fill-opacity="0.0" d="m483.7603 290.4371l3.454712 -13.818848l13.818848 -3.454712l-17.27356 17.27356l-78.316986 0l0 -44.031494l95.590546 0l0 26.757935" fill-rule="nonzero"></path><path stroke="#cc0000" stroke-width="4.0" stroke-linejoin="round" stroke-linecap="butt" d="m483.7603 290.4371l3.454712 -13.818848l13.818848 -3.454712l-17.27356 17.27356l-78.316986 0l0 -44.031494l95.590546 0l0 26.757935" fill-rule="nonzero"></path><path fill="#000000" d="m415.39645 264.19644l-0.859375 0l3.265625 -8.499985l0.859375 0l-3.265625 8.499985zm4.3446655 -0.671875l0 -7.8281097l2.203125 0q1.03125 0 1.8125 0.45310974q0.78125 0.453125 1.203125 1.296875q0.4375 0.828125 0.4375 1.90625l0 0.5q0 1.109375 -0.4375 1.9375q-0.421875 0.828125 -1.21875 1.28125q-0.78125 0.4375 -1.828125 0.453125l-2.171875 0zm1.03125 -6.96875l0 6.125l1.09375 0q1.1875 0 1.84375 -0.734375q0.671875 -0.75 0.671875 -2.125l0 -0.453125q0 -1.328125 -0.625 -2.0625q-0.625 -0.75 -1.78125 -0.75l-1.203125 0zm10.378601 3.359375l-3.390625 0l0 2.765625l3.9375 0l0 0.84375l-4.96875 0l0 -7.8281097l4.921875 0l0 0.85935974l-3.890625 0l0 2.515625l3.390625 0l0 0.84375zm5.9472046 0.15625l-3.28125 0l0 3.453125l-1.03125 0l0 -7.8281097l4.84375 0l0 0.85935974l-3.8125 0l0 2.671875l3.28125 0l0 0.84375zm4.5932007 3.453125l-1.0 0l0 -6.625l-2.015625 0.734375l0 -0.90625l2.859375 -1.0624847l0.15625 0l0 7.8593597zm7.280609 -2.046875l-3.265625 0l-0.734375 2.046875l-1.0625 0l2.984375 -7.8281097l0.90625 0l2.984375 7.8281097l-1.0625 0l-0.75 -2.046875zm-2.953125 -0.84375l2.65625 0l-1.328125 -3.65625l-1.328125 3.65625zm10.467163 2.890625l-5.125 0l0 -0.71875l2.703125 -3.0q0.59375 -0.6875 0.828125 -1.109375q0.234375 -0.4375 0.234375 -0.890625q0 -0.609375 -0.375 -1.0q-0.375 -0.390625 -0.984375 -0.390625q-0.75 0 -1.15625 0.421875q-0.40625 0.421875 -0.40625 1.171875l-1.0 0q0 -1.078125 0.6875 -1.734375q0.703125 -0.67185974 1.875 -0.67185974q1.078125 0 1.71875 0.57810974q0.640625 0.5625 0.640625 1.515625q0 1.15625 -1.484375 2.75l-2.09375 2.265625l3.9375 0l0 0.8125zm1.1087341 0l0 -7.8281097l2.5625 0q1.265625 0 1.90625 0.53123474q0.640625 0.53125 0.640625 1.5625q0 0.546875 -0.3125 0.96875q-0.3125 0.421875 -0.84375 0.65625q0.640625 0.171875 1.0 0.671875q0.375 0.5 0.375 1.1875q0 1.046875 -0.6875 1.65625q-0.6875 0.59375 -1.921875 0.59375l-2.71875 0zm1.03125 -3.65625l0 2.8125l1.703125 0q0.71875 0 1.125 -0.375q0.421875 -0.375 0.421875 -1.03125q0 -1.40625 -1.53125 -1.40625l-1.71875 0zm0 -0.828125l1.5625 0q0.671875 0 1.078125 -0.328125q0.40625 -0.34375 0.40625 -0.921875q0 -0.65625 -0.375 -0.9375q-0.375 -0.296875 -1.140625 -0.296875l-1.53125 0l0 2.484375zm6.7903748 0.09375l0.75 0q0.703125 -0.015625 1.09375 -0.375q0.40625 -0.359375 0.40625 -0.96875q0 -1.375 -1.359375 -1.375q-0.640625 0 -1.03125 0.375q-0.390625 0.359375 -0.390625 0.96875l-0.984375 0q0 -0.9375 0.671875 -1.546875q0.6875 -0.60935974 1.734375 -0.60935974q1.109375 0 1.734375 0.59373474q0.625 0.578125 0.625 1.609375q0 0.515625 -0.328125 1.0q-0.328125 0.46875 -0.90625 0.703125q0.65625 0.203125 1.0 0.6875q0.359375 0.46875 0.359375 1.140625q0 1.0625 -0.6875 1.6875q-0.6875 0.609375 -1.796875 0.609375q-1.09375 0 -1.796875 -0.59375q-0.6875 -0.59375 -0.6875 -1.578125l1.0 0q0 0.625 0.40625 1.0q0.40625 0.359375 1.078125 0.359375q0.71875 0 1.09375 -0.375q0.390625 -0.375 0.390625 -1.078125q0 -0.6875 -0.421875 -1.046875q-0.421875 -0.375 -1.203125 -0.375l-0.75 0l0 -0.8125zm10.546234 1.90625q-0.140625 1.25 -0.921875 1.921875q-0.765625 0.671875 -2.03125 0.671875q-1.390625 0 -2.234375 -0.984375q-0.828125 -1.0 -0.828125 -2.671875l0 -0.75q0 -1.09375 0.390625 -1.921875q0.390625 -0.828125 1.09375 -1.265625q0.71875 -0.43748474 1.65625 -0.43748474q1.25 0 2.0 0.70310974q0.75 0.6875 0.875 1.90625l-1.03125 0q-0.140625 -0.921875 -0.59375 -1.34375q-0.4375 -0.421875 -1.25 -0.421875q-0.984375 0 -1.546875 0.734375q-0.5625 0.71875 -0.5625 2.078125l0 0.75q0 1.28125 0.53125 2.03125q0.53125 0.75 1.5 0.75q0.859375 0 1.3125 -0.390625q0.453125 -0.390625 0.609375 -1.359375l1.03125 0zm1.0609436 1.96875q0 -0.265625 0.140625 -0.4375q0.15625 -0.171875 0.453125 -0.171875q0.3125 0 0.46875 0.171875q0.171875 0.171875 0.171875 0.4375q0 0.234375 -0.171875 0.40625q-0.15625 0.171875 -0.46875 0.171875q-0.296875 0 -0.453125 -0.171875q-0.140625 -0.171875 -0.140625 -0.40625zm2.804535 0q0 -0.265625 0.140625 -0.4375q0.15625 -0.171875 0.453125 -0.171875q0.3125 0 0.46875 0.171875q0.171875 0.171875 0.171875 0.4375q0 0.234375 -0.171875 0.40625q-0.15625 0.171875 -0.46875 0.171875q-0.296875 0 -0.453125 -0.171875q-0.140625 -0.171875 -0.140625 -0.40625zm2.8045654 0q0 -0.265625 0.140625 -0.4375q0.15625 -0.171875 0.453125 -0.171875q0.3125 0 0.46875 0.171875q0.171875 0.171875 0.171875 0.4375q0 0.234375 -0.171875 0.40625q-0.15625 0.171875 -0.46875 0.171875q-0.296875 0 -0.453125 -0.171875q-0.140625 -0.171875 -0.140625 -0.40625z" fill-rule="nonzero"></path><path fill="#000000" fill-opacity="0.0" d="m401.27942 154.3768l0 0c-3.9312134 0 -7.118103 -0.26556396 -7.118103 -0.5931549l0 -140.70346l0 0c0 -0.15731335 0.74993896 -0.30818462 2.0848389 -0.41942215c1.3349304 -0.111237526 3.1454468 -0.1737299 5.033264 -0.1737299z" fill-rule="nonzero"></path><path fill="#000000" fill-opacity="0.0" d="m401.27942 154.3768l0 0c-3.9312134 0 -7.118103 -0.26556396 -7.118103 -0.5931549l0 -140.70346l0 0c0 -0.15731335 0.74993896 -0.30818462 2.0848389 -0.41942215c1.3349304 -0.111237526 3.1454468 -0.1737299 5.033264 -0.1737299" fill-rule="nonzero"></path><path stroke="#666666" stroke-width="3.0" stroke-linejoin="round" stroke-linecap="butt" d="m401.27942 154.3768l0 0c-3.9312134 0 -7.118103 -0.26556396 -7.118103 -0.5931549l0 -140.70346l0 0c0 -0.15731335 0.74993896 -0.30818462 2.0848389 -0.41942215c1.3349304 -0.111237526 3.1454468 -0.1737299 5.033264 -0.1737299" fill-rule="nonzero"></path><path fill="#000000" fill-opacity="0.0" d="m401.27942 327.3819l0 0c-3.9312134 0 -7.118103 -0.26556396 -7.118103 -0.59313965l0 -146.59323l0 0c0 -0.15731812 0.74993896 -0.30818176 2.0848389 -0.4194336c1.3349304 -0.11123657 3.1454468 -0.17372131 5.033264 -0.17372131z" fill-rule="nonzero"></path><path fill="#000000" fill-opacity="0.0" d="m401.27942 327.3819l0 0c-3.9312134 0 -7.118103 -0.26556396 -7.118103 -0.59313965l0 -146.59323l0 0c0 -0.15731812 0.74993896 -0.30818176 2.0848389 -0.4194336c1.3349304 -0.11123657 3.1454468 -0.17372131 5.033264 -0.17372131" fill-rule="nonzero"></path><path stroke="#666666" stroke-width="3.0" stroke-linejoin="round" stroke-linecap="butt" d="m401.27942 327.3819l0 0c-3.9312134 0 -7.118103 -0.26556396 -7.118103 -0.59313965l0 -146.59323l0 0c0 -0.15731812 0.74993896 -0.30818176 2.0848389 -0.4194336c1.3349304 -0.11123657 3.1454468 -0.17372131 5.033264 -0.17372131" fill-rule="nonzero"></path><path fill="#000000" fill-opacity="0.0" d="m333.13855 6.839856l61.007874 0l0 44.031498l-61.007874 0z" fill-rule="nonzero"></path><path fill="#000000" d="m348.4511 35.699978l-1.6875 0l4.203125 -12.359373l1.671875 0l-4.1875 12.359373zm11.8359375 -3.328125l-4.109375 0l-0.78125 2.34375l-2.484375 0l4.234375 -11.374998l2.171875 0l4.25 11.374998l-2.484375 0l-0.796875 -2.34375zm-3.46875 -1.9062481l2.84375 0l-1.4375 -4.25l-1.40625 4.25zm14.234375 1.9062481l-4.109375 0l-0.78125 2.34375l-2.484375 0l4.234375 -11.374998l2.171875 0l4.25 11.374998l-2.484375 0l-0.796875 -2.34375zm-3.46875 -1.9062481l2.84375 0l-1.4375 -4.25l-1.40625 4.25zm14.234375 1.9062481l-4.109375 0l-0.78125 2.34375l-2.484375 0l4.234375 -11.374998l2.171875 0l4.25 11.374998l-2.484375 0l-0.796875 -2.34375zm-3.46875 -1.9062481l2.84375 0l-1.4375 -4.25l-1.40625 4.25z" fill-rule="nonzero"></path><path fill="#000000" fill-opacity="0.0" d="m333.13855 179.60236l61.007874 0l0 44.031494l-61.007874 0z" fill-rule="nonzero"></path><path fill="#000000" d="m352.58392 208.46248l-1.6875 0l4.203125 -12.359375l1.671875 0l-4.1875 12.359375zm5.4140625 -0.984375l0 -11.375l3.5 0q1.5 0 2.6875 0.671875q1.1875 0.671875 1.84375 1.921875q0.671875 1.25 0.671875 2.828125l0 0.53125q0 1.578125 -0.65625 2.8125q-0.65625 1.234375 -1.84375 1.921875q-1.1875 0.671875 -2.671875 0.6875l-3.53125 0zm2.34375 -9.484375l0 7.59375l1.140625 0q1.375 0 2.09375 -0.890625q0.734375 -0.90625 0.75 -2.578125l0 -0.59375q0 -1.734375 -0.71875 -2.625q-0.71875 -0.90625 -2.109375 -0.90625l-1.15625 0zm14.8984375 4.546875l-4.5 0l0 3.046875l5.28125 0l0 1.890625l-7.625 0l0 -11.375l7.609375 0l0 1.890625l-5.265625 0l0 2.71875l4.5 0l0 1.828125zm9.0 0.28125l-4.5 0l0 4.65625l-2.34375 0l0 -11.375l7.40625 0l0 1.890625l-5.0625 0l0 2.9375l4.5 0l0 1.890625z" fill-rule="nonzero"></path><path fill="#000000" fill-opacity="0.0" d="m401.28925 125.53387l32.692932 0l0 30.330711l-32.692932 0z" fill-rule="nonzero"></path><path fill="#000000" d="m412.42087 146.55922l0 -1.609375l1.609375 0l0 1.609375l-1.609375 0zm4.4453125 0l0 -1.609375l1.609375 0l0 1.609375l-1.609375 0zm4.4453125 0l0 -1.609375l1.609375 0l0 1.609375l-1.609375 0z" fill-rule="nonzero"></path><path fill="#000000" fill-opacity="0.0" d="m401.2887 291.71915l32.692932 0l0 30.330719l-32.692932 0z" fill-rule="nonzero"></path><path fill="#000000" d="m412.42032 312.7445l0 -1.609375l1.609375 0l0 1.609375l-1.609375 0zm4.4453125 0l0 -1.609375l1.609375 0l0 1.609375l-1.609375 0zm4.4453125 0l0 -1.609375l1.609375 0l0 1.609375l-1.609375 0z" fill-rule="nonzero"></path><path fill="#000000" fill-opacity="0.0" d="m375.75854 341.36484l154.96063 0l0 44.031494l-154.96063 0z" fill-rule="nonzero"></path><path fill="#000000" d="m395.67624 353.55557l0 3.625l-1.21875 0l0 -9.25l3.40625 0q1.515625 0 2.375 0.78125q0.859375 0.78125 0.859375 2.046875q0 1.34375 -0.84375 2.078125q-0.84375 0.71875 -2.40625 0.71875l-2.171875 0zm0 -0.984375l2.1875 0q0.96875 0 1.484375 -0.453125q0.53125 -0.46875 0.53125 -1.34375q0 -0.828125 -0.53125 -1.3125q-0.515625 -0.5 -1.421875 -0.515625l-2.25 0l0 3.625zm8.283173 4.609375l-1.1875 0l0 -9.75l1.1875 0l0 9.75zm6.187561 0q-0.09375 -0.203125 -0.15625 -0.71875q-0.828125 0.84375 -1.953125 0.84375q-1.015625 0 -1.671875 -0.5625q-0.65625 -0.578125 -0.65625 -1.46875q0 -1.078125 0.8125 -1.671875q0.828125 -0.59375 2.296875 -0.59375l1.140625 0l0 -0.53125q0 -0.609375 -0.375 -0.96875q-0.359375 -0.375 -1.078125 -0.375q-0.625 0 -1.046875 0.3125q-0.421875 0.3125 -0.421875 0.765625l-1.1875 0q0 -0.515625 0.359375 -0.984375q0.375 -0.484375 1.0 -0.765625q0.625 -0.28125 1.375 -0.28125q1.1875 0 1.859375 0.59375q0.671875 0.59375 0.703125 1.640625l0 3.15625q0 0.953125 0.234375 1.5l0 0.109375l-1.234375 0zm-1.9375 -0.890625q0.546875 0 1.03125 -0.28125q0.5 -0.296875 0.71875 -0.75l0 -1.40625l-0.90625 0q-2.171875 0 -2.171875 1.265625q0 0.546875 0.375 0.859375q0.375 0.3125 0.953125 0.3125zm6.234131 0.890625l-1.1875 0l0 -6.875l1.1875 0l0 6.875zm-1.28125 -8.6875q0 -0.28125 0.171875 -0.484375q0.1875 -0.203125 0.53125 -0.203125q0.34375 0 0.515625 0.203125q0.171875 0.203125 0.171875 0.484375q0 0.28125 -0.171875 0.46875q-0.171875 0.1875 -0.515625 0.1875q-0.34375 0 -0.53125 -0.1875q-0.171875 -0.1875 -0.171875 -0.46875zm4.343811 1.8125l0.03125 0.875q0.796875 -1.0 2.0625 -1.0q2.171875 0 2.203125 2.46875l0 4.53125l-1.1875 0l0 -4.546875q0 -0.734375 -0.34375 -1.09375q-0.328125 -0.359375 -1.03125 -0.359375q-0.5625 0 -1.0 0.3125q-0.4375 0.296875 -0.671875 0.796875l0 4.890625l-1.171875 0l0 -6.875l1.109375 0zm10.122131 6.875l0 -5.953125l-1.09375 0l0 -0.921875l1.09375 0l0 -0.703125q0 -1.09375 0.578125 -1.703125q0.59375 -0.609375 1.671875 -0.609375q0.40625 0 0.8125 0.109375l-0.0625 0.953125q-0.296875 -0.046875 -0.640625 -0.046875q-0.5625 0 -0.875 0.328125q-0.3125 0.328125 -0.3125 0.953125l0 0.71875l1.46875 0l0 0.921875l-1.46875 0l0 5.953125l-1.171875 0zm5.3302307 0l-1.1875 0l0 -6.875l1.1875 0l0 6.875zm-1.28125 -8.6875q0 -0.28125 0.171875 -0.484375q0.1875 -0.203125 0.53125 -0.203125q0.34375 0 0.515625 0.203125q0.171875 0.203125 0.171875 0.484375q0 0.28125 -0.171875 0.46875q-0.171875 0.1875 -0.515625 0.1875q-0.34375 0 -0.53125 -0.1875q-0.171875 -0.1875 -0.171875 -0.46875zm4.515686 8.6875l-1.1875 0l0 -9.75l1.1875 0l0 9.75zm4.7969055 0.125q-1.390625 0 -2.265625 -0.90625q-0.875 -0.921875 -0.875 -2.46875l0 -0.203125q0 -1.03125 0.390625 -1.828125q0.390625 -0.8125 1.09375 -1.265625q0.703125 -0.453125 1.515625 -0.453125q1.34375 0 2.078125 0.890625q0.75 0.875 0.75 2.515625l0 0.5l-4.65625 0q0.03125 1.015625 0.59375 1.640625q0.5625 0.625 1.4375 0.625q0.625 0 1.046875 -0.25q0.4375 -0.265625 0.765625 -0.6875l0.71875 0.5625q-0.859375 1.328125 -2.59375 1.328125zm-0.140625 -6.15625q-0.71875 0 -1.203125 0.515625q-0.46875 0.515625 -0.59375 1.453125l3.453125 0l0 -0.09375q-0.0625 -0.890625 -0.5 -1.375q-0.421875 -0.5 -1.15625 -0.5zm8.357941 4.203125q0 -0.46875 -0.359375 -0.734375q-0.359375 -0.265625 -1.25 -0.453125q-0.890625 -0.1875 -1.421875 -0.453125q-0.515625 -0.265625 -0.765625 -0.625q-0.25 -0.375 -0.25 -0.890625q0 -0.84375 0.703125 -1.421875q0.71875 -0.59375 1.828125 -0.59375q1.171875 0 1.890625 0.609375q0.734375 0.59375 0.734375 1.546875l-1.1875 0q0 -0.484375 -0.40625 -0.828125q-0.40625 -0.359375 -1.03125 -0.359375q-0.640625 0 -1.0 0.28125q-0.359375 0.28125 -0.359375 0.734375q0 0.421875 0.328125 0.640625q0.34375 0.203125 1.21875 0.40625q0.875 0.203125 1.421875 0.484375q0.546875 0.265625 0.8125 0.65625q0.265625 0.375 0.265625 0.921875q0 0.921875 -0.734375 1.484375q-0.734375 0.546875 -1.90625 0.546875q-0.828125 0 -1.46875 -0.28125q-0.625 -0.296875 -0.984375 -0.8125q-0.359375 -0.53125 -0.359375 -1.140625l1.171875 0q0.03125 0.578125 0.46875 0.9375q0.4375 0.34375 1.171875 0.34375q0.65625 0 1.0625 -0.265625q0.40625 -0.28125 0.40625 -0.734375zm5.859314 -1.671875q0 -1.0 0.390625 -1.8125q0.40625 -0.8125 1.109375 -1.25q0.703125 -0.4375 1.609375 -0.4375q1.40625 0 2.265625 0.984375q0.875 0.96875 0.875 2.578125l0 0.078125q0 1.0 -0.390625 1.796875q-0.375 0.796875 -1.09375 1.25q-0.703125 0.4375 -1.640625 0.4375q-1.390625 0 -2.265625 -0.96875q-0.859375 -0.96875 -0.859375 -2.578125l0 -0.078125zm1.1875 0.140625q0 1.140625 0.515625 1.84375q0.53125 0.6875 1.421875 0.6875q0.90625 0 1.421875 -0.703125q0.53125 -0.703125 0.53125 -1.96875q0 -1.125 -0.546875 -1.828125q-0.53125 -0.703125 -1.421875 -0.703125q-0.859375 0 -1.390625 0.703125q-0.53125 0.6875 -0.53125 1.96875zm10.038696 -2.453125q-0.265625 -0.046875 -0.578125 -0.046875q-1.15625 0 -1.5625 0.984375l0 4.875l-1.171875 0l0 -6.875l1.140625 0l0.015625 0.796875q0.578125 -0.921875 1.640625 -0.921875q0.34375 0 0.515625 0.09375l0 1.09375zm0.91619873 2.328125q0 -1.609375 0.734375 -2.5625q0.75 -0.953125 1.96875 -0.953125q1.265625 0 1.96875 0.890625l0.0625 -0.765625l1.0625 0l0 6.703125q0 1.34375 -0.796875 2.109375q-0.78125 0.765625 -2.109375 0.765625q-0.75 0 -1.46875 -0.328125q-0.703125 -0.3125 -1.078125 -0.859375l0.609375 -0.703125q0.765625 0.9375 1.859375 0.9375q0.84375 0 1.328125 -0.484375q0.484375 -0.484375 0.484375 -1.359375l0 -0.59375q-0.703125 0.8125 -1.921875 0.8125q-1.21875 0 -1.96875 -0.96875q-0.734375 -0.96875 -0.734375 -2.640625zm1.1875 0.125q0 1.15625 0.46875 1.828125q0.484375 0.65625 1.328125 0.65625q1.109375 0 1.640625 -1.0l0 -3.140625q-0.546875 -0.984375 -1.625 -0.984375q-0.859375 0 -1.34375 0.671875q-0.46875 0.65625 -0.46875 1.96875zm10.805695 3.359375q-0.09375 -0.203125 -0.15625 -0.71875q-0.828125 0.84375 -1.953125 0.84375q-1.015625 0 -1.671875 -0.5625q-0.65625 -0.578125 -0.65625 -1.46875q0 -1.078125 0.8125 -1.671875q0.828125 -0.59375 2.296875 -0.59375l1.140625 0l0 -0.53125q0 -0.609375 -0.375 -0.96875q-0.359375 -0.375 -1.078125 -0.375q-0.625 0 -1.046875 0.3125q-0.421875 0.3125 -0.421875 0.765625l-1.1875 0q0 -0.515625 0.359375 -0.984375q0.375 -0.484375 1.0 -0.765625q0.625 -0.28125 1.375 -0.28125q1.1875 0 1.859375 0.59375q0.671875 0.59375 0.703125 1.640625l0 3.15625q0 0.953125 0.234375 1.5l0 0.109375l-1.234375 0zm-1.9375 -0.890625q0.546875 0 1.03125 -0.28125q0.5 -0.296875 0.71875 -0.75l0 -1.40625l-0.90625 0q-2.171875 0 -2.171875 1.265625q0 0.546875 0.375 0.859375q0.375 0.3125 0.953125 0.3125zm6.062256 -5.984375l0.03125 0.875q0.796875 -1.0 2.0625 -1.0q2.171875 0 2.203125 2.46875l0 4.53125l-1.1875 0l0 -4.546875q0 -0.734375 -0.34375 -1.09375q-0.328125 -0.359375 -1.03125 -0.359375q-0.5625 0 -1.0 0.3125q-0.4375 0.296875 -0.671875 0.796875l0 4.890625l-1.171875 0l0 -6.875l1.109375 0zm7.5257874 6.875l-1.1875 0l0 -6.875l1.1875 0l0 6.875zm-1.28125 -8.6875q0 -0.28125 0.171875 -0.484375q0.1875 -0.203125 0.53125 -0.203125q0.34375 0 0.515625 0.203125q0.171875 0.203125 0.171875 0.484375q0 0.28125 -0.171875 0.46875q-0.171875 0.1875 -0.515625 0.1875q-0.34375 0 -0.53125 -0.1875q-0.171875 -0.1875 -0.171875 -0.46875zm4.3437805 7.734375l4.015625 0l0 0.953125l-5.453125 0l0 -0.859375l3.78125 -5.03125l-3.734375 0l0 -0.984375l5.21875 0l0 0.84375l-3.828125 5.078125zm8.339874 1.078125q-1.390625 0 -2.265625 -0.90625q-0.875 -0.921875 -0.875 -2.46875l0 -0.203125q0 -1.03125 0.390625 -1.828125q0.390625 -0.8125 1.09375 -1.265625q0.703125 -0.453125 1.515625 -0.453125q1.34375 0 2.0781555 0.890625q0.75 0.875 0.75 2.515625l0 0.5l-4.6562805 0q0.03125 1.015625 0.59375 1.640625q0.5625 0.625 1.4375 0.625q0.625 0 1.046875 -0.25q0.43753052 -0.265625 0.7656555 -0.6875l0.71875 0.5625q-0.859375 1.328125 -2.5937805 1.328125zm-0.140625 -6.15625q-0.71875 0 -1.203125 0.515625q-0.46875 0.515625 -0.59375 1.453125l3.4531555 0l0 -0.09375q-0.06253052 -0.890625 -0.5000305 -1.375q-0.421875 -0.5 -1.15625 -0.5zm4.0766907 2.546875q0 -1.59375 0.734375 -2.546875q0.75 -0.96875 1.96875 -0.96875q1.203125 0 1.90625 0.828125l0 -3.578125l1.1875 0l0 9.75l-1.09375 0l-0.046875 -0.734375q-0.703125 0.859375 -1.96875 0.859375q-1.1875 0 -1.9375 -0.96875q-0.75 -0.984375 -0.75 -2.5625l0 -0.078125zm1.171875 0.125q0 1.171875 0.484375 1.828125q0.484375 0.65625 1.328125 0.65625q1.109375 0 1.625 -1.0l0 -3.15625q-0.515625 -0.96875 -1.609375 -0.96875q-0.859375 0 -1.34375 0.671875q-0.484375 0.65625 -0.484375 1.96875z" fill-rule="nonzero"></path><path fill="#000000" d="m387.68323 376.18057l-1.1875 0l0 -6.875l1.1875 0l0 6.875zm-1.28125 -8.6875q0 -0.28125 0.171875 -0.484375q0.1875 -0.203125 0.53125 -0.203125q0.34375 0 0.515625 0.203125q0.171875 0.203125 0.171875 0.484375q0 0.28125 -0.171875 0.46875q-0.171875 0.1875 -0.515625 0.1875q-0.34375 0 -0.53125 -0.1875q-0.171875 -0.1875 -0.171875 -0.46875zm4.343811 1.8125l0.03125 0.875q0.796875 -1.0 2.0625 -1.0q2.171875 0 2.203125 2.46875l0 4.53125l-1.1875 0l0 -4.546875q0 -0.734375 -0.34375 -1.09375q-0.328125 -0.359375 -1.03125 -0.359375q-0.5625 0 -1.0 0.3125q-0.4375 0.296875 -0.671875 0.796875l0 4.890625l-1.171875 0l0 -6.875l1.109375 0zm7.838257 -1.65625l0 1.65625l1.28125 0l0 0.921875l-1.28125 0l0 4.25q0 0.421875 0.171875 0.625q0.171875 0.203125 0.578125 0.203125q0.203125 0 0.5625 -0.078125l0 0.953125q-0.46875 0.125 -0.90625 0.125q-0.78125 0 -1.1875 -0.46875q-0.390625 -0.484375 -0.390625 -1.359375l0 -4.25l-1.25 0l0 -0.921875l1.25 0l0 -1.65625l1.171875 0zm2.4475403 5.03125q0 -1.0 0.390625 -1.8125q0.40625 -0.8125 1.109375 -1.25q0.703125 -0.4375 1.609375 -0.4375q1.40625 0 2.265625 0.984375q0.875 0.96875 0.875 2.578125l0 0.078125q0 1.0 -0.390625 1.796875q-0.375 0.796875 -1.09375 1.25q-0.703125 0.4375 -1.640625 0.4375q-1.390625 0 -2.265625 -0.96875q-0.859375 -0.96875 -0.859375 -2.578125l0 -0.078125zm1.1875 0.140625q0 1.140625 0.515625 1.84375q0.53125 0.6875 1.421875 0.6875q0.90625 0 1.421875 -0.703125q0.53125 -0.703125 0.53125 -1.96875q0 -1.125 -0.546875 -1.828125q-0.53125 -0.703125 -1.421875 -0.703125q-0.859375 0 -1.390625 0.703125q-0.53125 0.6875 -0.53125 1.96875zm11.197571 -2.671875q0.78125 -0.96875 2.03125 -0.96875q2.171875 0 2.203125 2.46875l0 4.53125l-1.1875 0l0 -4.546875q0 -0.734375 -0.34375 -1.09375q-0.328125 -0.359375 -1.03125 -0.359375q-0.5625 0 -1.0 0.3125q-0.4375 0.296875 -0.671875 0.796875l0 4.890625l-1.171875 0l0 -9.75l1.171875 0l0 3.71875zm10.403381 6.03125q-0.09375 -0.203125 -0.15625 -0.71875q-0.828125 0.84375 -1.953125 0.84375q-1.015625 0 -1.671875 -0.5625q-0.65625 -0.578125 -0.65625 -1.46875q0 -1.078125 0.8125 -1.671875q0.828125 -0.59375 2.296875 -0.59375l1.140625 0l0 -0.53125q0 -0.609375 -0.375 -0.96875q-0.359375 -0.375 -1.078125 -0.375q-0.625 0 -1.046875 0.3125q-0.421875 0.3125 -0.421875 0.765625l-1.1875 0q0 -0.515625 0.359375 -0.984375q0.375 -0.484375 1.0 -0.765625q0.625 -0.28125 1.375 -0.28125q1.1875 0 1.859375 0.59375q0.671875 0.59375 0.703125 1.640625l0 3.15625q0 0.953125 0.234375 1.5l0 0.109375l-1.234375 0zm-1.9375 -0.890625q0.546875 0 1.03125 -0.28125q0.5 -0.296875 0.71875 -0.75l0 -1.40625l-0.90625 0q-2.171875 0 -2.171875 1.265625q0 0.546875 0.375 0.859375q0.375 0.3125 0.953125 0.3125zm8.952881 -0.9375q0 -0.46875 -0.359375 -0.734375q-0.359375 -0.265625 -1.25 -0.453125q-0.890625 -0.1875 -1.421875 -0.453125q-0.515625 -0.265625 -0.765625 -0.625q-0.25 -0.375 -0.25 -0.890625q0 -0.84375 0.703125 -1.421875q0.71875 -0.59375 1.828125 -0.59375q1.171875 0 1.890625 0.609375q0.734375 0.59375 0.734375 1.546875l-1.1875 0q0 -0.484375 -0.40625 -0.828125q-0.40625 -0.359375 -1.03125 -0.359375q-0.640625 0 -1.0 0.28125q-0.359375 0.28125 -0.359375 0.734375q0 0.421875 0.328125 0.640625q0.34375 0.203125 1.21875 0.40625q0.875 0.203125 1.421875 0.484375q0.546875 0.265625 0.8125 0.65625q0.265625 0.375 0.265625 0.921875q0 0.921875 -0.734375 1.484375q-0.734375 0.546875 -1.90625 0.546875q-0.828125 0 -1.46875 -0.28125q-0.625 -0.296875 -0.984375 -0.8125q-0.359375 -0.53125 -0.359375 -1.140625l1.171875 0q0.03125 0.578125 0.46875 0.9375q0.4375 0.34375 1.171875 0.34375q0.65625 0 1.0625 -0.265625q0.40625 -0.28125 0.40625 -0.734375zm4.0441895 -4.203125q0.78125 -0.96875 2.03125 -0.96875q2.171875 0 2.203125 2.46875l0 4.53125l-1.1875 0l0 -4.546875q0 -0.734375 -0.34375 -1.09375q-0.328125 -0.359375 -1.03125 -0.359375q-0.5625 0 -1.0 0.3125q-0.4375 0.296875 -0.671875 0.796875l0 4.890625l-1.171875 0l0 -9.75l1.171875 0l0 3.71875zm9.012756 6.15625q-1.390625 0 -2.265625 -0.90625q-0.875 -0.921875 -0.875 -2.46875l0 -0.203125q0 -1.03125 0.390625 -1.828125q0.390625 -0.8125 1.09375 -1.265625q0.703125 -0.453125 1.515625 -0.453125q1.34375 0 2.078125 0.890625q0.75 0.875 0.75 2.515625l0 0.5l-4.65625 0q0.03125 1.015625 0.59375 1.640625q0.5625 0.625 1.4375 0.625q0.625 0 1.046875 -0.25q0.4375 -0.265625 0.765625 -0.6875l0.71875 0.5625q-0.859375 1.328125 -2.59375 1.328125zm-0.140625 -6.15625q-0.71875 0 -1.203125 0.515625q-0.46875 0.515625 -0.59375 1.453125l3.453125 0l0 -0.09375q-0.0625 -0.890625 -0.5 -1.375q-0.421875 -0.5 -1.15625 -0.5zm4.0766907 2.546875q0 -1.59375 0.734375 -2.546875q0.75 -0.96875 1.96875 -0.96875q1.203125 0 1.90625 0.828125l0 -3.578125l1.1875 0l0 9.75l-1.09375 0l-0.046875 -0.734375q-0.703125 0.859375 -1.96875 0.859375q-1.1875 0 -1.9375 -0.96875q-0.75 -0.984375 -0.75 -2.5625l0 -0.078125zm1.171875 0.125q0 1.171875 0.484375 1.828125q0.484375 0.65625 1.328125 0.65625q1.109375 0 1.625 -1.0l0 -3.15625q-0.515625 -0.96875 -1.609375 -0.96875q-0.859375 0 -1.34375 0.671875q-0.484375 0.65625 -0.484375 1.96875zm9.644226 -0.125q0 -1.59375 0.734375 -2.546875q0.75 -0.96875 1.96875 -0.96875q1.203125 0 1.90625 0.828125l0 -3.578125l1.1875 0l0 9.75l-1.09375 0l-0.046875 -0.734375q-0.703125 0.859375 -1.96875 0.859375q-1.1875 0 -1.9375 -0.96875q-0.75 -0.984375 -0.75 -2.5625l0 -0.078125zm1.171875 0.125q0 1.171875 0.484375 1.828125q0.484375 0.65625 1.328125 0.65625q1.109375 0 1.625 -1.0l0 -3.15625q-0.515625 -0.96875 -1.609375 -0.96875q-0.859375 0 -1.34375 0.671875q-0.484375 0.65625 -0.484375 1.96875zm7.9072266 3.359375l-1.1875 0l0 -6.875l1.1875 0l0 6.875zm-1.28125 -8.6875q0 -0.28125 0.171875 -0.484375q0.1875 -0.203125 0.53125 -0.203125q0.34375 0 0.515625 0.203125q0.171875 0.203125 0.171875 0.484375q0 0.28125 -0.171875 0.46875q-0.171875 0.1875 -0.515625 0.1875q-0.34375 0 -0.53125 -0.1875q-0.171875 -0.1875 -0.171875 -0.46875zm6.5469055 2.875q-0.265625 -0.046875 -0.578125 -0.046875q-1.15625 0 -1.5625 0.984375l0 4.875l-1.171875 0l0 -6.875l1.140625 0l0.015625 0.796875q0.578125 -0.921875 1.640625 -0.921875q0.34375 0 0.515625 0.09375l0 1.09375zm4.0412292 5.9375q-1.390625 0 -2.265625 -0.90625q-0.875 -0.921875 -0.875 -2.46875l0 -0.203125q0 -1.03125 0.390625 -1.828125q0.390625 -0.8125 1.09375 -1.265625q0.703125 -0.453125 1.515625 -0.453125q1.34375 0 2.078125 0.890625q0.75 0.875 0.75 2.515625l0 0.5l-4.65625 0q0.03125 1.015625 0.59375 1.640625q0.5625 0.625 1.4375 0.625q0.625 0 1.046875 -0.25q0.4375 -0.265625 0.765625 -0.6875l0.71875 0.5625q-0.859375 1.328125 -2.59375 1.328125zm-0.140625 -6.15625q-0.71875 0 -1.203125 0.515625q-0.46875 0.515625 -0.59375 1.453125l3.453125 0l0 -0.09375q-0.0625 -0.890625 -0.5 -1.375q-0.421875 -0.5 -1.15625 -0.5zm7.10791 5.203125q0.625 0 1.09375 -0.375q0.484375 -0.390625 0.53125 -0.96875l1.109375 0q-0.03125 0.59375 -0.40625 1.125q-0.375 0.53125 -1.0 0.859375q-0.625 0.3125 -1.328125 0.3125q-1.40625 0 -2.234375 -0.9375q-0.828125 -0.9375 -0.828125 -2.5625l0 -0.1875q0 -1.015625 0.375 -1.78125q0.375 -0.78125 1.0625 -1.21875q0.6875 -0.4375 1.625 -0.4375q1.15625 0 1.921875 0.703125q0.765625 0.6875 0.8125 1.796875l-1.109375 0q-0.046875 -0.671875 -0.515625 -1.09375q-0.453125 -0.4375 -1.109375 -0.4375q-0.890625 0 -1.390625 0.65625q-0.484375 0.640625 -0.484375 1.859375l0 0.21875q0 1.1875 0.484375 1.828125q0.484375 0.640625 1.390625 0.640625zm5.8201904 -7.703125l0 1.65625l1.28125 0l0 0.921875l-1.28125 0l0 4.25q0 0.421875 0.171875 0.625q0.171875 0.203125 0.578125 0.203125q0.203125 0 0.5625 -0.078125l0 0.953125q-0.46875 0.125 -0.90625 0.125q-0.78125 0 -1.1875 -0.46875q-0.390625 -0.484375 -0.390625 -1.359375l0 -4.25l-1.25 0l0 -0.921875l1.25 0l0 -1.65625l1.171875 0zm2.4475403 5.03125q0 -1.0 0.390625 -1.8125q0.40625 -0.8125 1.109375 -1.25q0.703125 -0.4375 1.609375 -0.4375q1.40625 0 2.265625 0.984375q0.875 0.96875 0.875 2.578125l0 0.078125q0 1.0 -0.390625 1.796875q-0.375 0.796875 -1.09375 1.25q-0.703125 0.4375 -1.640625 0.4375q-1.390625 0 -2.265625 -0.96875q-0.859375 -0.96875 -0.859375 -2.578125l0 -0.078125zm1.1875 0.140625q0 1.140625 0.515625 1.84375q0.53125 0.6875 1.421875 0.6875q0.90625 0 1.421875 -0.703125q0.53125 -0.703125 0.53125 -1.96875q0 -1.125 -0.546875 -1.828125q-0.53125 -0.703125 -1.421875 -0.703125q-0.859375 0 -1.390625 0.703125q-0.53125 0.6875 -0.53125 1.96875zm10.038696 -2.453125q-0.265625 -0.046875 -0.578125 -0.046875q-1.15625 0 -1.5625 0.984375l0 4.875l-1.171875 0l0 -6.875l1.140625 0l0.015625 0.796875q0.578125 -0.921875 1.640625 -0.921875q0.34375 0 0.515625 0.09375l0 1.09375zm2.4786987 5.8125l-1.1875 0l0 -6.875l1.1875 0l0 6.875zm-1.28125 -8.6875q0 -0.28125 0.171875 -0.484375q0.1875 -0.203125 0.53125 -0.203125q0.34375 0 0.515625 0.203125q0.171875 0.203125 0.171875 0.484375q0 0.28125 -0.171875 0.46875q-0.171875 0.1875 -0.515625 0.1875q-0.34375 0 -0.53125 -0.1875q-0.171875 -0.1875 -0.171875 -0.46875zm6.078186 8.8125q-1.390625 0 -2.265625 -0.90625q-0.875 -0.921875 -0.875 -2.46875l0 -0.203125q0 -1.03125 0.390625 -1.828125q0.390625 -0.8125 1.09375 -1.265625q0.703125 -0.453125 1.515625 -0.453125q1.34375 0 2.0780945 0.890625q0.75 0.875 0.75 2.515625l0 0.5l-4.6562195 0q0.03125 1.015625 0.59375 1.640625q0.5625 0.625 1.4375 0.625q0.625 0 1.046875 -0.25q0.43746948 -0.265625 0.7655945 -0.6875l0.71875 0.5625q-0.859375 1.328125 -2.5937195 1.328125zm-0.140625 -6.15625q-0.71875 0 -1.203125 0.515625q-0.46875 0.515625 -0.59375 1.453125l3.4530945 0l0 -0.09375q-0.0625 -0.890625 -0.49996948 -1.375q-0.421875 -0.5 -1.15625 -0.5zm8.357941 4.203125q0 -0.46875 -0.359375 -0.734375q-0.359375 -0.265625 -1.25 -0.453125q-0.890625 -0.1875 -1.421875 -0.453125q-0.515625 -0.265625 -0.765625 -0.625q-0.25 -0.375 -0.25 -0.890625q0 -0.84375 0.703125 -1.421875q0.71875 -0.59375 1.828125 -0.59375q1.171875 0 1.890625 0.609375q0.734375 0.59375 0.734375 1.546875l-1.1875 0q0 -0.484375 -0.40625 -0.828125q-0.40625 -0.359375 -1.03125 -0.359375q-0.640625 0 -1.0 0.28125q-0.359375 0.28125 -0.359375 0.734375q0 0.421875 0.328125 0.640625q0.34375 0.203125 1.21875 0.40625q0.875 0.203125 1.421875 0.484375q0.546875 0.265625 0.8125 0.65625q0.265625 0.375 0.265625 0.921875q0 0.921875 -0.734375 1.484375q-0.734375 0.546875 -1.90625 0.546875q-0.828125 0 -1.46875 -0.28125q-0.625 -0.296875 -0.984375 -0.8125q-0.359375 -0.53125 -0.359375 -1.140625l1.171875 0q0.03125 0.578125 0.46875 0.9375q0.4375 0.34375 1.171875 0.34375q0.65625 0 1.0625 -0.265625q0.40625 -0.28125 0.40625 -0.734375z" fill-rule="nonzero"></path><path fill="#ffffff" d="m22.179758 261.14612l0 0c0 -3.4283447 7.6586304 -6.2075653 17.106028 -6.2075653c9.447399 0 17.10603 2.7792206 17.10603 6.2075653l0 24.830261c0 3.4283447 -7.6586304 6.2075806 -17.10603 6.2075806c-9.447397 0 -17.106028 -2.7792358 -17.106028 -6.2075806z" fill-rule="nonzero"></path><path fill="#000000" fill-opacity="0.0" d="m56.391815 261.14612l0 0c0 3.4283447 -7.6586304 6.2075806 -17.10603 6.2075806c-9.447397 0 -17.106028 -2.7792358 -17.106028 -6.2075806" fill-rule="nonzero"></path><path fill="#000000" fill-opacity="0.0" d="m22.179758 261.14612l0 0c0 -3.4283447 7.6586304 -6.2075653 17.106028 -6.2075653c9.447399 0 17.10603 2.7792206 17.10603 6.2075653l0 24.830261c0 3.4283447 -7.6586304 6.2075806 -17.10603 6.2075806c-9.447397 0 -17.106028 -2.7792358 -17.106028 -6.2075806z" fill-rule="nonzero"></path><path stroke="#660000" stroke-width="4.0" stroke-linejoin="round" stroke-linecap="butt" d="m56.391815 261.14612l0 0c0 3.4283447 -7.6586304 6.2075806 -17.10603 6.2075806c-9.447397 0 -17.106028 -2.7792358 -17.106028 -6.2075806" fill-rule="nonzero"></path><path stroke="#660000" stroke-width="4.0" stroke-linejoin="round" stroke-linecap="butt" d="m22.179758 261.14612l0 0c0 -3.4283447 7.6586304 -6.2075653 17.106028 -6.2075653c9.447399 0 17.10603 2.7792206 17.10603 6.2075653l0 24.830261c0 3.4283447 -7.6586304 6.2075806 -17.10603 6.2075806c-9.447397 0 -17.106028 -2.7792358 -17.106028 -6.2075806z" fill-rule="nonzero"></path><path fill="#ffffff" d="m63.188614 261.14612l0 0c0 -3.4283447 7.6586304 -6.2075653 17.106026 -6.2075653c9.447403 0 17.106033 2.7792206 17.106033 6.2075653l0 24.830261c0 3.4283447 -7.6586304 6.2075806 -17.106033 6.2075806c-9.447395 0 -17.106026 -2.7792358 -17.106026 -6.2075806z" fill-rule="nonzero"></path><path fill="#000000" fill-opacity="0.0" d="m97.40067 261.14612l0 0c0 3.4283447 -7.6586304 6.2075806 -17.106033 6.2075806c-9.447395 0 -17.106026 -2.7792358 -17.106026 -6.2075806" fill-rule="nonzero"></path><path fill="#000000" fill-opacity="0.0" d="m63.188614 261.14612l0 0c0 -3.4283447 7.6586304 -6.2075653 17.106026 -6.2075653c9.447403 0 17.106033 2.7792206 17.106033 6.2075653l0 24.830261c0 3.4283447 -7.6586304 6.2075806 -17.106033 6.2075806c-9.447395 0 -17.106026 -2.7792358 -17.106026 -6.2075806z" fill-rule="nonzero"></path><path stroke="#660000" stroke-width="4.0" stroke-linejoin="round" stroke-linecap="butt" d="m97.40067 261.14612l0 0c0 3.4283447 -7.6586304 6.2075806 -17.106033 6.2075806c-9.447395 0 -17.106026 -2.7792358 -17.106026 -6.2075806" fill-rule="nonzero"></path><path stroke="#660000" stroke-width="4.0" stroke-linejoin="round" stroke-linecap="butt" d="m63.188614 261.14612l0 0c0 -3.4283447 7.6586304 -6.2075653 17.106026 -6.2075653c9.447403 0 17.106033 2.7792206 17.106033 6.2075653l0 24.830261c0 3.4283447 -7.6586304 6.2075806 -17.106033 6.2075806c-9.447395 0 -17.106026 -2.7792358 -17.106026 -6.2075806z" fill-rule="nonzero"></path><path fill="#ffffff" d="m104.19747 261.14612l0 0c0 -3.4283447 7.6586304 -6.2075653 17.106026 -6.2075653c9.447403 0 17.106033 2.7792206 17.106033 6.2075653l0 24.830261c0 3.4283447 -7.6586304 6.2075806 -17.106033 6.2075806c-9.447395 0 -17.106026 -2.7792358 -17.106026 -6.2075806z" fill-rule="nonzero"></path><path fill="#000000" fill-opacity="0.0" d="m138.40953 261.14612l0 0c0 3.4283447 -7.6586304 6.2075806 -17.106033 6.2075806c-9.447395 0 -17.106026 -2.7792358 -17.106026 -6.2075806" fill-rule="nonzero"></path><path fill="#000000" fill-opacity="0.0" d="m104.19747 261.14612l0 0c0 -3.4283447 7.6586304 -6.2075653 17.106026 -6.2075653c9.447403 0 17.106033 2.7792206 17.106033 6.2075653l0 24.830261c0 3.4283447 -7.6586304 6.2075806 -17.106033 6.2075806c-9.447395 0 -17.106026 -2.7792358 -17.106026 -6.2075806z" fill-rule="nonzero"></path><path stroke="#660000" stroke-width="4.0" stroke-linejoin="round" stroke-linecap="butt" d="m138.40953 261.14612l0 0c0 3.4283447 -7.6586304 6.2075806 -17.106033 6.2075806c-9.447395 0 -17.106026 -2.7792358 -17.106026 -6.2075806" fill-rule="nonzero"></path><path stroke="#660000" stroke-width="4.0" stroke-linejoin="round" stroke-linecap="butt" d="m104.19747 261.14612l0 0c0 -3.4283447 7.6586304 -6.2075653 17.106026 -6.2075653c9.447403 0 17.106033 2.7792206 17.106033 6.2075653l0 24.830261c0 3.4283447 -7.6586304 6.2075806 -17.106033 6.2075806c-9.447395 0 -17.106026 -2.7792358 -17.106026 -6.2075806z" fill-rule="nonzero"></path><path fill="#ffffff" d="m145.20633 261.14612l0 0c0 -3.4283447 7.6586304 -6.2075653 17.106018 -6.2075653c9.447403 0 17.106033 2.7792206 17.106033 6.2075653l0 24.830261c0 3.4283447 -7.6586304 6.2075806 -17.106033 6.2075806c-9.447388 0 -17.106018 -2.7792358 -17.106018 -6.2075806z" fill-rule="nonzero"></path><path fill="#000000" fill-opacity="0.0" d="m179.41838 261.14612l0 0c0 3.4283447 -7.6586304 6.2075806 -17.106033 6.2075806c-9.447388 0 -17.106018 -2.7792358 -17.106018 -6.2075806" fill-rule="nonzero"></path><path fill="#000000" fill-opacity="0.0" d="m145.20633 261.14612l0 0c0 -3.4283447 7.6586304 -6.2075653 17.106018 -6.2075653c9.447403 0 17.106033 2.7792206 17.106033 6.2075653l0 24.830261c0 3.4283447 -7.6586304 6.2075806 -17.106033 6.2075806c-9.447388 0 -17.106018 -2.7792358 -17.106018 -6.2075806z" fill-rule="nonzero"></path><path stroke="#660000" stroke-width="4.0" stroke-linejoin="round" stroke-linecap="butt" d="m179.41838 261.14612l0 0c0 3.4283447 -7.6586304 6.2075806 -17.106033 6.2075806c-9.447388 0 -17.106018 -2.7792358 -17.106018 -6.2075806" fill-rule="nonzero"></path><path stroke="#660000" stroke-width="4.0" stroke-linejoin="round" stroke-linecap="butt" d="m145.20633 261.14612l0 0c0 -3.4283447 7.6586304 -6.2075653 17.106018 -6.2075653c9.447403 0 17.106033 2.7792206 17.106033 6.2075653l0 24.830261c0 3.4283447 -7.6586304 6.2075806 -17.106033 6.2075806c-9.447388 0 -17.106018 -2.7792358 -17.106018 -6.2075806z" fill-rule="nonzero"></path><path fill="#000000" fill-opacity="0.0" d="m183.72704 164.0461l154.96062 -135.55905" fill-rule="nonzero"></path><path stroke="#cccccc" stroke-width="4.0" stroke-linejoin="round" stroke-linecap="butt" stroke-dasharray="16.0,12.0" d="m183.72704 164.0461l154.96062 -135.55905" fill-rule="nonzero"></path><path fill="#000000" fill-opacity="0.0" d="m183.2126 200.47507l178.01573 126.48819" fill-rule="nonzero"></path><path stroke="#cccccc" stroke-width="4.0" stroke-linejoin="round" stroke-linecap="butt" stroke-dasharray="16.0,12.0" d="m183.2126 200.47507l178.01573 126.48819" fill-rule="nonzero"></path><path fill="#000000" fill-opacity="0.0" d="m19.612284 337.86838l167.27559 0l0 51.02362l-167.27559 0z" fill-rule="nonzero"></path><path fill="#000000" d="m65.81629 353.05518q-1.5625 -0.453125 -2.2812462 -1.109375q-0.71875 -0.65625 -0.71875 -1.609375q0 -1.09375 0.875 -1.8125q0.8749962 -0.71875 2.2656212 -0.71875q0.953125 0 1.703125 0.375q0.75 0.359375 1.15625 1.015625q0.40625 0.640625 0.40625 1.421875l-1.21875 0q0 -0.84375 -0.546875 -1.3125q-0.53125 -0.484375 -1.5 -0.484375q-0.890625 0 -1.40625 0.390625q-0.5 0.390625 -0.5 1.09375q0 0.578125 0.46875 0.96875q0.484375 0.390625 1.640625 0.71875q1.15625 0.3125 1.796875 0.703125q0.65625 0.390625 0.96875 0.921875q0.3125 0.515625 0.3125 1.21875q0 1.125 -0.875 1.796875q-0.875 0.671875 -2.34375 0.671875q-0.953125 0 -1.78125 -0.359375q-0.8124962 -0.375 -1.2656212 -1.0q-0.4375 -0.640625 -0.4375 -1.4375l1.21875 0q0 0.828125 0.6093712 1.3125q0.625 0.484375 1.65625 0.484375q0.96875 0 1.484375 -0.390625q0.515625 -0.390625 0.515625 -1.0625q0 -0.6875 -0.484375 -1.0625q-0.46875 -0.375 -1.71875 -0.734375zm6.172699 -1.90625q0.78125 -0.96875 2.03125 -0.96875q2.171875 0 2.203125 2.46875l0 4.53125l-1.1875 0l0 -4.546875q0 -0.734375 -0.34375 -1.09375q-0.328125 -0.359375 -1.03125 -0.359375q-0.5625 0 -1.0 0.3125q-0.4375 0.296875 -0.671875 0.796875l0 4.890625l-1.171875 0l0 -9.75l1.171875 0l0 3.71875zm10.403381 6.03125q-0.09375 -0.203125 -0.15625 -0.71875q-0.828125 0.84375 -1.953125 0.84375q-1.015625 0 -1.671875 -0.5625q-0.65625 -0.578125 -0.65625 -1.46875q0 -1.078125 0.8125 -1.671875q0.828125 -0.59375 2.296875 -0.59375l1.140625 0l0 -0.53125q0 -0.609375 -0.375 -0.96875q-0.359375 -0.375 -1.078125 -0.375q-0.625 0 -1.046875 0.3125q-0.421875 0.3125 -0.421875 0.765625l-1.1875 0q0 -0.515625 0.359375 -0.984375q0.375 -0.484375 1.0 -0.765625q0.625 -0.28125 1.375 -0.28125q1.1875 0 1.859375 0.59375q0.671875 0.59375 0.703125 1.640625l0 3.15625q0 0.953125 0.234375 1.5l0 0.109375l-1.234375 0zm-1.9375 -0.890625q0.546875 0 1.03125 -0.28125q0.5 -0.296875 0.71875 -0.75l0 -1.40625l-0.90625 0q-2.171875 0 -2.171875 1.265625q0 0.546875 0.375 0.859375q0.375 0.3125 0.953125 0.3125zm8.265396 -4.921875q-0.265625 -0.046875 -0.578125 -0.046875q-1.15625 0 -1.5625 0.984375l0 4.875l-1.171875 0l0 -6.875l1.140625 0l0.015625 0.796875q0.578125 -0.921875 1.640625 -0.921875q0.34375 0 0.515625 0.09375l0 1.09375zm4.041214 5.9375q-1.390625 0 -2.265625 -0.90625q-0.875 -0.921875 -0.875 -2.46875l0 -0.203125q0 -1.03125 0.390625 -1.828125q0.390625 -0.8125 1.09375 -1.265625q0.703125 -0.453125 1.515625 -0.453125q1.34375 0 2.078125 0.890625q0.75 0.875 0.75 2.515625l0 0.5l-4.65625 0q0.03125 1.015625 0.59375 1.640625q0.5625 0.625 1.4375 0.625q0.625 0 1.046875 -0.25q0.4375 -0.265625 0.765625 -0.6875l0.71875 0.5625q-0.859375 1.328125 -2.59375 1.328125zm-0.140625 -6.15625q-0.71875 0 -1.203125 0.515625q-0.46875 0.515625 -0.59375 1.453125l3.453125 0l0 -0.09375q-0.0625 -0.890625 -0.5 -1.375q-0.421875 -0.5 -1.15625 -0.5zm6.7954254 2.578125l-3.09375 0l0 -0.953125l3.09375 0l0 0.953125zm2.3488312 -3.421875l0.03125 0.875q0.796875 -1.0 2.0625 -1.0q2.171875 0 2.203125 2.46875l0 4.53125l-1.1875 0l0 -4.546875q0 -0.734375 -0.34375 -1.09375q-0.328125 -0.359375 -1.03125 -0.359375q-0.5625 0 -1.0 0.3125q-0.4375 0.296875 -0.671875 0.796875l0 4.890625l-1.171875 0l0 -6.875l1.109375 0zm5.932022 3.375q0 -1.0 0.390625 -1.8125q0.40625 -0.8125 1.109375 -1.25q0.703125 -0.4375 1.609375 -0.4375q1.40625 0 2.265625 0.984375q0.875 0.96875 0.875 2.578125l0 0.078125q0 1.0 -0.390625 1.796875q-0.375 0.796875 -1.09375 1.25q-0.703125 0.4375 -1.640625 0.4375q-1.390625 0 -2.265625 -0.96875q-0.859375 -0.96875 -0.859375 -2.578125l0 -0.078125zm1.1875 0.140625q0 1.140625 0.515625 1.84375q0.53125 0.6875 1.421875 0.6875q0.90625 0 1.421875 -0.703125q0.53125 -0.703125 0.53125 -1.96875q0 -1.125 -0.546875 -1.828125q-0.53125 -0.703125 -1.421875 -0.703125q-0.859375 0 -1.390625 0.703125q-0.53125 0.6875 -0.53125 1.96875zm8.319946 -5.171875l0 1.65625l1.28125 0l0 0.921875l-1.28125 0l0 4.25q0 0.421875 0.171875 0.625q0.171875 0.203125 0.578125 0.203125q0.203125 0 0.5625 -0.078125l0 0.953125q-0.46875 0.125 -0.90625 0.125q-0.78125 0 -1.1875 -0.46875q-0.390625 -0.484375 -0.390625 -1.359375l0 -4.25l-1.25 0l0 -0.921875l1.25 0l0 -1.65625l1.171875 0zm3.9319 2.5q0.78125 -0.96875 2.03125 -0.96875q2.171875 0 2.203125 2.46875l0 4.53125l-1.1875 0l0 -4.546875q0 -0.734375 -0.34375 -1.09375q-0.328125 -0.359375 -1.03125 -0.359375q-0.5625 0 -1.0 0.3125q-0.4375 0.296875 -0.671875 0.796875l0 4.890625l-1.171875 0l0 -9.75l1.171875 0l0 3.71875zm7.450264 6.03125l-1.1875076 0l0 -6.875l1.1875076 0l0 6.875zm-1.2812576 -8.6875q0 -0.28125 0.171875 -0.484375q0.1875 -0.203125 0.5312576 -0.203125q0.34375 0 0.515625 0.203125q0.171875 0.203125 0.171875 0.484375q0 0.28125 -0.171875 0.46875q-0.171875 0.1875 -0.515625 0.1875q-0.34375763 0 -0.5312576 -0.1875q-0.171875 -0.1875 -0.171875 -0.46875zm4.3438034 1.8125l0.03125 0.875q0.796875 -1.0 2.0625 -1.0q2.171875 0 2.203125 2.46875l0 4.53125l-1.1875 0l0 -4.546875q0 -0.734375 -0.34375 -1.09375q-0.328125 -0.359375 -1.03125 -0.359375q-0.5625 0 -1.0 0.3125q-0.4375 0.296875 -0.671875 0.796875l0 4.890625l-1.171875 0l0 -6.875l1.109375 0zm5.963272 3.390625q0 -1.609375 0.734375 -2.5625q0.75 -0.953125 1.96875 -0.953125q1.265625 0 1.96875 0.890625l0.0625 -0.765625l1.0625 0l0 6.703125q0 1.34375 -0.796875 2.109375q-0.78125 0.765625 -2.109375 0.765625q-0.75 0 -1.46875 -0.328125q-0.703125 -0.3125 -1.078125 -0.859375l0.609375 -0.703125q0.765625 0.9375 1.859375 0.9375q0.84375 0 1.328125 -0.484375q0.484375 -0.484375 0.484375 -1.359375l0 -0.59375q-0.703125 0.8125 -1.921875 0.8125q-1.21875 0 -1.96875 -0.96875q-0.734375 -0.96875 -0.734375 -2.640625zm1.1875 0.125q0 1.15625 0.46875 1.828125q0.484375 0.65625 1.328125 0.65625q1.109375 0 1.640625 -1.0l0 -3.140625q-0.546875 -0.984375 -1.625 -0.984375q-0.859375 0 -1.34375 0.671875q-0.46875 0.65625 -0.46875 1.96875z" fill-rule="nonzero"></path><path fill="#000000" d="m54.002254 373.27393l0.1875 1.21875l0.25 -1.109375l1.828125 -6.453125l1.03125 0l1.78125 6.453125l0.25 1.125l0.203125 -1.25l1.4375 -6.328125l1.21875 0l-2.234375 9.25l-1.109375 0l-1.90625 -6.734375l-0.140625 -0.703125l-0.15625 0.703125l-1.96875 6.734375l-1.109375 0l-2.234375 -9.25l1.21875 0l1.453125 6.34375zm12.496685 3.03125q-1.390625 0 -2.265625 -0.90625q-0.8749962 -0.921875 -0.8749962 -2.46875l0 -0.203125q0 -1.03125 0.390625 -1.828125q0.3906212 -0.8125 1.0937462 -1.265625q0.703125 -0.453125 1.515625 -0.453125q1.34375 0 2.078125 0.890625q0.75 0.875 0.75 2.515625l0 0.5l-4.65625 0q0.03125 1.015625 0.59375 1.640625q0.5625 0.625 1.4375 0.625q0.625 0 1.046875 -0.25q0.4375 -0.265625 0.765625 -0.6875l0.71875 0.5625q-0.859375 1.328125 -2.59375 1.328125zm-0.140625 -6.15625q-0.71875 0 -1.203125 0.515625q-0.46875 0.515625 -0.59375 1.453125l3.453125 0l0 -0.09375q-0.0625 -0.890625 -0.5 -1.375q-0.421875 -0.5 -1.15625 -0.5zm10.170425 2.671875q0 1.578125 -0.734375 2.53125q-0.71875 0.953125 -1.9375 0.953125q-1.296875 0 -2.0 -0.921875l-0.0625 0.796875l-1.078125 0l0 -9.75l1.171875 0l0 3.640625q0.71875 -0.890625 1.96875 -0.890625q1.25 0 1.953125 0.953125q0.71875 0.9375 0.71875 2.59375l0 0.09375zm-1.171875 -0.125q0 -1.203125 -0.46875 -1.859375q-0.453125 -0.65625 -1.328125 -0.65625q-1.15625 0 -1.671875 1.078125l0 2.96875q0.546875 1.078125 1.6875 1.078125q0.84375 0 1.3125 -0.640625q0.46875 -0.65625 0.46875 -1.96875zm3.0244293 3.484375l0 -9.25l2.609375 0q1.203125 0 2.125 0.546875q0.921875 0.53125 1.421875 1.515625q0.515625 0.984375 0.515625 2.25l0 0.59375q0 1.3125 -0.5 2.296875q-0.5 0.984375 -1.4375 1.515625q-0.9375 0.515625 -2.1875 0.53125l-2.546875 0zm1.21875 -8.234375l0 7.234375l1.28125 0q1.40625 0 2.1875 -0.875q0.78125 -0.875 0.78125 -2.5l0 -0.53125q0 -1.578125 -0.734375 -2.453125q-0.734375 -0.875 -2.09375 -0.875l-1.421875 0zm12.615082 5.828125l-3.875 0l-0.859375 2.40625l-1.265625 0l3.53125 -9.25l1.078125 0l3.53125 9.25l-1.25 0l-0.890625 -2.40625zm-3.5 -1.015625l3.140625 0l-1.578125 -4.3125l-1.5625 4.3125zm10.147644 1.796875l2.640625 -7.625l1.34375 0l-3.4375 9.25l-1.078125 0l-3.421875 -9.25l1.328125 0l2.625 7.625zm12.544891 -0.203125q0 -0.46875 -0.359375 -0.734375q-0.359375 -0.265625 -1.25 -0.453125q-0.890625 -0.1875 -1.421875 -0.453125q-0.515625 -0.265625 -0.765625 -0.625q-0.25 -0.375 -0.25 -0.890625q0 -0.84375 0.703125 -1.421875q0.71875 -0.59375 1.828125 -0.59375q1.171875 0 1.890625 0.609375q0.734375 0.59375 0.734375 1.546875l-1.1875 0q0 -0.484375 -0.40625 -0.828125q-0.40625 -0.359375 -1.03125 -0.359375q-0.640625 0 -1.0 0.28125q-0.359375 0.28125 -0.359375 0.734375q0 0.421875 0.328125 0.640625q0.34375 0.203125 1.21875 0.40625q0.875 0.203125 1.421875 0.484375q0.546875 0.265625 0.8125 0.65625q0.265625 0.375 0.265625 0.921875q0 0.921875 -0.734375 1.484375q-0.734375 0.546875 -1.90625 0.546875q-0.828125 0 -1.46875 -0.28125q-0.625 -0.296875 -0.984375 -0.8125q-0.359375 -0.53125 -0.359375 -1.140625l1.171875 0q0.03125 0.578125 0.46875 0.9375q0.4375 0.34375 1.171875 0.34375q0.65625 0 1.0625 -0.265625q0.40625 -0.28125 0.40625 -0.734375zm5.7160645 1.953125q-1.390625 0 -2.265625 -0.90625q-0.875 -0.921875 -0.875 -2.46875l0 -0.203125q0 -1.03125 0.390625 -1.828125q0.390625 -0.8125 1.09375 -1.265625q0.703125 -0.453125 1.515625 -0.453125q1.34375 0 2.078125 0.890625q0.75 0.875 0.75 2.515625l0 0.5l-4.65625 0q0.03125 1.015625 0.59375 1.640625q0.5625 0.625 1.4375 0.625q0.625 0 1.046875 -0.25q0.4375 -0.265625 0.765625 -0.6875l0.71875 0.5625q-0.859375 1.328125 -2.59375 1.328125zm-0.140625 -6.15625q-0.71875 0 -1.203125 0.515625q-0.46875 0.515625 -0.59375 1.453125l3.453125 0l0 -0.09375q-0.0625 -0.890625 -0.5 -1.375q-0.421875 -0.5 -1.15625 -0.5zm7.6704254 0.21875q-0.265625 -0.046875 -0.578125 -0.046875q-1.15625 0 -1.5625 0.984375l0 4.875l-1.171875 0l0 -6.875l1.140625 0l0.015625 0.796875q0.578125 -0.921875 1.640625 -0.921875q0.34375 0 0.515625 0.09375l0 1.09375zm3.4630966 4.21875l1.703125 -5.28125l1.203125 0l-2.46875 6.875l-0.8906326 0l-2.5 -6.875l1.203125 0l1.7500076 5.28125zm5.4714355 1.59375l-1.1875 0l0 -6.875l1.1875 0l0 6.875zm-1.28125 -8.6875q0 -0.28125 0.171875 -0.484375q0.1875 -0.203125 0.53125 -0.203125q0.34375 0 0.515625 0.203125q0.171875 0.203125 0.171875 0.484375q0 0.28125 -0.171875 0.46875q-0.171875 0.1875 -0.515625 0.1875q-0.34375 0 -0.53125 -0.1875q-0.171875 -0.1875 -0.171875 -0.46875zm5.984421 7.859375q0.625 0 1.09375 -0.375q0.484375 -0.390625 0.53125 -0.96875l1.109375 0q-0.03125 0.59375 -0.40625 1.125q-0.375 0.53125 -1.0 0.859375q-0.625 0.3125 -1.328125 0.3125q-1.40625 0 -2.234375 -0.9375q-0.828125 -0.9375 -0.828125 -2.5625l0 -0.1875q0 -1.015625 0.375 -1.78125q0.375 -0.78125 1.0625 -1.21875q0.6875 -0.4375 1.625 -0.4375q1.15625 0 1.921875 0.703125q0.765625 0.6875 0.8125 1.796875l-1.109375 0q-0.046875 -0.671875 -0.515625 -1.09375q-0.453125 -0.4375 -1.109375 -0.4375q-0.890625 0 -1.390625 0.65625q-0.484375 0.640625 -0.484375 1.859375l0 0.21875q0 1.1875 0.484375 1.828125q0.484375 0.640625 1.390625 0.640625zm7.0701904 0.953125q-1.390625 0 -2.265625 -0.90625q-0.875 -0.921875 -0.875 -2.46875l0 -0.203125q0 -1.03125 0.390625 -1.828125q0.390625 -0.8125 1.09375 -1.265625q0.703125 -0.453125 1.515625 -0.453125q1.34375 0 2.078125 0.890625q0.75 0.875 0.75 2.515625l0 0.5l-4.65625 0q0.03125 1.015625 0.59375 1.640625q0.5625 0.625 1.4375 0.625q0.625 0 1.046875 -0.25q0.4375 -0.265625 0.765625 -0.6875l0.71875 0.5625q-0.859375 1.328125 -2.59375 1.328125zm-0.140625 -6.15625q-0.71875 0 -1.203125 0.515625q-0.46875 0.515625 -0.59375 1.453125l3.453125 0l0 -0.09375q-0.0625 -0.890625 -0.5 -1.375q-0.421875 -0.5 -1.15625 -0.5zm8.357925 4.203125q0 -0.46875 -0.359375 -0.734375q-0.359375 -0.265625 -1.25 -0.453125q-0.890625 -0.1875 -1.421875 -0.453125q-0.515625 -0.265625 -0.765625 -0.625q-0.25 -0.375 -0.25 -0.890625q0 -0.84375 0.703125 -1.421875q0.71875 -0.59375 1.828125 -0.59375q1.171875 0 1.890625 0.609375q0.734375 0.59375 0.734375 1.546875l-1.1875 0q0 -0.484375 -0.40625 -0.828125q-0.40625 -0.359375 -1.03125 -0.359375q-0.640625 0 -1.0 0.28125q-0.359375 0.28125 -0.359375 0.734375q0 0.421875 0.328125 0.640625q0.34375 0.203125 1.21875 0.40625q0.875 0.203125 1.421875 0.484375q0.546875 0.265625 0.8125 0.65625q0.265625 0.375 0.265625 0.921875q0 0.921875 -0.734375 1.484375q-0.734375 0.546875 -1.90625 0.546875q-0.828125 0 -1.46875 -0.28125q-0.625 -0.296875 -0.984375 -0.8125q-0.359375 -0.53125 -0.359375 -1.140625l1.171875 0q0.03125 0.578125 0.46875 0.9375q0.4375 0.34375 1.171875 0.34375q0.65625 0 1.0625 -0.265625q0.40625 -0.28125 0.40625 -0.734375z" fill-rule="nonzero"></path></g></svg>

